<?xml version="1.0" encoding="UTF-8" standalone="no"?>
<!-- Creator: CorelDRAW X8 -->

<svg
   xmlns:dc="http://purl.org/dc/elements/1.1/"
   xmlns:cc="http://creativecommons.org/ns#"
   xmlns:rdf="http://www.w3.org/1999/02/22-rdf-syntax-ns#"
   xmlns:svg="http://www.w3.org/2000/svg"
   xmlns="http://www.w3.org/2000/svg"
   xmlns:sodipodi="http://sodipodi.sourceforge.net/DTD/sodipodi-0.dtd"
   xmlns:inkscape="http://www.inkscape.org/namespaces/inkscape"
   xml:space="preserve"
   width="385.4465"
   height="385.4465"
   version="1.1"
   style="fill-rule:evenodd"
   viewBox="0 0 4282.7389 4282.7389"
   id="svg2"
   inkscape:version="0.48.5 r10040"
   sodipodi:docname="C (5) - double circle.svg"><metadata
   id="metadata17"><rdf:RDF><cc:Work
       rdf:about=""><dc:format>image/svg+xml</dc:format><dc:type
         rdf:resource="http://purl.org/dc/dcmitype/StillImage" /><dc:title></dc:title></cc:Work></rdf:RDF></metadata><sodipodi:namedview
   pagecolor="#ffffff"
   bordercolor="#666666"
   borderopacity="1"
   objecttolerance="10"
   gridtolerance="10"
   guidetolerance="10"
   inkscape:pageopacity="0"
   inkscape:pageshadow="2"
   inkscape:window-width="1168"
   inkscape:window-height="742"
   id="namedview15"
   showgrid="false"
   inkscape:zoom="1.040317"
   inkscape:cx="44.768439"
   inkscape:cy="116.48455"
   inkscape:window-x="60"
   inkscape:window-y="21"
   inkscape:window-maximized="0"
   inkscape:current-layer="layer1"
   showguides="true"
   inkscape:guide-bbox="true"
   fit-margin-top="0"
   fit-margin-left="0"
   fit-margin-right="0"
   fit-margin-bottom="0" />
 <defs
   id="defs4">
  <style
   type="text/css"
   id="style6">
   
    .fil0 {fill:#212121;fill-rule:nonzero}
   
  </style>
 </defs>
 
<g
   inkscape:groupmode="layer"
   id="layer2"
   inkscape:label="img"
   style="opacity:0.70833333;display:none"
   transform="translate(-9858.6305,-6858.6305)"><g
     style="fill-rule:evenodd"
     id="Layer_x0020_1"
     transform="translate(-2173.1017,-1456.1027)"><metadata
       id="CorelCorpID_0Corel-Layer" /><g
       id="_2572815805488"><path
         class="fil0"
         d="m 12071,9086 c 551,0 1051,225 1413,586 363,362 586,862 586,1415 0,551 -223,1051 -586,1414 -362,362 -862,585 -1413,585 -553,0 -1053,-223 -1416,-585 -361,-363 -585,-863 -585,-1414 0,-553 224,-1053 585,-1415 363,-361 863,-586 1416,-586 z m 1278,721 c -327,-328 -780,-531 -1278,-531 -501,0 -953,203 -1280,531 -329,327 -531,780 -531,1280 0,499 202,951 531,1278 327,329 779,531 1280,531 498,0 951,-202 1278,-531 328,-327 531,-779 531,-1278 0,-500 -203,-953 -531,-1280 z"
         id="path11"
         inkscape:connector-curvature="0"
         style="fill:#212121;fill-rule:nonzero" /><path
         class="fil0"
         d="m 12071,9452 c 450,0 858,183 1154,479 296,296 479,704 479,1156 0,450 -183,858 -479,1154 -296,296 -704,479 -1154,479 -452,0 -860,-183 -1156,-479 -296,-296 -479,-704 -479,-1154 0,-452 183,-860 479,-1156 296,-296 704,-479 1156,-479 z m 1087,546 c -279,-278 -663,-450 -1087,-450 -426,0 -810,172 -1089,450 -278,279 -450,663 -450,1089 0,424 172,808 450,1087 279,278 663,450 1089,450 424,0 808,-172 1087,-450 278,-279 450,-663 450,-1087 0,-426 -172,-810 -450,-1089 z"
         id="path13"
         inkscape:connector-curvature="0"
         style="fill:#212121;fill-rule:nonzero" /></g></g></g><g
   inkscape:groupmode="layer"
   id="layer1"
   inkscape:label="circle"
   style="display:inline"
   transform="translate(-9858.6305,-6858.6305)"><path
     sodipodi:type="arc"
     style="fill:none;stroke:#000000;stroke-width:30;stroke-linejoin:miter;stroke-miterlimit:4;stroke-opacity:1;stroke-dasharray:none"
     id="path2999"
     sodipodi:cx="1093.8073"
     sodipodi:cy="1002.6101"
     sodipodi:rx="180.02325"
     sodipodi:ry="180.02325"
     d="m 1273.8305,1002.6101 a 180.02325,180.02325 0 1 1 -360.0465,0 180.02325,180.02325 0 1 1 360.0465,0 z"
     transform="matrix(11.111111,0,0,11.111111,-153.41378,-2140.1122)" /></g><g
   inkscape:groupmode="layer"
   id="layer3"
   inkscape:label="letter"
   transform="translate(-9858.6305,-6858.6305)"><text
     xml:space="preserve"
     style="font-size:4775.55908203px;font-style:normal;font-variant:normal;font-weight:normal;font-stretch:normal;text-align:start;line-height:50%;letter-spacing:0px;word-spacing:0px;writing-mode:lr-tb;text-anchor:start;fill:#000000;fill-opacity:1;stroke:none;font-family:Two Letter Circle Monogram;-inkscape-font-specification:Two Letter Circle Monogram"
     x="10381.745"
     y="8285.2988"
     id="text3816"
     sodipodi:linespacing="50%"><tspan
       sodipodi:role="line"
       id="tspan3818"
       x="10381.745"
       y="8285.2988" /><tspan
       sodipodi:role="line"
       id="tspan3820"
       x="10381.745"
       y="10557.221"
       style="font-size:4444.44433594px">Ab</tspan></text>
</g></svg>