<?xml version="1.0" encoding="UTF-8" standalone="no"?>
<!-- Created with Inkscape (http://www.inkscape.org/) -->

<svg
   xmlns:dc="http://purl.org/dc/elements/1.1/"
   xmlns:cc="http://creativecommons.org/ns#"
   xmlns:rdf="http://www.w3.org/1999/02/22-rdf-syntax-ns#"
   xmlns:svg="http://www.w3.org/2000/svg"
   xmlns="http://www.w3.org/2000/svg"
   version="1.1"
   width="598.43909"
   height="557.86182"
   id="svg2995">
  <defs
     id="defs2997" />
  <metadata
     id="metadata3000">
    <rdf:RDF>
      <cc:Work
         rdf:about="">
        <dc:format>image/svg+xml</dc:format>
        <dc:type
           rdf:resource="http://purl.org/dc/dcmitype/StillImage" />
        <dc:title></dc:title>
      </cc:Work>
    </rdf:RDF>
  </metadata>
  <g
     transform="translate(-67.018759,-182.898)"
     id="layer1"
     style="display:none">
    <path
       d="m 614.63646,792.48442 c -0.2035,-19.9616 -9.8684,-55.4601 -16.5685,-60.85477 -1.7963,-1.4462 -8.4242,-12.8032 -14.7287,-25.2376 -6.3044,-12.4344 -15.4973,-24.0358 -20.4286,-25.7808 -4.9314,-1.7451 -13.0149,-6.6459 -17.9636,-10.8908 -8.0991,-6.9473 -11.464,-5.5468 -33.7009,14.0268 -30.941,27.2354 -79.9375,51.52317 -117.9482,58.46747 -58.6618,10.717 -124.232,-13.08367 -180.4718,-65.50767 -13.165,-12.2718 -16.1223,-13.1024 -23.6666,-6.6464 -4.7419,4.0578 -12.6563,8.8055 -17.5877,10.5506 -4.9313,1.745 -14.3979,13.0652 -21.037,25.1561 -6.639,12.0909 -16.0989,29.36447 -21.022,38.38577 -4.923,9.0213 -9.0647,26.4607 -9.2036,38.7542 -0.304,26.886 -8.9466,29.53682 -13.6995,4.2017 -6.1022,-32.5276 9.595,-78.13437 38.0663,-110.59767 13.9389,-15.8933 27.1184,-28.9267 29.2879,-28.9632 2.1694,-0.037 3.9444,-3.8244 3.9444,-8.4176 0,-6.9102 -3.8541,-7.7 -22.3377,-4.5772 -32.4798,5.4874 -88.32071,56.7367 -96.25201,88.3374 -5.0079,19.95337 -12.8915,22.75007 -12.8915,4.5734 0,-17.629 21.3559,-60.6778 39.751805,-80.131 6.9157,-7.3132 25.530605,-19.8573 41.366605,-27.8757 19.8804,-10.0664 27.887,-16.939 25.8668,-22.2033 -4.4966,-11.7181 -48.3118,-9.8405 -67.540805,2.8944 -8.677805,5.747 -19.598205,10.4648 -24.267605,10.4838 -4.6694,0.021 -21.1201,12.4596 -36.5573,27.6457 -15.4370996,15.1861 -26.4082996,23.2759 -24.38049959,17.9772 2.02789999,-5.2986 3.68699999,-11.8597 3.68699999,-14.5804 0,-7.7821 42.7012996,-52.0991 57.6461996,-59.8274 7.4184,-3.8362 28.249405,-9.8791 46.29111,-13.4286 19.0225,-3.7424 32.8032,-9.18 32.8032,-12.9433 0,-10.0511 -45.392805,-14.4159 -62.15651,-5.9768 -7.7564,3.9048 -21.0583,8.7724 -29.5596,10.817 -17.2895,4.1581 -43.0144996,20.9902 -56.6826994,37.088 -7.7414996,9.1176 -9.0536996,9.379 -9.2036996,1.8335 -0.2493,-12.5481 22.3119994,-37.6483 50.803599,-56.5204 17.932,-11.8777 30.5726,-16.1978 47.3945,-16.1978 l 22.94031,0 -17.617505,-17.6174 C 61.46275,483.35225 53.98795,462.46345 61.46495,437.50778 c 4.8619,-16.2277 4.5002,-23.7358 -1.8788,-39.003 -9.3902,-22.4739 -10.027,-40.3772 -2.0582,-57.8668 4.894,-10.7411 3.8768,-15.4785 -6.2706,-29.2036 -15.2146,-20.5788 -16.0944,-57.6944 -2.0629,-87.0325 15.4343,-32.27144 69.04301,-82.93767 107.83911,-101.92014 49.4801,-24.209935 98.9217,-31.443195 122.6768,-17.94755 6.9198,3.93124 -8.1573,11.5927 -22.9912,11.68305 -17.1583,0.10466 -50.4597,17.79982 -72.8995,38.73657 -33.698,31.44105 -46.7534,82.30667 -21.1251,82.30667 29.6487,0 84.6317,-47.74116 91.6184,-79.55135 5.0725,-23.09498 14.7061,-12.10195 10.8002,12.32426 -4.1823,26.15461 -20.1324,58.14689 -43.1354,86.51959 -9.7752,12.0571 -17.7732,24.2446 -17.7732,27.0833 0,10.861 -58.5399,58.4616 -75.9029,61.7189 -14.3663,2.6952 -18.233,6.271 -20.8317,19.2646 -6.0054,30.0266 -3.2622,49.3152 9.4672,66.5689 6.9621,9.4365 15.5325,24.09627 19.0454,32.57727 6.7242,16.2335 15.6295,20.6954 15.6295,7.8308 0,-15.395 56.7428,-69.16307 91.7313,-86.92227 29.4023,-14.9238 34.4907,-19.563 34.4907,-31.4456 0,-28.9116 31.1992,-37.1868 45.6133,-12.0983 7.793,13.5641 10.5561,14.4646 44.459,14.4894 22.8011,0.016 36.1496,-2.11 36.1496,-5.759 0,-9.1435 18.1797,-23.1933 30.0109,-23.1933 14.6914,0 24.3378,13.0054 21.3273,28.7539 -2.2156,11.5903 1.0705,14.7211 29.6218,28.2216 37.9356,17.9379 75.7999,50.1483 90.0446,76.59907 5.611,10.4189 11.5587,18.9436 13.2171,18.9436 1.6584,0 8.1238,-10.0584 14.3675,-22.3518 6.2438,-12.29347 15.3184,-28.48367 20.1659,-35.97817 11.3661,-17.5726 6.3106,-73.1512 -6.654,-73.1512 -14.7296,0 -42.6974,-16.3328 -64.4048,-37.6113 -11.8109,-11.5776 -21.4743,-22.6895 -21.4743,-24.6932 0,-2.0037 -10.6272,-17.7965 -23.616,-35.0951 -25.9299,-34.5336 -41.3107,-73.0094 -38.2592,-95.70669 1.8875,-14.03919 2.407,-13.67036 12.7808,9.0731 17.1468,37.59249 74.4078,82.93159 94.8374,75.09199 12.8237,-4.9209 7.9887,-40.42619 -8.6292,-63.36645 -17.8255,-24.60744 -54.8508,-51.75068 -77.0656,-56.49678 -8.3987,-1.79435 -20.5953,-4.3424 -27.1036,-5.66232 -17.8428,-3.61857 -14.2166,-10.9549 7.1268,-14.418425 48.8755,-7.93142 120.8458,21.724255 169.8745,69.997635 53.2617,52.44114 67.5256,98.33154 43.3171,139.36184 -10.0658,17.0604 -10.7031,21.7679 -5.3605,39.5999 4.9496,16.5203 4.4955,25.0316 -2.472,46.3336 -6.6431,20.3101 -7.2846,29.6837 -2.8938,42.2793 7.4013,21.23117 -0.8756,46.63027 -21.6956,66.57717 -8.6109,8.2497 -15.6562,16.9234 -15.6562,19.2748 0,2.3514 9.0609,4.2753 20.1354,4.2753 32.1009,0 95.5681,48.1044 95.5681,72.435 0,6.165 -4.8132,3.852 -17.4289,-8.3757 -24.4385,-23.6866 -90.1437,-48.3712 -118.5961,-44.555 -32.191,4.3178 -26.9609,14.9172 11.0507,22.3955 42.6687,8.3946 56.2254,15.8217 81.6957,44.7575 19.7488,22.4358 31.6241,50.0831 21.5123,50.0831 -2.4915,0 -4.53,-2.2788 -4.53,-5.0639 0,-7.2809 -42.9516,-47.5286 -50.7217,-47.5286 -3.5908,0 -14.7823,-4.8697 -24.87,-10.8216 -20.9187,-12.3423 -69.0376,-12.9259 -69.0376,-0.8373 0,6.4844 6.8188,11.2661 42.7505,29.9787 21.6513,11.2758 34.9096,26.0666 51.4592,57.4078 14.1338,26.7665 17.3959,47.53067 8.3457,53.12397 -2.8926,1.7877 -5.2593,-1.2923 -5.2593,-6.8446 0,-21.68427 -66.1172,-95.33737 -85.8085,-95.58877 -5.2522,-0.067 -14.1623,-2.5907 -19.8002,-5.6079 -20.8029,-11.1334 -16.0427,8.7573 8.3418,34.8565 30.3162,32.4479 36.9446,44.8125 45.0435,84.02367 5.6248,27.2324 5.3588,33.5428 -1.9859,47.1171 l -8.4805,15.67352 -0.2104,-20.66362 z"
       id="path3014-1"
       style="fill:#000000" />
    <path
       d="m -364.82181,72.575722 a 112.85855,112.85855 0 1 1 -225.7171,0 112.85855,112.85855 0 1 1 225.7171,0 z"
       transform="matrix(1.174036,0,0,1.174036,297.88025,411.60905)"
       id="path3083"
       style="fill:#0091c7;fill-opacity:1;fill-rule:nonzero;stroke:none" />
  </g>
  <g
     transform="translate(-83.529654,-85.356946)"
     id="layer3">
    <path
       d="m 474.21875,85.375 c -3.85889,0.07678 -7.58426,0.420344 -11.15625,1 -16.63841,2.700017 -19.47199,8.397867 -5.5625,11.21875 5.07359,1.028954 14.57773,3.0387 21.125,4.4375 17.31772,3.69986 46.1665,24.84834 60.0625,44.03125 12.95461,17.88325 16.74681,45.57013 6.75,49.40625 -15.92605,6.11142 -60.57058,-29.22574 -73.9375,-58.53125 -8.08697,-17.72983 -8.49733,-18.03811 -9.96875,-7.09375 -2.37882,17.69384 9.59865,47.70408 29.8125,74.625 10.12551,13.48526 18.4375,25.78175 18.4375,27.34375 0,1.562 7.51147,10.22459 16.71875,19.25 16.92216,16.58781 38.73618,29.3125 50.21875,29.3125 10.10665,0 14.04803,43.3324 5.1875,57.03125 -3.77891,5.8424 -10.85135,18.47903 -15.71875,28.0625 -4.86732,9.58341 -9.92593,17.40625 -11.21875,17.40625 -1.29282,0 -5.90715,-6.62786 -10.28125,-14.75 -11.10456,-20.61989 -40.64577,-45.73513 -70.21875,-59.71875 -22.25738,-10.52442 -24.78969,-12.9647 -23.0625,-22 C 453.75311,274.12939 446.23405,264 434.78125,264 c -9.2231,0 -23.40625,10.93462 -23.40625,18.0625 0,2.8446 -10.41273,4.5125 -28.1875,4.5 -26.42926,-0.0193 -28.58116,-0.7385 -34.65625,-11.3125 -11.23662,-19.55793 -35.5625,-13.10075 -35.5625,9.4375 0,9.26317 -3.95421,12.89729 -26.875,24.53125 -27.27554,13.84432 -71.53125,55.74871 -71.53125,67.75 0,10.02869 -6.91435,6.5612 -12.15625,-6.09375 -2.73851,-6.61143 -9.44764,-18.04996 -14.875,-25.40625 -9.9233,-13.45025 -12.05655,-28.49879 -7.375,-51.90625 2.02584,-10.12926 5.05064,-12.89894 16.25,-15 13.53545,-2.53925 59.15625,-39.65823 59.15625,-48.125 0,-2.21293 6.25467,-11.69455 13.875,-21.09375 17.93216,-22.11815 30.36466,-47.07973 33.625,-67.46875 3.04488,-19.04164 -4.4832,-27.59761 -8.4375,-9.59375 -5.44654,24.79787 -48.29339,62 -71.40625,62 -19.97874,0 -9.80078,-39.64614 16.46875,-64.15625 17.49311,-16.3214 43.43662,-30.10591 56.8125,-30.1875 11.56388,-0.07043 23.33188,-6.060372 17.9375,-9.125 -18.51847,-10.520631 -57.05241,-4.873036 -95.625,14 -30.24379,14.79793 -72.03058,54.31131 -84.0625,79.46875 -10.93836,22.87073 -10.26691,51.80139 1.59375,67.84375 7.91048,10.6995 8.69015,14.3767 4.875,22.75 -6.21214,13.63415 -5.69521,27.6053 1.625,45.125 4.97279,11.90166 5.25888,17.75582 1.46875,30.40625 -5.82875,19.45438 -0.0109,35.73903 19.90625,55.65625 l 13.71875,13.71875 -17.875,0 c -13.11364,0 -22.95848,3.36565 -36.9375,12.625 -22.21084,14.71188 -39.788093,34.28053 -39.59375,44.0625 0.116934,5.88215 1.121305,5.67019 7.15625,-1.4375 10.65515,-12.54916 30.70935,-25.66477 44.1875,-28.90625 6.62726,-1.59388 17.01594,-5.39349 23.0625,-8.4375 13.06828,-6.57877 48.4375,-3.17916 48.4375,4.65625 0,2.9337 -10.73336,7.17634 -25.5625,10.09375 -14.06455,2.76704 -30.31068,7.47821 -36.09375,10.46875 -11.65041,6.02465 -44.9375,40.58965 -44.9375,46.65625 0,2.12094 -1.294136,7.21318 -2.875,11.34375 -1.580787,4.13064 6.9659,-2.16156 19,-14 12.03418,-11.83843 24.85993,-21.5461 28.5,-21.5625 3.64006,-0.0148 12.1414,-3.67614 18.90625,-8.15625 14.99012,-9.92759 49.15089,-11.38494 52.65625,-2.25 1.57486,4.10382 -4.65833,9.46517 -20.15625,17.3125 -12.34507,6.25081 -26.85882,16.01769 -32.25,21.71875 -14.34067,15.16488 -30.96875,48.72593 -30.96875,62.46875 0,14.16975 6.12731,11.9923 10.03125,-3.5625 6.18291,-24.63456 49.71138,-64.59726 75.03125,-68.875 14.40903,-2.43441 17.40625,-1.8244 17.40625,3.5625 0,3.58066 -1.37133,6.5337 -3.0625,6.5625 -1.69125,0.0285 -11.97757,10.20401 -22.84375,22.59375 -22.19501,25.30701 -34.41327,60.86162 -29.65625,86.21875 3.70516,19.75018 10.45051,17.67794 10.6875,-3.28125 0.10828,-9.58349 3.31848,-23.18613 7.15625,-30.21875 3.83783,-7.03262 11.23077,-20.4807 16.40625,-29.90625 5.17556,-9.42555 12.53077,-18.26468 16.375,-19.625 3.84431,-1.36041 10.02216,-5.05546 13.71875,-8.21875 5.88121,-5.03283 8.17463,-4.37907 18.4375,5.1875 43.84216,40.86752 94.95726,59.41702 140.6875,51.0625 29.63153,-5.41348 67.84846,-24.36219 91.96875,-45.59375 17.33494,-15.25875 19.96754,-16.35332 26.28125,-10.9375 3.8578,3.30915 10.15569,7.13959 14,8.5 3.84423,1.36032 10.99161,10.40042 15.90625,20.09375 4.91472,9.69333 10.09968,18.56011 11.5,19.6875 5.22311,4.20546 12.74761,31.87629 12.90625,47.4375 L 575.6875,643.21875 582.3125,631 c 5.72562,-10.58194 5.91611,-15.48953 1.53125,-36.71875 -6.31356,-30.56737 -11.46053,-40.205 -35.09375,-65.5 -19.00912,-20.34583 -22.71705,-35.86663 -6.5,-27.1875 4.39507,2.35208 11.3431,4.3228 15.4375,4.375 15.3505,0.19598 66.875,57.62712 66.875,74.53125 0,4.32834 1.8388,6.73737 4.09375,5.34375 7.05515,-4.3603 4.51811,-20.57147 -6.5,-41.4375 -12.90137,-24.43227 -23.24656,-35.95986 -40.125,-44.75 -28.01082,-14.58755 -33.3125,-18.32004 -33.3125,-23.375 0,-9.42376 37.50517,-8.96529 53.8125,0.65625 7.86394,4.63984 16.60702,8.4375 19.40625,8.4375 6.05724,0 39.53125,31.38662 39.53125,37.0625 0,2.17115 1.58898,3.9375 3.53125,3.9375 7.88273,0 -1.38593,-21.54126 -16.78125,-39.03125 -19.85557,-22.55712 -30.42479,-28.36217 -63.6875,-34.90625 -29.63223,-5.82976 -33.68849,-14.07152 -8.59375,-17.4375 22.18028,-2.97494 73.38629,16.25368 92.4375,34.71875 9.83467,9.53219 13.59375,11.33722 13.59375,6.53125 0,-18.96711 -49.47551,-56.46875 -74.5,-56.46875 -8.63321,0 -15.6875,-1.5107 -15.6875,-3.34375 0,-1.83305 5.47481,-8.56888 12.1875,-15 16.23039,-15.54975 22.67599,-35.35533 16.90625,-51.90625 -3.42288,-9.81899 -2.92868,-17.13586 2.25,-32.96875 5.43157,-16.60614 5.796,-23.24647 1.9375,-36.125 -4.16487,-13.90107 -3.65937,-17.57543 4.1875,-30.875 18.87191,-31.98547 7.7393,-67.74412 -33.78125,-108.625 -34.6375,-34.10389 -83.94736,-56.304696 -121.25,-55.5625 z m -94.8125,234.15625 c 67.65488,0 122.5,54.84512 122.5,122.5 0,67.65488 -54.84512,122.5 -122.5,122.5 -67.65488,0 -122.5,-54.84512 -122.5,-122.5 0,-67.65488 54.84512,-122.5 122.5,-122.5 z"
       id="path3014-1-7"
       style="fill:#000000" />
  </g>
  <g
     transform="translate(-67.018759,-182.898)"
     id="layer2"
     style="display:none" />
</svg>
