<?xml version="1.0" encoding="UTF-8" standalone="no"?>
<!-- Created with Inkscape (http://www.inkscape.org/) -->

<svg>
  <g
     transform="matrix(0.77954504,0,0,0.77954504,6.8901102,-136.07636)"
     id="layer1">
    <path
       d="m 622.30873,869.50206 c -0.2035,-19.9616 -9.8684,-55.4601 -16.5685,-60.85477 -1.7963,-1.4462 -8.4242,-12.8032 -14.7287,-25.2376 -6.3044,-12.4344 -15.4973,-24.0358 -20.4286,-25.7808 -4.9314,-1.7451 -13.0149,-6.6459 -17.9636,-10.8908 -8.0991,-6.9473 -11.464,-5.5468 -33.7009,14.0268 -30.941,27.2354 -79.9375,51.52317 -117.9482,58.46747 -58.6618,10.717 -124.232,-13.08367 -180.4718,-65.50767 -13.165,-12.2718 -16.1223,-13.1024 -23.6666,-6.6464 -4.7419,4.0578 -12.6563,8.8055 -17.5877,10.5506 -4.9313,1.745 -14.3979,13.0652 -21.037,25.1561 -6.639,12.0909 -16.0989,29.36447 -21.022,38.38577 -4.923,9.0213 -9.0647,26.4607 -9.2036,38.7542 -0.304,26.886 -8.9466,29.53682 -13.6995,4.2017 -6.1022,-32.5276 9.595,-78.13437 38.0663,-110.59767 13.9389,-15.8933 27.1184,-28.9267 29.2879,-28.9632 2.1694,-0.037 3.9444,-3.8244 3.9444,-8.4176 0,-6.9102 -3.8541,-7.7 -22.3377,-4.5772 -32.4798,5.4874 -88.320715,56.7367 -96.252015,88.3374 -5.0079,19.95337 -12.8915,22.75007 -12.8915,4.5734 0,-17.629 21.3559,-60.6778 39.751805,-80.131 6.9157,-7.3132 25.53061,-19.8573 41.36661,-27.8757 19.8804,-10.0664 27.887,-16.939 25.8668,-22.2033 -4.4966,-11.7181 -48.3118,-9.8405 -67.54081,2.8944 -8.677805,5.747 -19.598205,10.4648 -24.267605,10.4838 -4.6694,0.021 -21.1201,12.4596 -36.5573,27.6457 -15.437099,15.1861 -26.408299,23.2759 -24.380499,17.9772 2.0279,-5.2986 3.687,-11.8597 3.687,-14.5804 0,-7.7821 42.701299,-52.0991 57.646199,-59.8274 7.4184,-3.8362 28.249405,-9.8791 46.291115,-13.4286 19.0225,-3.7424 32.8032,-9.18 32.8032,-12.9433 0,-10.0511 -45.39281,-14.4159 -62.156515,-5.9768 -7.7564,3.9048 -21.0583,8.7724 -29.5596,10.817 -17.2895,4.1581 -43.014499,20.9902 -56.6826992,37.088 -7.7414996,9.1176 -9.0536996,9.379 -9.2036996,1.8335 -0.2493,-12.5481 22.3119998,-37.6483 50.8035988,-56.5204 17.932,-11.8777 30.5726,-16.1978 47.3945,-16.1978 l 22.940315,0 -17.61751,-17.6174 c -25.549305,-25.5494 -33.024105,-46.4382 -25.547105,-71.39387 4.8619,-16.2277 4.5002,-23.7358 -1.8788,-39.003 -9.3902,-22.4739 -10.027,-40.3772 -2.0582,-57.8668 4.894,-10.7411 3.8768,-15.4785 -6.2706,-29.2036 -15.2146,-20.5788 -16.0944,-57.6944 -2.0629,-87.0325 15.4343,-32.27144 69.043015,-82.93767 107.839115,-101.92014 49.4801,-24.20994 98.9217,-31.4432 122.6768,-17.94755 6.9198,3.93124 -8.1573,11.5927 -22.9912,11.68305 -17.1583,0.10466 -50.4597,17.79982 -72.8995,38.73657 -33.698,31.44105 -46.7534,82.30667 -21.1251,82.30667 29.6487,0 84.6317,-47.74116 91.6184,-79.55135 5.0725,-23.09498 14.7061,-12.10195 10.8002,12.32426 -4.1823,26.15461 -20.1324,58.14689 -43.1354,86.51959 -9.7752,12.0571 -17.7732,24.2446 -17.7732,27.0833 0,10.861 -58.5399,58.4616 -75.9029,61.7189 -14.3663,2.6952 -18.233,6.271 -20.8317,19.2646 -6.0054,30.0266 -3.2622,49.3152 9.4672,66.5689 6.9621,9.4365 15.5325,24.09627 19.0454,32.57727 6.7242,16.2335 15.6295,20.6954 15.6295,7.8308 0,-15.395 56.7428,-69.16307 91.7313,-86.92227 29.4023,-14.9238 34.4907,-19.563 34.4907,-31.4456 0,-28.9116 31.1992,-37.1868 45.6133,-12.0983 7.793,13.5641 10.5561,14.4646 44.459,14.4894 22.8011,0.016 36.1496,-2.11 36.1496,-5.759 0,-9.1435 18.1797,-23.1933 30.0109,-23.1933 14.6914,0 24.3378,13.0054 21.3273,28.7539 -2.2156,11.5903 1.0705,14.7211 29.6218,28.2216 37.9356,17.9379 75.7999,50.1483 90.0446,76.59907 5.611,10.4189 11.5587,18.9436 13.2171,18.9436 1.6584,0 8.1238,-10.0584 14.3675,-22.3518 6.2438,-12.29347 15.3184,-28.48367 20.1659,-35.97817 11.3661,-17.5726 6.3106,-73.1512 -6.654,-73.1512 -14.7296,0 -42.6974,-16.3328 -64.4048,-37.6113 -11.8109,-11.5776 -21.4743,-22.6895 -21.4743,-24.6932 0,-2.0037 -10.6272,-17.7965 -23.616,-35.0951 -25.9299,-34.5336 -41.3107,-73.0094 -38.2592,-95.70669 1.8875,-14.03919 2.407,-13.67036 12.7808,9.0731 17.1468,37.59249 74.4078,82.93159 94.8374,75.09199 12.8237,-4.9209 7.9887,-40.42619 -8.6292,-63.36645 -17.8255,-24.60744 -54.8508,-51.75068 -77.0656,-56.49678 -8.3987,-1.79435 -20.5953,-4.3424 -27.1036,-5.66232 -17.8428,-3.61857 -14.2166,-10.9549 7.1268,-14.41843 48.8755,-7.93142 120.8458,21.72426 169.8745,69.99764 53.2617,52.44114 67.5256,98.33154 43.3171,139.36184 -10.0658,17.0604 -10.7031,21.7679 -5.3605,39.5999 4.9496,16.5203 4.4955,25.0316 -2.472,46.3336 -6.6431,20.3101 -7.2846,29.6837 -2.8938,42.2793 7.4013,21.23117 -0.8756,46.63027 -21.6956,66.57717 -8.6109,8.2497 -15.6562,16.9234 -15.6562,19.2748 0,2.3514 9.0609,4.2753 20.1354,4.2753 32.1009,0 95.5681,48.1044 95.5681,72.435 0,6.165 -4.8132,3.852 -17.4289,-8.3757 -24.4385,-23.6866 -90.1437,-48.3712 -118.5961,-44.555 -32.191,4.3178 -26.9609,14.9172 11.0507,22.3955 42.6687,8.3946 56.2254,15.8217 81.6957,44.7575 19.7488,22.4358 31.6241,50.0831 21.5123,50.0831 -2.4915,0 -4.53,-2.2788 -4.53,-5.0639 0,-7.2809 -42.9516,-47.5286 -50.7217,-47.5286 -3.5908,0 -14.7823,-4.8697 -24.87,-10.8216 -20.9187,-12.3423 -69.0376,-12.9259 -69.0376,-0.8373 0,6.4844 6.8188,11.2661 42.7505,29.9787 21.6513,11.2758 34.9096,26.0666 51.4592,57.4078 14.1338,26.7665 17.3959,47.53067 8.3457,53.12397 -2.8926,1.7877 -5.2593,-1.2923 -5.2593,-6.8446 0,-21.68427 -66.1172,-95.33737 -85.8085,-95.58877 -5.2522,-0.067 -14.1623,-2.5907 -19.8002,-5.6079 -20.8029,-11.1334 -16.0427,8.7573 8.3418,34.8565 30.3162,32.4479 36.9446,44.8125 45.0435,84.02367 5.6248,27.2324 5.3588,33.5428 -1.9859,47.1171 l -8.4805,15.67352 -0.2104,-20.66362 z"
       id="path3014-1"
       style="fill:#000000" />
  </g>
</svg>
