<?xml version="1.0" encoding="UTF-8" standalone="no"?>
<!-- Created with Inkscape (http://www.inkscape.org/) -->

<svg
   xmlns:dc="http://purl.org/dc/elements/1.1/"
   xmlns:cc="http://creativecommons.org/ns#"
   xmlns:rdf="http://www.w3.org/1999/02/22-rdf-syntax-ns#"
   xmlns:svg="http://www.w3.org/2000/svg"
   xmlns="http://www.w3.org/2000/svg"
   version="1.1"
   width="500"
   height="499.9375"
   viewBox="0 0 500 499.9375"
   id="svg3427">
  <metadata
     id="metadata3437">
    <rdf:RDF>
      <cc:Work
         rdf:about="">
        <dc:format>image/svg+xml</dc:format>
        <dc:type
           rdf:resource="http://purl.org/dc/dcmitype/StillImage" />
        <dc:title></dc:title>
      </cc:Work>
    </rdf:RDF>
  </metadata>
  <defs
     id="defs3435" />
  <path
     d="M 497.15129,142.53482 357.46518,2.8487092 c -4.56245,-4.56245 -10.56239,-3.53121004 -13.34362,2.28123 L 325.403,44.129549 455.87045,174.597 494.87006,155.87843 c 5.81244,-2.78122 6.84368,-8.81241 2.28123,-13.34361 z"
     id="path3429"
     style="fill:#000000" />
  <path
     d="m 300.46575,66.098079 -128.59247,10.71864 c -8.53116,1.06249 -15.65609,2.87498 -18.12481,14.03111 0,0 0,0.0312 0,0.0312 C 118.87381,258.37741 0,421.84453 0,421.84453 l 27.99972,27.99972 132.81117,-132.81117 c -2.93747,-6.12494 -4.56245,-12.96862 -4.56245,-20.21855 0,-25.87474 20.99979,-46.87453 46.87453,-46.87453 25.87474,0 46.87453,20.99979 46.87453,46.87453 0,25.87474 -20.99979,46.87453 -46.87453,46.87453 -7.24993,0 -14.09361,-1.65623 -20.21855,-4.56245 L 50.09325,471.93778 78.09297,499.9375 c 0,0 163.46712,-118.87381 330.96545,-153.74847 0,0 0.0312,0 0.0312,0 11.15613,-2.43747 12.96862,-9.5624 14.03111,-18.12481 L 433.83942,199.47175 300.4345,66.066829 z"
     id="path3431"
     style="fill:#000000" />
</svg>
