<?xml version="1.0" encoding="UTF-8" standalone="no"?>
<!-- Created with Inkscape (http://www.inkscape.org/) -->

<svg
   xmlns:dc="http://purl.org/dc/elements/1.1/"
   xmlns:cc="http://creativecommons.org/ns#"
   xmlns:rdf="http://www.w3.org/1999/02/22-rdf-syntax-ns#"
   xmlns:svg="http://www.w3.org/2000/svg"
   xmlns="http://www.w3.org/2000/svg"
   version="1.1"
   width="500"
   height="218.75"
   viewBox="0 0 500 218.75"
   id="svg2">
  <metadata
     id="metadata10">
    <rdf:RDF>
      <cc:Work
         rdf:about="">
        <dc:format>image/svg+xml</dc:format>
        <dc:type
           rdf:resource="http://purl.org/dc/dcmitype/StillImage" />
        <dc:title></dc:title>
      </cc:Work>
    </rdf:RDF>
  </metadata>
  <defs
     id="defs8" />
  <path
     d="m 435.53125,94.8125 c -8.84375,0 -17.25,1.71875 -24.9375,4.8125 C 405.46875,43.78125 356.75,0 297.3125,0 282.78125,0 268.65625,2.75 256.15625,7.40625 251.28125,9.21875 250,11.0625 250,14.6875 v 196.625 c 0,3.78125 3.0625,6.9375 6.90625,7.3125 0.15625,0.0312 177.5,0.0937 178.65625,0.0937 35.59375,0 64.4375,-27.75 64.4375,-61.96875 C 500,122.5312 471.125,94.7812 435.53125,94.7812 z M 195.3125,218.75 h 15.625 L 218.75,109.28125 210.9375,0 h -15.625 L 187.5,109.28125 z m -46.875,0 h -15.625 L 125,139.28125 132.8125,62.5 h 15.625 l 7.8125,78.125 z m -78.125,0 h 15.625 L 93.75,156.25 85.9375,93.75 H 70.3125 L 62.5,156.25 z m -62.5,-31.25 h 15.625 L 31.25,156.25 23.4375,125 H 7.8125 L 0,156.25 z"
     id="path4"
     style="fill:#000000" />
</svg>
