<!-- Created with clker.com Auto tracing tool http://www.clker.com) -->
<svg xmlns="http://www.w3.org/2000/svg" width="1034.000000" height="601.000000">
<path style="opacity:1;fill:#000000;fill-rule:evenodd;stroke:#000000;stroke-width:0.5px;stroke-linecap:butt;stroke-linejoin:miter;stroke-opacity:1;" d="M 692.2 102.8 L 692.0 102.5 L 691.8 102.2 L 691.5 102.0 L 691.2 101.8 L 691.0 101.5 L 690.8 101.2 L 690.5 101.0 L 690.2 100.8 L 690.0 100.5 L 689.8 100.2 L 689.5 100.0 L 689.2 99.8 L 689.0 99.5 L 688.8 99.2 L 688.5 99.0 L 688.2 98.8 L 688.0 98.5 L 687.8 98.2 L 687.5 98.0 L 687.2 97.8 L 687.0 97.5 L 686.8 97.2 L 686.5 97.0 L 686.2 96.8 L 686.0 96.5 L 688.0 96.5 L 690.0 96.5 L 692.0 97.0 L 694.0 97.5 L 728.0 107.0 Q 762.0 116.5 792.0 128.5 Q 822.0 140.5 843.8 152.2 Q 865.5 164.0 883.2 176.2 Q 901.0 188.5 915.2 201.2 Q 929.5 214.0 941.0 229.0 Q 952.5 244.0 959.0 257.0 Q 965.5 270.0 968.5 283.0 Q 971.5 296.0 971.0 309.0 Q 970.5 322.0 966.5 336.0 Q 962.5 350.0 955.5 364.0 Q 948.5 378.0 938.0 392.0 Q 927.5 406.0 915.8 417.8 Q 904.0 429.5 884.5 443.5 Q 865.0 457.5 843.5 469.0 Q 822.0 480.5 795.5 490.5 Q 769.0 500.5 764.5 502.0 Q 760.0 503.5 758.0 504.0 L 756.0 504.5 L 754.5 505.0 L 753.0 505.5 L 751.5 506.0 L 750.0 506.5 L 749.0 506.8 L 748.0 507.0 L 748.0 506.0 L 748.0 505.0 L 749.0 504.8 L 750.0 504.5 L 750.2 504.2 L 750.5 504.0 L 750.8 503.8 L 751.0 503.5 L 751.2 503.2 L 751.5 503.0 L 751.8 502.8 L 752.0 502.5 L 752.2 502.2 L 752.5 502.0 L 752.8 501.8 L 753.0 501.5 L 753.2 501.2 L 753.5 501.0 L 753.8 500.8 Q 754.0 500.5 755.2 499.2 Q 756.5 498.0 769.2 482.8 Q 782.0 467.5 790.2 451.8 Q 798.5 436.0 801.5 422.0 Q 804.5 408.0 803.5 398.0 Q 802.5 388.0 799.0 380.5 Q 795.5 373.0 790.2 368.2 Q 785.0 363.5 777.5 360.5 Q 770.0 357.5 758.0 357.5 Q 746.0 357.5 731.0 362.5 Q 716.0 367.5 700.5 377.0 Q 685.0 386.5 672.0 397.5 L 659.0 408.5 L 658.8 408.8 L 658.5 409.0 L 658.2 409.2 L 658.0 409.5 L 656.5 409.8 L 655.0 410.0 L 654.8 409.0 Q 654.5 408.0 647.5 398.0 Q 640.5 388.0 633.8 383.2 Q 627.0 378.5 620.5 378.0 Q 614.0 377.5 606.0 381.5 Q 598.0 385.5 592.0 391.5 Q 586.0 397.5 575.0 413.0 Q 564.0 428.5 543.8 465.8 L 523.5 503.0 L 523.0 504.0 L 522.5 505.0 L 522.0 506.0 L 521.5 507.0 L 521.0 508.0 L 520.5 509.0 L 520.0 508.0 L 519.5 507.0 L 519.0 506.0 L 518.5 505.0 L 518.2 504.8 L 518.0 504.5 L 517.8 504.2 L 517.5 504.0 L 517.0 503.0 Q 516.5 502.0 502.0 474.5 Q 487.5 447.0 475.5 427.5 Q 463.5 408.0 453.8 397.2 Q 444.0 386.5 437.0 382.5 Q 430.0 378.5 424.0 378.0 Q 418.0 377.5 415.0 378.5 Q 412.0 379.5 405.5 384.5 Q 399.0 389.5 392.5 399.8 L 386.0 410.0 L 384.5 409.8 L 383.0 409.5 L 382.8 409.2 L 382.5 409.0 L 382.2 408.8 L 382.0 408.5 L 369.0 397.5 Q 356.0 386.5 340.5 377.0 Q 325.0 367.5 312.5 363.0 Q 300.0 358.5 289.5 357.5 Q 279.0 356.5 270.0 358.5 Q 261.0 360.5 255.5 363.8 Q 250.0 367.0 250.0 368.0 Q 250.0 369.0 249.0 369.0 Q 248.0 369.0 243.8 376.5 Q 239.5 384.0 238.0 391.0 Q 236.5 398.0 237.5 410.0 Q 238.5 422.0 243.5 436.0 Q 248.5 450.0 258.0 464.5 Q 267.5 479.0 277.2 489.8 Q 287.0 500.5 287.2 500.8 L 287.5 501.0 L 287.8 501.2 L 288.0 501.5 L 288.2 501.8 L 288.5 502.0 L 288.8 502.2 L 289.0 502.5 L 289.2 502.8 L 289.5 503.0 L 289.8 503.2 L 290.0 503.5 L 290.2 503.8 L 290.5 504.0 L 290.8 504.2 L 291.0 504.5 L 292.0 504.8 L 293.0 505.0 L 293.0 506.0 L 293.0 507.0 L 292.0 506.8 L 291.0 506.5 L 289.5 506.0 L 288.0 505.5 L 286.5 505.0 L 285.0 504.5 L 283.5 504.0 Q 282.0 503.5 272.0 500.5 Q 262.0 497.5 236.5 487.0 Q 211.0 476.5 191.0 465.5 Q 171.0 454.5 154.5 442.5 Q 138.0 430.5 126.2 418.8 Q 114.5 407.0 104.2 393.8 Q 94.0 380.5 86.2 365.8 Q 78.5 351.0 74.5 336.5 Q 70.5 322.0 70.0 308.5 Q 69.5 295.0 72.5 282.5 Q 75.5 270.0 82.5 256.0 Q 89.5 242.0 101.2 227.2 Q 113.0 212.5 128.5 199.0 Q 144.0 185.5 160.0 174.5 Q 176.0 163.5 198.5 151.5 Q 221.0 139.5 251.5 127.5 Q 282.0 115.5 314.5 106.5 L 347.0 97.5 L 349.0 97.0 L 351.0 96.5 L 353.0 96.5 L 355.0 96.5 L 354.8 96.8 L 354.5 97.0 L 354.2 97.2 L 354.0 97.5 L 353.8 97.8 L 353.5 98.0 L 353.2 98.2 L 353.0 98.5 L 352.8 98.8 L 352.5 99.0 L 352.2 99.2 L 352.0 99.5 L 351.8 99.8 L 351.5 100.0 L 351.2 100.2 L 351.0 100.5 L 350.8 100.8 L 350.5 101.0 L 350.2 101.2 L 350.0 101.5 L 349.8 101.8 L 349.5 102.0 L 349.2 102.2 L 349.0 102.5 L 338.8 114.8 Q 328.5 127.0 323.0 138.0 Q 317.5 149.0 315.5 157.0 Q 313.5 165.0 314.0 173.5 Q 314.5 182.0 318.2 190.2 Q 322.0 198.5 326.5 204.0 Q 331.0 209.5 341.0 216.0 Q 351.0 222.5 364.5 227.0 Q 378.0 231.5 396.0 231.5 Q 414.0 231.5 421.0 228.0 Q 428.0 224.5 433.8 219.8 Q 439.5 215.0 446.5 204.5 Q 453.5 194.0 458.5 181.0 Q 463.5 168.0 466.0 130.0 Q 468.5 92.0 470.2 83.2 Q 472.0 74.5 479.8 89.2 Q 487.5 104.0 489.2 109.5 Q 491.0 115.0 500.5 113.2 Q 510.0 111.5 524.0 112.0 Q 538.0 112.5 544.0 113.8 Q 550.0 115.0 554.8 103.0 Q 559.5 91.0 564.5 82.5 Q 569.5 74.0 572.5 102.0 Q 575.5 130.0 576.5 149.0 Q 577.5 168.0 582.5 181.0 Q 587.5 194.0 593.8 203.2 Q 600.0 212.5 605.5 218.0 Q 611.0 223.5 619.0 227.5 Q 627.0 231.5 645.0 231.5 Q 663.0 231.5 676.5 227.0 Q 690.0 222.5 698.5 217.0 Q 707.0 211.5 713.2 204.8 Q 719.5 198.0 723.0 189.5 Q 726.5 181.0 726.5 170.5 Q 726.5 160.0 723.0 150.0 Q 719.5 140.0 712.5 129.0 Q 705.5 118.0 699.0 110.5 Q 692.5 103.0 692.2 102.8 z  "/>
<path style="opacity:1;fill:#FFFFFF;fill-rule:evenodd;stroke:#FFFFFF;stroke-width:0.5px;stroke-linecap:butt;stroke-linejoin:miter;stroke-opacity:1;" d="M 0.0 300.5 L 0.0 0.0 L 517.0 0.0 L 1034.0 0.0 L 1034.0 300.5 L 1034.0 601.0 L 517.0 601.0 L 0.0 601.0 L 0.0 300.5 z  M 963.8 190.5 L 964.0 191.0 L 975.2 205.0 Q 986.5 219.0 994.5 234.0 Q 1002.5 249.0 1007.5 266.0 Q 1012.5 283.0 1013.5 291.0 Q 1014.5 299.0 1014.0 314.5 Q 1013.5 330.0 1009.5 346.0 Q 1005.5 362.0 998.0 377.5 Q 990.5 393.0 990.0 394.0 L 989.5 395.0 L 989.2 395.2 L 989.0 395.5 L 988.8 395.8 L 988.5 396.0 L 988.0 397.0 Q 987.5 398.0 987.2 398.0 L 987.0 398.0 L 986.8 398.5 Q 986.5 399.0 986.2 399.0 L 986.0 399.0 L 985.8 400.0 L 985.5 401.0 L 985.2 401.0 L 985.0 401.0 L 984.8 402.0 Q 984.5 403.0 972.5 417.5 Q 960.5 432.0 945.2 446.0 L 930.0 460.0 L 929.5 460.0 L 929.0 460.0 L 928.8 460.5 L 928.5 461.0 L 928.2 461.0 L 928.0 461.0 L 927.8 461.5 L 927.5 462.0 L 927.2 462.2 L 927.0 462.5 L 926.0 462.8 L 925.0 463.0 L 924.8 463.5 Q 924.5 464.0 924.2 464.0 L 924.0 464.0 L 923.8 464.5 Q 923.5 465.0 906.5 476.5 Q 889.5 488.0 867.8 499.8 Q 846.0 511.5 816.5 523.5 Q 787.0 535.5 752.5 545.5 Q 718.0 555.5 680.0 562.5 Q 642.0 569.5 604.0 573.0 Q 566.0 576.5 521.5 576.5 Q 477.0 576.5 446.5 574.0 Q 416.0 571.5 379.5 565.5 Q 343.0 559.5 308.5 550.5 Q 274.0 541.5 245.5 531.0 Q 217.0 520.5 190.0 507.0 Q 163.0 493.5 143.5 481.0 Q 124.0 468.5 109.5 456.2 L 95.0 444.0 L 94.5 443.8 L 94.0 443.5 L 94.0 443.2 L 94.0 443.0 L 93.5 442.8 L 93.0 442.5 L 92.8 442.2 L 92.5 442.0 L 92.2 441.8 L 92.0 441.5 L 91.8 441.2 L 91.5 441.0 L 91.2 440.8 L 91.0 440.5 L 90.8 440.2 L 90.5 440.0 L 90.2 439.8 L 90.0 439.5 L 89.8 439.2 Q 89.5 439.0 86.5 436.0 Q 83.5 433.0 70.0 416.5 Q 56.5 400.0 47.0 381.0 Q 37.5 362.0 33.5 346.0 Q 29.5 330.0 29.5 309.0 Q 29.5 288.0 33.5 272.5 Q 37.5 257.0 44.8 242.0 L 52.0 227.0 L 52.2 226.5 Q 52.5 226.0 52.8 226.0 L 53.0 226.0 L 60.8 214.5 Q 68.5 203.0 83.2 187.2 Q 98.0 171.5 116.0 157.5 Q 134.0 143.5 157.5 129.5 Q 181.0 115.5 206.5 104.0 Q 232.0 92.5 259.5 83.0 Q 287.0 73.5 322.5 65.0 Q 358.0 56.5 396.5 51.0 Q 435.0 45.5 471.5 43.5 Q 508.0 41.5 552.5 43.0 Q 597.0 44.5 635.5 49.5 Q 674.0 54.5 709.5 62.5 Q 745.0 70.5 779.5 82.0 Q 814.0 93.5 842.0 106.5 Q 870.0 119.5 891.5 133.0 Q 913.0 146.5 924.2 155.2 Q 935.5 164.0 947.0 174.5 Q 958.5 185.0 961.0 187.5 Q 963.5 190.0 963.8 190.5 z  "/>
<path style="opacity:1;fill:#FEFEFE;fill-rule:evenodd;stroke:#FEFEFE;stroke-width:0.5px;stroke-linecap:butt;stroke-linejoin:miter;stroke-opacity:1;" d="M 951.5 205.8 L 952.0 206.0 L 952.2 207.0 L 952.5 208.0 L 952.8 208.2 L 953.0 208.5 L 962.2 220.8 Q 971.5 233.0 978.5 247.5 Q 985.5 262.0 989.0 275.5 Q 992.5 289.0 992.5 309.5 Q 992.5 330.0 988.5 345.0 Q 984.5 360.0 981.0 367.5 Q 977.5 375.0 977.2 376.0 L 977.0 377.0 L 976.5 377.2 Q 976.0 377.5 976.0 377.8 L 976.0 378.0 L 975.8 378.5 Q 975.5 379.0 971.5 385.5 Q 967.5 392.0 956.5 406.0 Q 945.5 420.0 933.5 431.0 L 921.5 442.0 L 921.2 442.2 L 921.0 442.5 L 920.8 442.8 L 920.5 443.0 L 920.2 443.2 L 920.0 443.5 L 920.0 443.8 L 920.0 444.0 L 919.5 444.2 L 919.0 444.5 L 918.0 445.0 Q 917.0 445.5 910.0 451.0 Q 903.0 456.5 881.8 469.8 Q 860.5 483.0 833.2 495.8 Q 806.0 508.5 775.0 519.0 Q 744.0 529.5 708.5 537.5 Q 673.0 545.5 635.0 550.5 Q 597.0 555.5 552.0 557.0 Q 507.0 558.5 471.5 556.5 Q 436.0 554.5 400.0 549.5 Q 364.0 544.5 328.0 536.0 Q 292.0 527.5 259.5 516.0 Q 227.0 504.5 201.5 492.0 Q 176.0 479.5 156.0 466.5 Q 136.0 453.5 120.0 440.2 L 104.0 427.0 L 103.8 426.5 Q 103.5 426.0 99.2 421.2 Q 95.0 416.5 84.5 403.0 Q 74.0 389.5 66.2 374.8 Q 58.5 360.0 54.5 345.0 Q 50.5 330.0 50.0 314.0 Q 49.5 298.0 51.5 286.5 Q 53.5 275.0 59.8 258.5 L 66.0 242.0 L 66.5 241.8 Q 67.0 241.5 67.0 241.2 L 67.0 241.0 L 75.5 228.2 Q 84.0 215.5 95.5 202.5 Q 107.0 189.5 124.0 175.5 Q 141.0 161.5 161.5 149.0 Q 182.0 136.5 207.0 124.5 Q 232.0 112.5 262.0 102.0 Q 292.0 91.5 328.0 83.0 Q 364.0 74.5 400.0 69.5 Q 436.0 64.5 471.5 62.5 Q 507.0 60.5 552.0 62.0 Q 597.0 63.5 635.0 68.5 Q 673.0 73.5 708.5 81.5 Q 744.0 89.5 775.0 100.0 Q 806.0 110.5 832.0 122.5 Q 858.0 134.5 878.8 147.2 Q 899.5 160.0 914.2 171.8 Q 929.0 183.5 940.0 194.5 Q 951.0 205.5 951.5 205.8 z  M 692.2 102.8 L 692.0 102.5 L 691.8 102.2 L 691.5 102.0 L 691.2 101.8 L 691.0 101.5 L 690.8 101.2 L 690.5 101.0 L 690.2 100.8 L 690.0 100.5 L 689.8 100.2 L 689.5 100.0 L 689.2 99.8 L 689.0 99.5 L 688.8 99.2 L 688.5 99.0 L 688.2 98.8 L 688.0 98.5 L 687.8 98.2 L 687.5 98.0 L 687.2 97.8 L 687.0 97.5 L 686.8 97.2 L 686.5 97.0 L 686.2 96.8 L 686.0 96.5 L 688.0 96.5 L 690.0 96.5 L 692.0 97.0 L 694.0 97.5 L 728.0 107.0 Q 762.0 116.5 792.0 128.5 Q 822.0 140.5 843.8 152.2 Q 865.5 164.0 883.2 176.2 Q 901.0 188.5 915.2 201.2 Q 929.5 214.0 941.0 229.0 Q 952.5 244.0 959.0 257.0 Q 965.5 270.0 968.5 283.0 Q 971.5 296.0 971.0 309.0 Q 970.5 322.0 966.5 336.0 Q 962.5 350.0 955.5 364.0 Q 948.5 378.0 938.0 392.0 Q 927.5 406.0 915.8 417.8 Q 904.0 429.5 884.5 443.5 Q 865.0 457.5 843.5 469.0 Q 822.0 480.5 795.5 490.5 Q 769.0 500.5 764.5 502.0 Q 760.0 503.5 758.0 504.0 L 756.0 504.5 L 754.5 505.0 L 753.0 505.5 L 751.5 506.0 L 750.0 506.5 L 749.0 506.8 L 748.0 507.0 L 748.0 506.0 L 748.0 505.0 L 749.0 504.8 L 750.0 504.5 L 750.2 504.2 L 750.5 504.0 L 750.8 503.8 L 751.0 503.5 L 751.2 503.2 L 751.5 503.0 L 751.8 502.8 L 752.0 502.5 L 752.2 502.2 L 752.5 502.0 L 752.8 501.8 L 753.0 501.5 L 753.2 501.2 L 753.5 501.0 L 753.8 500.8 Q 754.0 500.5 755.2 499.2 Q 756.5 498.0 769.2 482.8 Q 782.0 467.5 790.2 451.8 Q 798.5 436.0 801.5 422.0 Q 804.5 408.0 803.5 398.0 Q 802.5 388.0 799.0 380.5 Q 795.5 373.0 790.2 368.2 Q 785.0 363.5 777.5 360.5 Q 770.0 357.5 758.0 357.5 Q 746.0 357.5 731.0 362.5 Q 716.0 367.5 700.5 377.0 Q 685.0 386.5 672.0 397.5 L 659.0 408.5 L 658.8 408.8 L 658.5 409.0 L 658.2 409.2 L 658.0 409.5 L 656.5 409.8 L 655.0 410.0 L 654.8 409.0 Q 654.5 408.0 647.5 398.0 Q 640.5 388.0 633.8 383.2 Q 627.0 378.5 620.5 378.0 Q 614.0 377.5 606.0 381.5 Q 598.0 385.5 592.0 391.5 Q 586.0 397.5 575.0 413.0 Q 564.0 428.5 543.8 465.8 L 523.5 503.0 L 523.0 504.0 L 522.5 505.0 L 522.0 506.0 L 521.5 507.0 L 521.0 508.0 L 520.5 509.0 L 520.0 508.0 L 519.5 507.0 L 519.0 506.0 L 518.5 505.0 L 518.2 504.8 L 518.0 504.5 L 517.8 504.2 L 517.5 504.0 L 517.0 503.0 Q 516.5 502.0 502.0 474.5 Q 487.5 447.0 475.5 427.5 Q 463.5 408.0 453.8 397.2 Q 444.0 386.5 437.0 382.5 Q 430.0 378.5 424.0 378.0 Q 418.0 377.5 415.0 378.5 Q 412.0 379.5 405.5 384.5 Q 399.0 389.5 392.5 399.8 L 386.0 410.0 L 384.5 409.8 L 383.0 409.5 L 382.8 409.2 L 382.5 409.0 L 382.2 408.8 L 382.0 408.5 L 369.0 397.5 Q 356.0 386.5 340.5 377.0 Q 325.0 367.5 312.5 363.0 Q 300.0 358.5 289.5 357.5 Q 279.0 356.5 270.0 358.5 Q 261.0 360.5 255.5 363.8 Q 250.0 367.0 250.0 368.0 Q 250.0 369.0 249.0 369.0 Q 248.0 369.0 243.8 376.5 Q 239.5 384.0 238.0 391.0 Q 236.5 398.0 237.5 410.0 Q 238.5 422.0 243.5 436.0 Q 248.5 450.0 258.0 464.5 Q 267.5 479.0 277.2 489.8 Q 287.0 500.5 287.2 500.8 L 287.5 501.0 L 287.8 501.2 L 288.0 501.5 L 288.2 501.8 L 288.5 502.0 L 288.8 502.2 L 289.0 502.5 L 289.2 502.8 L 289.5 503.0 L 289.8 503.2 L 290.0 503.5 L 290.2 503.8 L 290.5 504.0 L 290.8 504.2 L 291.0 504.5 L 292.0 504.8 L 293.0 505.0 L 293.0 506.0 L 293.0 507.0 L 292.0 506.8 L 291.0 506.5 L 289.5 506.0 L 288.0 505.5 L 286.5 505.0 L 285.0 504.5 L 283.5 504.0 Q 282.0 503.5 272.0 500.5 Q 262.0 497.5 236.5 487.0 Q 211.0 476.5 191.0 465.5 Q 171.0 454.5 154.5 442.5 Q 138.0 430.5 126.2 418.8 Q 114.5 407.0 104.2 393.8 Q 94.0 380.5 86.2 365.8 Q 78.5 351.0 74.5 336.5 Q 70.5 322.0 70.0 308.5 Q 69.5 295.0 72.5 282.5 Q 75.5 270.0 82.5 256.0 Q 89.5 242.0 101.2 227.2 Q 113.0 212.5 128.5 199.0 Q 144.0 185.5 160.0 174.5 Q 176.0 163.5 198.5 151.5 Q 221.0 139.5 251.5 127.5 Q 282.0 115.5 314.5 106.5 L 347.0 97.5 L 349.0 97.0 L 351.0 96.5 L 353.0 96.5 L 355.0 96.5 L 354.8 96.8 L 354.5 97.0 L 354.2 97.2 L 354.0 97.5 L 353.8 97.8 L 353.5 98.0 L 353.2 98.2 L 353.0 98.5 L 352.8 98.8 L 352.5 99.0 L 352.2 99.2 L 352.0 99.5 L 351.8 99.8 L 351.5 100.0 L 351.2 100.2 L 351.0 100.5 L 350.8 100.8 L 350.5 101.0 L 350.2 101.2 L 350.0 101.5 L 349.8 101.8 L 349.5 102.0 L 349.2 102.2 L 349.0 102.5 L 338.8 114.8 Q 328.5 127.0 323.0 138.0 Q 317.5 149.0 315.5 157.0 Q 313.5 165.0 314.0 173.5 Q 314.5 182.0 318.2 190.2 Q 322.0 198.5 326.5 204.0 Q 331.0 209.5 341.0 216.0 Q 351.0 222.5 364.5 227.0 Q 378.0 231.5 396.0 231.5 Q 414.0 231.5 421.0 228.0 Q 428.0 224.5 433.8 219.8 Q 439.5 215.0 446.5 204.5 Q 453.5 194.0 458.5 181.0 Q 463.5 168.0 466.0 130.0 Q 468.5 92.0 470.2 83.2 Q 472.0 74.5 479.8 89.2 Q 487.5 104.0 489.2 109.5 Q 491.0 115.0 500.5 113.2 Q 510.0 111.5 524.0 112.0 Q 538.0 112.5 544.0 113.8 Q 550.0 115.0 554.8 103.0 Q 559.5 91.0 564.5 82.5 Q 569.5 74.0 572.5 102.0 Q 575.5 130.0 576.5 149.0 Q 577.5 168.0 582.5 181.0 Q 587.5 194.0 593.8 203.2 Q 600.0 212.5 605.5 218.0 Q 611.0 223.5 619.0 227.5 Q 627.0 231.5 645.0 231.5 Q 663.0 231.5 676.5 227.0 Q 690.0 222.5 698.5 217.0 Q 707.0 211.5 713.2 204.8 Q 719.5 198.0 723.0 189.5 Q 726.5 181.0 726.5 170.5 Q 726.5 160.0 723.0 150.0 Q 719.5 140.0 712.5 129.0 Q 705.5 118.0 699.0 110.5 Q 692.5 103.0 692.2 102.8 z  "/>
<path style="opacity:1;fill:#030303;fill-rule:evenodd;stroke:#030303;stroke-width:0.5px;stroke-linecap:butt;stroke-linejoin:miter;stroke-opacity:1;" d="M 963.8 190.5 L 964.0 191.0 L 964.0 192.8 Q 964.0 194.5 964.2 194.8 L 964.5 195.0 L 964.5 196.5 L 964.5 198.0 L 964.2 197.8 Q 964.0 197.5 963.0 197.2 Q 962.0 197.0 961.8 198.0 Q 961.5 199.0 958.8 199.5 L 956.0 200.0 L 956.5 201.2 Q 957.0 202.5 957.8 201.8 Q 958.5 201.0 958.8 202.5 L 959.0 204.0 L 958.0 204.0 L 957.0 204.0 L 956.8 205.0 L 956.5 206.0 L 956.2 205.8 L 956.0 205.5 L 955.8 205.2 L 955.5 205.0 L 955.0 204.0 Q 954.5 203.0 953.8 203.8 L 953.0 204.5 L 952.8 204.8 L 952.5 205.0 L 952.2 205.2 L 952.0 205.5 L 952.0 205.8 L 952.0 206.0 L 951.5 205.8 Q 951.0 205.5 940.0 194.5 Q 929.0 183.5 914.2 171.8 Q 899.5 160.0 878.8 147.2 Q 858.0 134.5 832.0 122.5 Q 806.0 110.5 775.0 100.0 Q 744.0 89.5 708.5 81.5 Q 673.0 73.5 635.0 68.5 Q 597.0 63.5 552.0 62.0 Q 507.0 60.5 471.5 62.5 Q 436.0 64.5 400.0 69.5 Q 364.0 74.5 328.0 83.0 Q 292.0 91.5 262.0 102.0 Q 232.0 112.5 207.0 124.5 Q 182.0 136.5 161.5 149.0 Q 141.0 161.5 124.0 175.5 Q 107.0 189.5 95.5 202.5 Q 84.0 215.5 75.5 228.2 L 67.0 241.0 L 66.8 241.0 Q 66.5 241.0 66.2 241.5 L 66.0 242.0 L 64.0 242.2 L 62.0 242.5 L 61.0 242.8 L 60.0 243.0 L 60.0 242.0 L 60.0 241.0 L 61.5 240.8 Q 63.0 240.5 59.5 239.8 Q 56.0 239.0 55.8 236.0 Q 55.5 233.0 53.8 230.0 L 52.0 227.0 L 52.5 226.8 Q 53.0 226.5 53.0 226.2 L 53.0 226.0 L 60.8 214.5 Q 68.5 203.0 83.2 187.2 Q 98.0 171.5 116.0 157.5 Q 134.0 143.5 157.5 129.5 Q 181.0 115.5 206.5 104.0 Q 232.0 92.5 259.5 83.0 Q 287.0 73.5 322.5 65.0 Q 358.0 56.5 396.5 51.0 Q 435.0 45.5 471.5 43.5 Q 508.0 41.5 552.5 43.0 Q 597.0 44.5 635.5 49.5 Q 674.0 54.5 709.5 62.5 Q 745.0 70.5 779.5 82.0 Q 814.0 93.5 842.0 106.5 Q 870.0 119.5 891.5 133.0 Q 913.0 146.5 924.2 155.2 Q 935.5 164.0 947.0 174.5 Q 958.5 185.0 961.0 187.5 Q 963.5 190.0 963.8 190.5 z  "/>
<path style="opacity:1;fill:#020202;fill-rule:evenodd;stroke:#020202;stroke-width:0.5px;stroke-linecap:butt;stroke-linejoin:miter;stroke-opacity:1;" d="M 102.8 428.5 L 104.0 427.0 L 120.0 440.2 Q 136.0 453.5 156.0 466.5 Q 176.0 479.5 201.5 492.0 Q 227.0 504.5 259.5 516.0 Q 292.0 527.5 328.0 536.0 Q 364.0 544.5 400.0 549.5 Q 436.0 554.5 471.5 556.5 Q 507.0 558.5 552.0 557.0 Q 597.0 555.5 635.0 550.5 Q 673.0 545.5 708.5 537.5 Q 744.0 529.5 775.0 519.0 Q 806.0 508.5 833.2 495.8 Q 860.5 483.0 881.8 469.8 Q 903.0 456.5 910.0 451.0 Q 917.0 445.5 918.0 445.0 L 919.0 444.5 L 919.5 444.2 L 920.0 444.0 L 921.0 444.2 L 922.0 444.5 L 922.2 444.8 L 922.5 445.0 L 922.8 445.2 L 923.0 445.5 L 924.5 445.8 L 926.0 446.0 L 926.0 447.5 L 926.0 449.0 L 927.0 449.0 L 928.0 449.0 L 928.5 453.2 Q 929.0 457.5 929.2 457.8 Q 929.5 458.0 929.8 459.0 L 930.0 460.0 L 930.0 460.2 Q 930.0 460.5 929.0 460.8 L 928.0 461.0 L 927.8 460.5 Q 927.5 460.0 926.2 459.5 Q 925.0 459.0 925.2 460.0 L 925.5 461.0 L 925.2 461.8 Q 925.0 462.5 925.0 462.8 L 925.0 463.0 L 924.5 463.2 Q 924.0 463.5 924.0 463.8 L 924.0 464.0 L 923.8 464.5 Q 923.5 465.0 906.5 476.5 Q 889.5 488.0 867.8 499.8 Q 846.0 511.5 816.5 523.5 Q 787.0 535.5 752.5 545.5 Q 718.0 555.5 680.0 562.5 Q 642.0 569.5 604.0 573.0 Q 566.0 576.5 521.5 576.5 Q 477.0 576.5 446.5 574.0 Q 416.0 571.5 379.5 565.5 Q 343.0 559.5 308.5 550.5 Q 274.0 541.5 245.5 531.0 Q 217.0 520.5 190.0 507.0 Q 163.0 493.5 143.5 481.0 Q 124.0 468.5 109.5 456.2 L 95.0 444.0 L 94.5 443.8 L 94.0 443.5 L 94.0 443.2 L 94.0 443.0 L 94.0 442.8 Q 94.0 442.5 94.8 441.8 L 95.5 441.0 L 95.2 440.8 L 95.0 440.5 L 95.2 440.2 L 95.5 440.0 L 96.0 438.0 Q 96.5 436.0 96.8 434.5 L 97.0 433.0 L 99.0 432.8 Q 101.0 432.5 101.2 431.2 Q 101.5 430.0 102.8 428.5 z  "/>
<path style="opacity:1;fill:#020202;fill-rule:evenodd;stroke:#020202;stroke-width:0.5px;stroke-linecap:butt;stroke-linejoin:miter;stroke-opacity:1;" d="M 964.0 192.8 L 964.0 191.0 L 975.2 205.0 Q 986.5 219.0 994.5 234.0 Q 1002.5 249.0 1007.5 266.0 Q 1012.5 283.0 1013.5 291.0 Q 1014.5 299.0 1014.0 314.5 Q 1013.5 330.0 1009.5 346.0 Q 1005.5 362.0 998.0 377.5 Q 990.5 393.0 990.0 394.0 L 989.5 395.0 L 989.2 395.2 L 989.0 395.5 L 988.8 395.8 L 988.5 396.0 L 988.0 397.5 L 987.5 399.0 L 987.2 399.2 L 987.0 399.5 L 986.8 399.8 L 986.5 400.0 L 986.2 400.2 L 986.0 400.5 L 985.8 400.8 L 985.5 401.0 L 985.2 401.0 L 985.0 401.0 L 985.2 399.0 L 985.5 397.0 L 985.5 396.5 L 985.5 396.0 L 985.2 395.8 L 985.0 395.5 L 984.8 395.2 L 984.5 395.0 L 984.2 394.8 L 984.0 394.5 L 984.2 394.2 L 984.5 394.0 L 984.5 393.5 Q 984.5 393.0 983.8 388.5 Q 983.0 384.0 981.0 384.0 Q 979.0 384.0 979.2 383.0 Q 979.5 382.0 979.8 379.5 Q 980.0 377.0 978.0 377.5 L 976.0 378.0 L 976.2 377.0 Q 976.5 376.0 980.5 368.0 Q 984.5 360.0 988.5 345.0 Q 992.5 330.0 992.5 309.5 Q 992.5 289.0 989.0 275.5 Q 985.5 262.0 978.5 247.5 Q 971.5 233.0 962.2 220.8 L 953.0 208.5 L 952.8 208.2 L 952.5 208.0 L 952.2 207.0 L 952.0 206.0 L 952.0 205.8 L 952.0 205.5 L 952.2 205.2 L 952.5 205.0 L 952.8 204.8 L 953.0 204.5 L 953.8 203.8 Q 954.5 203.0 955.0 204.0 L 955.5 205.0 L 955.8 205.2 L 956.0 205.5 L 956.2 205.8 L 956.5 206.0 L 956.5 204.5 Q 956.5 203.0 956.2 201.5 L 956.0 200.0 L 958.2 199.5 Q 960.5 199.0 960.2 198.0 Q 960.0 197.0 962.0 197.2 Q 964.0 197.5 964.2 197.8 L 964.5 198.0 L 964.5 196.5 L 964.5 195.0 L 964.2 194.8 Q 964.0 194.5 964.0 192.8 z  M 958.2 201.8 Q 958.0 201.5 958.2 201.2 Q 958.5 201.0 958.5 201.5 Q 958.5 202.0 958.2 201.8 z  "/>
<path style="opacity:1;fill:#020202;fill-rule:evenodd;stroke:#020202;stroke-width:0.5px;stroke-linecap:butt;stroke-linejoin:miter;stroke-opacity:1;" d="M 52.8 226.0 L 53.0 226.0 L 54.0 228.8 Q 55.0 231.5 55.5 235.2 Q 56.0 239.0 59.5 239.8 Q 63.0 240.5 61.5 240.8 L 60.0 241.0 L 60.0 242.0 L 60.0 243.0 L 61.0 242.8 L 62.0 242.5 L 63.5 242.0 Q 65.0 241.5 66.0 241.2 L 67.0 241.0 L 60.8 256.0 Q 54.5 271.0 52.0 284.5 Q 49.5 298.0 50.0 314.0 Q 50.5 330.0 54.5 345.0 Q 58.5 360.0 66.2 374.8 Q 74.0 389.5 84.5 403.0 Q 95.0 416.5 99.2 421.2 Q 103.5 426.0 103.8 426.5 L 104.0 427.0 L 102.8 428.5 Q 101.5 430.0 101.2 431.2 Q 101.0 432.5 99.0 432.8 L 97.0 433.0 L 96.8 434.5 Q 96.5 436.0 96.0 438.0 L 95.5 440.0 L 95.2 440.2 L 95.0 440.5 L 95.2 440.8 L 95.5 441.0 L 95.5 442.5 L 95.5 444.0 L 95.2 444.0 L 95.0 444.0 L 94.5 443.8 L 94.0 443.5 L 94.0 443.2 L 94.0 443.0 L 93.5 442.8 L 93.0 442.5 L 92.8 442.2 L 92.5 442.0 L 92.2 441.8 L 92.0 441.5 L 91.8 441.2 L 91.5 441.0 L 91.2 440.8 L 91.0 440.5 L 90.8 440.2 L 90.5 440.0 L 90.2 439.8 L 90.0 439.5 L 89.8 439.2 Q 89.5 439.0 86.5 436.0 Q 83.5 433.0 70.0 416.5 Q 56.5 400.0 47.0 381.0 Q 37.5 362.0 33.5 346.0 Q 29.5 330.0 29.5 309.0 Q 29.5 288.0 33.5 272.5 Q 37.5 257.0 44.8 242.0 L 52.0 227.0 L 52.2 226.5 Q 52.5 226.0 52.8 226.0 z  "/>
<path style="opacity:1;fill:#030303;fill-rule:evenodd;stroke:#030303;stroke-width:0.5px;stroke-linecap:butt;stroke-linejoin:miter;stroke-opacity:1;" d="M 976.8 377.5 L 977.0 377.0 L 978.5 377.0 Q 980.0 377.0 979.8 379.5 Q 979.5 382.0 979.2 383.0 Q 979.0 384.0 981.0 384.0 Q 983.0 384.0 983.8 388.5 Q 984.5 393.0 984.5 393.5 L 984.5 394.0 L 984.2 394.2 L 984.0 394.5 L 984.2 394.8 L 984.5 395.0 L 984.8 395.2 L 985.0 395.5 L 986.0 395.8 Q 987.0 396.0 987.0 397.0 L 987.0 398.0 L 986.5 398.2 Q 986.0 398.5 986.0 398.8 L 986.0 399.0 L 985.8 399.0 Q 985.5 399.0 985.2 400.0 L 985.0 401.0 L 984.8 402.0 Q 984.5 403.0 972.5 417.5 Q 960.5 432.0 945.2 446.0 L 930.0 460.0 L 929.8 459.0 Q 929.5 458.0 929.2 459.0 L 929.0 460.0 L 928.8 460.5 L 928.5 461.0 L 928.2 461.0 L 928.0 461.0 L 927.8 461.5 L 927.5 462.0 L 927.2 462.2 L 927.0 462.5 L 926.8 462.8 L 926.5 463.0 L 926.2 463.2 L 926.0 463.5 L 925.0 463.8 L 924.0 464.0 L 924.0 463.0 L 924.0 462.0 L 925.0 461.8 L 926.0 461.5 L 925.8 461.2 L 925.5 461.0 L 925.2 460.0 Q 925.0 459.0 926.0 459.0 Q 927.0 459.0 927.2 458.0 Q 927.5 457.0 927.8 453.0 L 928.0 449.0 L 927.0 448.8 Q 926.0 448.5 924.0 448.2 Q 922.0 448.0 922.2 446.5 L 922.5 445.0 L 922.2 444.8 L 922.0 444.5 L 921.0 444.2 L 920.0 444.0 L 920.0 443.8 L 920.0 443.5 L 920.2 443.2 L 920.5 443.0 L 920.8 442.8 L 921.0 442.5 L 921.2 442.2 L 921.5 442.0 L 933.5 431.0 Q 945.5 420.0 956.5 406.0 Q 967.5 392.0 971.5 385.5 Q 975.5 379.0 975.8 378.5 L 976.0 378.0 L 976.2 378.0 Q 976.5 378.0 976.8 377.5 z  "/>
</svg>