<?xml version="1.0" encoding="UTF-8" standalone="no"?>
<!DOCTYPE svg PUBLIC "-//W3C//DTD SVG 1.0//EN" "http://www.w3.org/TR/2001/REC-SVG-20010904/DTD/svg10.dtd">
<svg width="600" height="600" viewBox="-309 -305 600 600" xmlns:svg="http://www.w3.org/2000/svg" xmlns="http://www.w3.org/2000/svg" xmlns:xlink="http://www.w3.org/1999/xlink">
<title>One interpretation of the Dina flower symbol of John Norman's Gor series of science fiction books -- an artistic rendering (using intersecting crescent shapes composed of circular arcs) by AnonMoos, based on the vague verbal descriptions in the books.  Depicted with five-fold rotational symmetry because of the comment in books 22, 23, and 25 that it is "rose-like".  (The geometrical figure of a Vesica Piscis inscribed within a circle, as seen in the center, can be a symbol of female sexuality.)</title>
<defs>
<path id="Cresc" transform="translate(-148,0) rotate(160.611)" d="M-51.3030215 -140.9538931 A150 150 0 1 1 -51.3030215 140.9538931 A140.9538931 140.9538931 0 0 0 -51.3030215 -140.9538931Z"/>
</defs>
<g transform="scale(0.99,-0.99)">
<g style="fill:#ef6680" transform="rotate(209.5077)">
<use xlink:href="#Cresc"/>
<use transform="rotate(72)" xlink:href="#Cresc"/>
<use transform="rotate(144)" xlink:href="#Cresc"/>
<use transform="rotate(216)" xlink:href="#Cresc"/>
<use transform="rotate(288)" xlink:href="#Cresc"/>
</g>
<path style="fill:#f48088" d="M0 108 A108 108 0 1 1 0 -108 A124.707658 124.707658 0 0 0 0 108Z M0 108 A108 108 0 1 0 0 -108 A124.707658 124.707658 0 0 1 0 108Z"/>
</g>
</svg>