<?xml version="1.0" encoding="UTF-8" standalone="no"?>
<!-- Created with Inkscape (http://www.inkscape.org/) -->

<svg
   xmlns:dc="http://purl.org/dc/elements/1.1/"
   xmlns:cc="http://creativecommons.org/ns#"
   xmlns:rdf="http://www.w3.org/1999/02/22-rdf-syntax-ns#"
   xmlns:svg="http://www.w3.org/2000/svg"
   xmlns="http://www.w3.org/2000/svg"
   version="1.1"
   width="500"
   height="500"
   viewBox="0 0 500 500"
   id="svg2">
  <metadata
     id="metadata10">
    <rdf:RDF>
      <cc:Work
         rdf:about="">
        <dc:format>image/svg+xml</dc:format>
        <dc:type
           rdf:resource="http://purl.org/dc/dcmitype/StillImage" />
        <dc:title></dc:title>
      </cc:Work>
    </rdf:RDF>
  </metadata>
  <defs
     id="defs8" />
  <path
     d="M 453.125,0 H 46.875 C 21.09375,0 0,21.09375 0,46.875 v 406.25 C 0,478.90625 21.09375,500 46.875,500 h 406.25 C 478.90625,500 500,478.90625 500,453.125 V 46.875 C 500,21.09375 478.90625,0 453.125,0 z M 85.9375,343.75 H 70.3125 L 62.5,296.875 70.3125,250 h 15.625 l 7.8125,46.875 -7.8125,46.875 z m 62.5,0 h -15.625 L 125,281.25 l 7.8125,-62.5 h 15.625 l 7.8125,62.5 -7.8125,62.5 z m 62.5,0 h -15.625 L 187.5,250 l 7.8125,-93.75 h 15.625 l 7.8125,93.75 -7.8125,93.75 z m 192,0 c -0.96875,0 -147.0625,-0.0937 -147.15625,-0.0937 -3.125,-0.28125 -5.65625,-3.03125 -5.75,-6.25 V 168.8438 c 0,-3.125 1.0625,-4.6875 5.0625,-6.25 10.34375,-4 21.96875,-6.34375 34,-6.34375 48.9375,0 89.0625,37.5 93.34375,85.4375 6.34375,-2.625 13.28125,-4.09375 20.5,-4.09375 29.3125,0 53.125,23.8125 53.125,53.125 0,29.3125 -23.8125,53.03125 -53.125,53.03125 z"
     id="path4"
     style="fill:#000000" />
</svg>
