<?xml version="1.0" encoding="UTF-8" standalone="no"?>
<!-- Created with Inkscape (http://www.inkscape.org/) -->
<svg xmlns:dc="http://purl.org/dc/elements/1.1/" xmlns:cc="http://web.resource.org/cc/" xmlns:rdf="http://www.w3.org/1999/02/22-rdf-syntax-ns#" xmlns:svg="http://www.w3.org/2000/svg" xmlns="http://www.w3.org/2000/svg" xmlns:xlink="http://www.w3.org/1999/xlink" xmlns:sodipodi="http://sodipodi.sourceforge.net/DTD/sodipodi-0.dtd" xmlns:inkscape="http://www.inkscape.org/namespaces/inkscape" width="300" height="310" id="svg2" sodipodi:version="0.32" inkscape:version="0.46dev+devel" sodipodi:docbase="C:\Documents and Settings\Usuario\Desktop" sodipodi:docname="jonata_Butterfly.svg" inkscape:output_extension="org.inkscape.output.svg.inkscape" version="1.0">
  <defs id="defs4">
    <linearGradient inkscape:collect="always" id="linearGradient3525">
      <stop style="stop-color:#ff00ff;stop-opacity:1;" offset="0" id="stop3527"/>
      <stop style="stop-color:#ff00ff;stop-opacity:0;" offset="1" id="stop3529"/>
    </linearGradient>
    <linearGradient inkscape:collect="always" id="linearGradient3272">
      <stop style="stop-color:#ff00ff;stop-opacity:1;" offset="0" id="stop3274"/>
      <stop style="stop-color:#ff00ff;stop-opacity:0;" offset="1" id="stop3276"/>
    </linearGradient>
    <linearGradient inkscape:collect="always" id="linearGradient3256">
      <stop style="stop-color:#ff00ff;stop-opacity:1;" offset="0" id="stop3258"/>
      <stop style="stop-color:#ff00ff;stop-opacity:0;" offset="1" id="stop3260"/>
    </linearGradient>
    <linearGradient inkscape:collect="always" id="linearGradient3248">
      <stop style="stop-color:#ff00ff;stop-opacity:1;" offset="0" id="stop3250"/>
      <stop style="stop-color:#ff00ff;stop-opacity:0;" offset="1" id="stop3252"/>
    </linearGradient>
    <linearGradient id="linearGradient3223">
      <stop style="stop-color:#ffe680;stop-opacity:1" offset="0" id="stop3225"/>
      <stop style="stop-color:#ff99cc;stop-opacity:1;" offset="1" id="stop3227"/>
    </linearGradient>
    <filter inkscape:collect="always" id="filter3203">
      <feGaussianBlur inkscape:collect="always" stdDeviation="11.887722" id="feGaussianBlur3205"/>
    </filter>
    <clipPath clipPathUnits="userSpaceOnUse" id="clipPath3244">
      <path style="fill:#ffcc00;fill-opacity:1;fill-rule:evenodd;stroke:none;stroke-width:1px;stroke-linecap:butt;stroke-linejoin:miter;stroke-opacity:1" d="M 363.18655,342.94273 C 354.0771,363.44649 349.64064,382.4223 348.7398,408.34947 C 348.26493,422.01752 351.41671,439.53386 357.08812,454.29249 C 333.9258,454.43549 323.98287,481.21398 360.28535,522.36155 C 345.38019,526.66567 350.21358,536.44252 356.43684,538.73123 C 290.82956,562.46656 288.44151,620.75491 320.11276,637.34503 C 315.99379,601.28056 333.64208,582.50544 371.44605,577.37086 C 385.38007,573.69926 397.50774,568.18412 407.79973,561.25302 C 407.84866,561.2165 407.8989,561.18167 407.94775,561.14509 C 434.12409,541.54256 448.27429,512.30104 449.15647,481.13156 C 449.15616,481.11973 449.1568,481.10742 449.15647,481.09558 C 448.35612,451.18067 434.34956,418.97411 405.93468,391.04438 C 385.16963,371.81439 364.88003,362.838 363.18655,342.94273 z" id="path3246"/>
    </clipPath>
    <filter inkscape:collect="always" id="filter3398">
      <feGaussianBlur inkscape:collect="always" stdDeviation="2.5340176" id="feGaussianBlur3400"/>
    </filter>
    <linearGradient inkscape:collect="always" xlink:href="#linearGradient3223" id="linearGradient3402" gradientUnits="userSpaceOnUse" x1="428.92856" y1="558.00494" x2="411.88828" y2="535.86536"/>
    <clipPath clipPathUnits="userSpaceOnUse" id="clipPath3413">
      <path transform="matrix(0.9818645,0,0,0.9548776,8.7197718,24.104564)" d="M 472.40625,495.65625 C 470.21264,495.51418 467.70588,496.15323 465.53125,497.71875 C 461.71893,500.46325 461.04845,503.13813 458.875,506.4375 C 456.70155,509.73687 453.09949,513.31614 443.875,517.21875 C 422.50273,526.26076 402.25289,540.78244 398.8125,559.09375 C 397.0722,568.35643 396.48626,577.19076 397.5,582.25 C 398.00687,584.77962 398.91514,586.17845 399.8125,586.5 C 400.26118,586.66078 400.81045,586.63478 401.625,586.28125 C 402.43955,585.92772 403.46677,585.21026 404.65625,584.0625 C 406.98752,581.81298 407.50158,580.35248 409.21875,578.25 C 410.93592,576.14752 413.74466,573.64165 420.5,569.5 C 434.4868,560.92483 439.00749,553.88507 446.84375,534.75 C 450.65565,525.44188 455.98043,518.07401 467.1875,511.65625 C 475.32352,506.99714 478.00223,502.82393 478.03125,500.21875 C 478.04576,498.91616 477.4907,497.88974 476.5,497.09375 C 475.5093,496.29776 474.05293,495.76289 472.40625,495.65625 z" id="path3415" style="fill:url(#linearGradient3417);fill-opacity:1;fill-rule:evenodd;stroke:none;stroke-width:1px;stroke-linecap:butt;stroke-linejoin:miter;stroke-opacity:1" inkscape:original="M 472.46875 494.6875 C 470.04674 494.53064 467.33307 495.20417 464.96875 496.90625 C 456.93581 502.68919 461.72595 508.60164 443.5 516.3125 C 421.98775 525.41373 401.39457 540.00721 397.84375 558.90625 C 394.33676 577.57203 395.39039 594.38554 405.34375 584.78125 C 410.20961 580.08602 407.58398 578.56901 421 570.34375 C 435.11491 561.69004 439.89427 554.30762 447.75 535.125 C 451.51054 525.94231 456.64248 518.82496 467.6875 512.5 C 484.22995 503.02694 479.73477 495.15807 472.46875 494.6875 z " inkscape:radius="-0.98320049" sodipodi:type="inkscape:offset"/>
    </clipPath>
    <linearGradient inkscape:collect="always" xlink:href="#linearGradient3223" id="linearGradient3417" gradientUnits="userSpaceOnUse" x1="428.92856" y1="558.00494" x2="411.88828" y2="535.86536"/>
    <linearGradient inkscape:collect="always" xlink:href="#linearGradient3223" id="linearGradient3471" gradientUnits="userSpaceOnUse" x1="299.86801" y1="480.61584" x2="452.50009" y2="480.61584"/>
    <linearGradient inkscape:collect="always" xlink:href="#linearGradient3248" id="linearGradient3473" gradientUnits="userSpaceOnUse" x1="411.89096" y1="433.89502" x2="401.7475" y2="471.75095"/>
    <linearGradient inkscape:collect="always" xlink:href="#linearGradient3256" id="linearGradient3475" gradientUnits="userSpaceOnUse" x1="388.40366" y1="472.53461" x2="388.40366" y2="507.97064"/>
    <linearGradient inkscape:collect="always" xlink:href="#linearGradient3272" id="linearGradient3477" gradientUnits="userSpaceOnUse" x1="399.51532" y1="554.03882" x2="398.00009" y2="524.78906"/>
    <linearGradient inkscape:collect="always" xlink:href="#linearGradient3272" id="linearGradient3503" gradientUnits="userSpaceOnUse" x1="399.51532" y1="554.03882" x2="398.00009" y2="524.78906"/>
    <linearGradient inkscape:collect="always" xlink:href="#linearGradient3256" id="linearGradient3506" gradientUnits="userSpaceOnUse" x1="388.40366" y1="472.53461" x2="388.40366" y2="507.97064"/>
    <linearGradient inkscape:collect="always" xlink:href="#linearGradient3248" id="linearGradient3509" gradientUnits="userSpaceOnUse" x1="411.89096" y1="433.89502" x2="401.7475" y2="471.75095"/>
    <linearGradient inkscape:collect="always" xlink:href="#linearGradient3223" id="linearGradient3512" gradientUnits="userSpaceOnUse" x1="299.86801" y1="480.61584" x2="452.50009" y2="480.61584"/>
    <linearGradient inkscape:collect="always" xlink:href="#linearGradient3525" id="linearGradient3531" x1="383.91605" y1="397.91992" x2="375.35715" y2="429.86218" gradientUnits="userSpaceOnUse"/>
    <linearGradient inkscape:collect="always" xlink:href="#linearGradient3525" id="linearGradient3543" gradientUnits="userSpaceOnUse" x1="383.91605" y1="397.91992" x2="375.35715" y2="429.86218"/>
    <linearGradient inkscape:collect="always" xlink:href="#linearGradient3223" id="linearGradient2326" gradientUnits="userSpaceOnUse" x1="299.86801" y1="480.61584" x2="452.50009" y2="480.61584"/>
    <linearGradient inkscape:collect="always" xlink:href="#linearGradient3248" id="linearGradient2328" gradientUnits="userSpaceOnUse" x1="411.89096" y1="433.89502" x2="401.7475" y2="471.75095"/>
    <linearGradient inkscape:collect="always" xlink:href="#linearGradient3256" id="linearGradient2330" gradientUnits="userSpaceOnUse" x1="388.40366" y1="472.53461" x2="388.40366" y2="507.97064"/>
    <linearGradient inkscape:collect="always" xlink:href="#linearGradient3272" id="linearGradient2332" gradientUnits="userSpaceOnUse" x1="399.51532" y1="554.03882" x2="398.00009" y2="524.78906"/>
    <linearGradient inkscape:collect="always" xlink:href="#linearGradient3525" id="linearGradient2334" gradientUnits="userSpaceOnUse" x1="383.91605" y1="397.91992" x2="375.35715" y2="429.86218"/>
    <linearGradient inkscape:collect="always" xlink:href="#linearGradient3223" id="linearGradient2336" gradientUnits="userSpaceOnUse" x1="428.92856" y1="558.00494" x2="411.88828" y2="535.86536"/>
    <linearGradient inkscape:collect="always" xlink:href="#linearGradient3223" id="linearGradient2338" gradientUnits="userSpaceOnUse" x1="299.86801" y1="480.61584" x2="452.50009" y2="480.61584"/>
    <linearGradient inkscape:collect="always" xlink:href="#linearGradient3248" id="linearGradient2340" gradientUnits="userSpaceOnUse" x1="411.89096" y1="433.89502" x2="401.7475" y2="471.75095"/>
    <linearGradient inkscape:collect="always" xlink:href="#linearGradient3256" id="linearGradient2342" gradientUnits="userSpaceOnUse" x1="388.40366" y1="472.53461" x2="388.40366" y2="507.97064"/>
    <linearGradient inkscape:collect="always" xlink:href="#linearGradient3272" id="linearGradient2344" gradientUnits="userSpaceOnUse" x1="399.51532" y1="554.03882" x2="398.00009" y2="524.78906"/>
    <linearGradient inkscape:collect="always" xlink:href="#linearGradient3525" id="linearGradient2346" gradientUnits="userSpaceOnUse" x1="383.91605" y1="397.91992" x2="375.35715" y2="429.86218"/>
  </defs>
  <sodipodi:namedview id="base" pagecolor="#ffffff" bordercolor="#666666" borderopacity="1.0" inkscape:pageopacity="0.0" inkscape:pageshadow="2" inkscape:zoom="1.979899" inkscape:cx="192.49862" inkscape:cy="156.71025" inkscape:document-units="px" inkscape:current-layer="layer1" showguides="true" inkscape:guide-bbox="true" inkscape:window-width="1280" inkscape:window-height="977" inkscape:window-x="0" inkscape:window-y="19" width="300px" height="310px"/>
  <metadata id="metadata7">
    <rdf:RDF>
      <cc:Work rdf:about="">
        <dc:format>image/svg+xml</dc:format>
        <dc:type rdf:resource="http://purl.org/dc/dcmitype/StillImage"/>
      </cc:Work>
    </rdf:RDF>
  </metadata>
  <g inkscape:label="Camada 1" inkscape:groupmode="layer" id="layer1">
    <g id="g2290" transform="translate(-238.07337,-335.76517)">
      <g id="g3545">
        <g id="g3433" transform="matrix(0.9659258,-0.258819,0.258819,0.9659258,-177.13271,98.516574)">
          <path sodipodi:nodetypes="ccscccccc" id="path3435" d="M 410,409.50503 C 382.08106,386.89098 355,380.21932 371.42857,345.93361 C 352.14286,372.36218 343.51108,391.71825 342.14285,423.07647 C 341.61423,435.19203 345.11528,450.99771 351.42857,464.50504 C 325.64483,463.04012 314.58892,486.15207 355,525.21933 C 338.40789,528.02035 343.7867,537.04308 350.71429,539.50504 C 269.87482,557.8648 275.27412,619.1541 322.85714,628.79075 C 318.47391,596.48041 336.37762,579.69162 374.94965,575.10943 C 463.55209,554.6893 481.10433,470.63453 410,409.50503 z" style="fill:#000000;fill-rule:evenodd;stroke:none;stroke-width:1px;stroke-linecap:butt;stroke-linejoin:miter;stroke-opacity:1"/>
          <path style="fill:url(#linearGradient2326);fill-opacity:1;fill-rule:evenodd;stroke:none;stroke-width:1px;stroke-linecap:butt;stroke-linejoin:miter;stroke-opacity:1" d="M 364.4318,369.84375 C 355.10002,387.65338 350.55527,404.13583 349.63245,426.65625 C 349.14599,438.52836 352.37469,453.74311 358.18453,466.5625 C 334.45689,466.68671 324.27127,489.94659 361.45979,525.6875 C 346.19084,529.42607 351.1422,537.91827 357.51735,539.90625 C 290.30879,560.52283 287.86245,611.15227 320.30671,625.5625 C 316.0872,594.23679 334.16624,577.92867 372.89289,573.46875 C 387.167,570.27959 399.59067,565.48912 410.13386,559.46875 C 410.18398,559.43703 410.23545,559.40677 410.28549,559.375 C 437.10072,542.34818 451.59629,516.94891 452.5,489.875 C 452.49968,489.86472 452.50033,489.85403 452.5,489.84375 C 451.68011,463.85956 437.33169,435.88485 408.22329,411.625 C 386.95142,394.92177 366.16661,387.12485 364.4318,369.84375 z" id="path3437"/>
          <path style="fill:url(#linearGradient2328);fill-opacity:1;fill-rule:evenodd;stroke:none;stroke-width:1px;stroke-linecap:butt;stroke-linejoin:miter;stroke-opacity:1" d="M 442.19789,519.27331 C 449.99143,494.07561 438.08565,460.30958 429.68263,447.65722 C 409.96186,417.96389 383.3776,416.62439 371.85551,432.23402 C 357.95437,451.06668 367.00155,475.59991 397.55463,481.50071 C 424.79354,486.76144 436.60465,500.85441 442.19789,519.27331 z" id="path3439" sodipodi:nodetypes="csssc"/>
          <path sodipodi:nodetypes="csssc" id="path3441" d="M 441.39242,519.74694 C 438.06167,499.65444 418.13565,480.42934 407.94203,474.58358 C 384.019,460.86441 365.16278,469.09769 362.59477,483.85092 C 359.49653,501.65036 374.24865,515.48194 397.42974,509.03246 C 418.09634,503.28258 431.14656,508.94943 441.39242,519.74694 z" style="fill:url(#linearGradient2330);fill-opacity:1;fill-rule:evenodd;stroke:none;stroke-width:1px;stroke-linecap:butt;stroke-linejoin:miter;stroke-opacity:1" inkscape:transform-center-y="-25.481122" inkscape:transform-center-x="39.119052"/>
          <path inkscape:transform-center-x="32.567072" inkscape:transform-center-y="17.97542" style="fill:url(#linearGradient2332);fill-opacity:1;fill-rule:evenodd;stroke:none;stroke-width:0.99999994px;stroke-linecap:butt;stroke-linejoin:miter;stroke-opacity:1" d="M 442.7748,517.21292 C 438.31875,532.95584 420.72489,546.55098 412.08245,550.32223 C 391.79981,559.17276 377.5227,550.94828 376.80198,538.94908 C 375.93247,524.4723 388.92193,514.7277 406.80328,521.90791 C 422.74502,528.30927 433.64625,524.93136 442.7748,517.21292 z" id="path3443" sodipodi:nodetypes="csssc"/>
          <path style="fill:#000000;fill-opacity:1;fill-rule:evenodd;stroke:none;stroke-width:1px;stroke-linecap:butt;stroke-linejoin:miter;stroke-opacity:1" d="M 391.875,422.375 C 383.69251,422.35722 376.5246,425.87734 371.84375,432.21875 C 370.36621,434.22046 369.17951,436.30496 368.21875,438.40625 C 379.56698,424.05103 404.53418,424.03849 425.03125,450.03125 C 434.08836,461.51679 447.86298,492.94774 442.40625,518.46875 C 449.71089,493.36087 438.00224,460.17568 429.6875,447.65625 C 417.9783,430.02583 403.83403,422.40098 391.875,422.375 z" id="path3447"/>
          <path style="fill:#000000;fill-rule:evenodd;stroke:none;stroke-width:0.99999994px;stroke-linecap:butt;stroke-linejoin:miter;stroke-opacity:1" d="M 442.3125,518.625 C 437.22114,533.27042 420.46611,544.61662 412.09375,547.5 C 392.71046,554.17538 378.82348,545.75871 377,534.46875 C 376.78469,535.8995 376.7191,537.38243 376.8125,538.9375 C 377.53322,550.9367 391.8111,559.16306 412.09375,550.3125 C 420.47654,546.65455 437.24397,533.76308 442.3125,518.625 z" id="path3449"/>
          <path style="fill:#000000;fill-rule:evenodd;stroke:none;stroke-width:1px;stroke-linecap:butt;stroke-linejoin:miter;stroke-opacity:1" d="M 362.78125,493.75 C 365.63212,506.29781 378.8072,514.2146 397.4375,509.03125 C 418.10409,503.28136 431.16039,508.95249 441.40625,519.75 C 430.8795,508.21332 417.48316,501.61608 396.25,505.875 C 380.10557,509.11324 367.95206,503.2983 362.78125,493.75 z" id="path3451"/>
          <path style="fill:#000000;fill-rule:evenodd;stroke:none;stroke-width:1px;stroke-linecap:butt;stroke-linejoin:miter;stroke-opacity:1" d="M 383.75,467.59375 C 373.50189,467.91149 366.09603,473.16354 363.40625,480.75 C 371.10287,472.26106 387.16394,469.02342 406.34375,478.0625 C 417.02488,483.09633 437.9162,500.48943 441.40625,519.75 C 438.07549,499.65749 418.13112,480.43951 407.9375,474.59375 C 398.96637,469.44906 390.70434,467.37814 383.75,467.59375 z" id="path3453"/>
          <path id="path3455" d="M 358.71751,329.84375 C 349.38573,353.22501 644.84098,374.86389 643.91816,404.42968 C 643.4317,420.01591 646.6604,439.9905 652.47024,456.82035 C 628.7426,456.98342 618.55698,487.52001 655.7455,534.44224 C 640.47655,539.35039 645.42791,550.49932 651.80306,553.10923 C 584.5945,580.17558 282.14816,646.64412 314.59242,665.5625 C 310.37291,624.43674 328.45195,603.02673 367.1786,597.17155 C 381.45271,592.98468 393.87638,586.69554 404.41957,578.79174 C 404.46969,578.75009 404.52116,578.71037 404.5712,578.66866 C 467.49751,516.11066 454.43317,423.76502 402.509,384.696 C 381.23713,362.76727 360.45232,352.53113 358.71751,329.84375 z" style="fill:#ff00ff;fill-opacity:1;fill-rule:evenodd;stroke:none;stroke-width:1px;stroke-linecap:butt;stroke-linejoin:miter;stroke-opacity:1;filter:url(#filter3203)" sodipodi:nodetypes="csccccccccc" transform="matrix(1.0244071,0,0,0.8686031,-7.61908,71.962635)" clip-path="url(#clipPath3244)"/>
        </g>
        <g id="g3539" transform="matrix(0.9659258,-0.258819,0.258819,0.9659258,-99.541857,79.530399)">
          <path sodipodi:type="arc" style="opacity:1;fill:url(#linearGradient2334);fill-opacity:1;stroke:none;stroke-width:1;stroke-linecap:butt;stroke-linejoin:round;stroke-miterlimit:4;stroke-dasharray:none;stroke-dashoffset:0;stroke-opacity:1" id="path3533" sodipodi:cx="375.35715" sodipodi:cy="418.43362" sodipodi:rx="11.428572" sodipodi:ry="11.428572" d="M 386.78572,418.43362 A 11.428572,11.428572 0 1 1 363.92858,418.43362 A 11.428572,11.428572 0 1 1 386.78572,418.43362 z" transform="translate(-86.785714,-9.5)"/>
          <path style="opacity:1;fill:#000000;fill-opacity:1;stroke:none;stroke-width:1;stroke-linecap:butt;stroke-linejoin:round;stroke-miterlimit:4;stroke-dasharray:none;stroke-dashoffset:0;stroke-opacity:1" d="M 288.5625,397.5 C 283.29127,397.5 278.88061,401.0817 277.5625,405.9375 C 279.38166,401.31684 285.07228,398.98735 290.90625,400.71875 C 295.60494,402.11323 299.07099,405.74367 299.96875,409.71875 C 299.98669,409.45707 300,409.20371 300,408.9375 C 300,402.62893 294.87106,397.49999 288.5625,397.5 z" id="path3535" sodipodi:nodetypes="ccscsc"/>
        </g>
      </g>
      <path sodipodi:nodetypes="csssssss" id="path2162" d="M 395.71429,560.21933 C 392.03803,580.40978 393.13768,598.79714 403.57143,588.79075 C 408.67214,583.89897 405.93647,582.13081 420,573.79075 C 434.79615,565.01623 439.80082,557.19787 448.03571,536.64789 C 451.97774,526.81066 457.35047,519.27696 468.92857,512.8979 C 492.04971,500.15911 475.98516,488.77438 466.07143,495.75504 C 457.65079,501.68436 462.67705,508.3802 443.57143,515.93361 C 421.0209,524.84897 399.43649,539.77659 395.71429,560.21933 z" style="fill:#000000;fill-rule:evenodd;stroke:none;stroke-width:1px;stroke-linecap:butt;stroke-linejoin:miter;stroke-opacity:1"/>
      <path transform="matrix(1,0,0,0.9725147,0,13.622736)" d="M 472.40625,495.65625 C 470.21264,495.51418 467.70588,496.15323 465.53125,497.71875 C 461.71893,500.46325 461.04845,503.13813 458.875,506.4375 C 456.70155,509.73687 453.09949,513.31614 443.875,517.21875 C 422.50273,526.26076 402.25289,540.78244 398.8125,559.09375 C 397.0722,568.35643 396.48626,577.19076 397.5,582.25 C 398.00687,584.77962 398.91514,586.17845 399.8125,586.5 C 400.26118,586.66078 400.81045,586.63478 401.625,586.28125 C 402.43955,585.92772 403.46677,585.21026 404.65625,584.0625 C 406.98752,581.81298 407.50158,580.35248 409.21875,578.25 C 410.93592,576.14752 413.74466,573.64165 420.5,569.5 C 434.4868,560.92483 439.00749,553.88507 446.84375,534.75 C 450.65565,525.44188 455.98043,518.07401 467.1875,511.65625 C 475.32352,506.99714 478.00223,502.82393 478.03125,500.21875 C 478.04576,498.91616 477.4907,497.88974 476.5,497.09375 C 475.5093,496.29776 474.05293,495.76289 472.40625,495.65625 z" id="path3329" style="fill:url(#linearGradient2336);fill-opacity:1;fill-rule:evenodd;stroke:none;stroke-width:1px;stroke-linecap:butt;stroke-linejoin:miter;stroke-opacity:1" inkscape:original="M 472.46875 494.6875 C 470.04674 494.53064 467.33307 495.20417 464.96875 496.90625 C 456.93581 502.68919 461.72595 508.60164 443.5 516.3125 C 421.98775 525.41373 401.39457 540.00721 397.84375 558.90625 C 394.33676 577.57203 395.39039 594.38554 405.34375 584.78125 C 410.20961 580.08602 407.58398 578.56901 421 570.34375 C 435.11491 561.69004 439.89427 554.30762 447.75 535.125 C 451.51054 525.94231 456.64248 518.82496 467.6875 512.5 C 484.22995 503.02694 479.73477 495.15807 472.46875 494.6875 z " inkscape:radius="-0.98320049" sodipodi:type="inkscape:offset"/>
      <path clip-path="url(#clipPath3413)" transform="matrix(1.0184705,0,0,1.0184705,-8.8808303,-10.927051)" id="path3361" d="M 473,493.625 C 470.71728,493.57246 468.23113,494.22298 466.0625,495.75 C 457.64185,501.67932 462.66812,508.38409 443.5625,515.9375 C 421.01196,524.85288 399.44095,539.77601 395.71875,560.21875 C 392.04249,580.40917 393.12875,598.78764 403.5625,588.78125 C 408.6632,583.88945 405.93647,582.12131 420,573.78125 C 434.79615,565.00671 439.79636,557.20623 448.03125,536.65625 C 451.97328,526.81902 457.3594,519.28531 468.9375,512.90625 C 487.0009,502.95408 481.15257,493.81264 473,493.625 z M 471.5625,495.625 C 471.84523,495.61826 472.13205,495.63898 472.40625,495.65625 C 474.05293,495.75996 475.5093,496.28839 476.5,497.0625 C 477.4907,497.83661 478.04576,498.82695 478.03125,500.09375 C 478.00223,502.62733 475.32352,506.68768 467.1875,511.21875 C 455.98043,517.46012 450.65565,524.6352 446.84375,533.6875 C 439.00749,552.29664 434.4868,559.12928 420.5,567.46875 C 413.74466,571.49657 410.93592,573.92405 409.21875,575.96875 C 407.50158,578.01344 406.98752,579.43733 404.65625,581.625 C 403.46677,582.74121 402.43955,583.43745 401.625,583.78125 C 400.81045,584.12506 400.26118,584.15634 399.8125,584 C 398.91514,583.68729 398.00687,582.33507 397.5,579.875 C 396.48626,574.95481 397.0722,566.35186 398.8125,557.34375 C 402.25289,539.53573 422.50273,525.41851 443.875,516.625 C 453.09949,512.82965 456.70155,509.36493 458.875,506.15625 C 461.04845,502.94756 461.71893,500.32532 465.53125,497.65625 C 467.43405,496.32407 469.58341,495.67221 471.5625,495.625 z" style="fill:#000000;fill-rule:evenodd;stroke:none;stroke-width:1px;stroke-linecap:butt;stroke-linejoin:miter;stroke-opacity:1;filter:url(#filter3398)"/>
      <path style="fill:#000000;fill-rule:evenodd;stroke:none;stroke-width:1px;stroke-linecap:butt;stroke-linejoin:miter;stroke-opacity:1" d="M 410,409.50503 C 382.08106,386.89098 355,380.21932 371.42857,345.93361 C 352.14286,372.36218 343.51108,391.71825 342.14285,423.07647 C 341.61423,435.19203 345.11528,450.99771 351.42857,464.50504 C 325.64483,463.04012 314.58892,486.15207 355,525.21933 C 338.40789,528.02035 343.7867,537.04308 350.71429,539.50504 C 269.87482,557.8648 275.27412,619.1541 322.85714,628.79075 C 318.47391,596.48041 336.37762,579.69162 374.94965,575.10943 C 463.55209,554.6893 481.10433,470.63453 410,409.50503 z" id="path2164" sodipodi:nodetypes="ccscccccc"/>
      <path id="path3143" d="M 364.4318,369.84375 C 355.10002,387.65338 350.55527,404.13583 349.63245,426.65625 C 349.14599,438.52836 352.37469,453.74311 358.18453,466.5625 C 334.45689,466.68671 324.27127,489.94659 361.45979,525.6875 C 346.19084,529.42607 351.1422,537.91827 357.51735,539.90625 C 290.30879,560.52283 287.86245,611.15227 320.30671,625.5625 C 316.0872,594.23679 334.16624,577.92867 372.89289,573.46875 C 387.167,570.27959 399.59067,565.48912 410.13386,559.46875 C 410.18398,559.43703 410.23545,559.40677 410.28549,559.375 C 437.10072,542.34818 451.59629,516.94891 452.5,489.875 C 452.49968,489.86472 452.50033,489.85403 452.5,489.84375 C 451.68011,463.85956 437.33169,435.88485 408.22329,411.625 C 386.95142,394.92177 366.16661,387.12485 364.4318,369.84375 z" style="fill:url(#linearGradient2338);fill-opacity:1;fill-rule:evenodd;stroke:none;stroke-width:1px;stroke-linecap:butt;stroke-linejoin:miter;stroke-opacity:1"/>
      <path sodipodi:nodetypes="csssc" id="path2214" d="M 442.19789,519.27331 C 449.99143,494.07561 438.08565,460.30958 429.68263,447.65722 C 409.96186,417.96389 383.3776,416.62439 371.85551,432.23402 C 357.95437,451.06668 367.00155,475.59991 397.55463,481.50071 C 424.79354,486.76144 436.60465,500.85441 442.19789,519.27331 z" style="fill:url(#linearGradient2340);fill-opacity:1;fill-rule:evenodd;stroke:none;stroke-width:1px;stroke-linecap:butt;stroke-linejoin:miter;stroke-opacity:1"/>
      <path inkscape:transform-center-x="39.119052" inkscape:transform-center-y="-25.481122" style="fill:url(#linearGradient2342);fill-opacity:1;fill-rule:evenodd;stroke:none;stroke-width:1px;stroke-linecap:butt;stroke-linejoin:miter;stroke-opacity:1" d="M 441.39242,519.74694 C 438.06167,499.65444 418.13565,480.42934 407.94203,474.58358 C 384.019,460.86441 365.16278,469.09769 362.59477,483.85092 C 359.49653,501.65036 374.24865,515.48194 397.42974,509.03246 C 418.09634,503.28258 431.14656,508.94943 441.39242,519.74694 z" id="path2218" sodipodi:nodetypes="csssc"/>
      <path sodipodi:nodetypes="csssc" id="path2220" d="M 442.7748,517.21292 C 438.31875,532.95584 420.72489,546.55098 412.08245,550.32223 C 391.79981,559.17276 377.5227,550.94828 376.80198,538.94908 C 375.93247,524.4723 388.92193,514.7277 406.80328,521.90791 C 422.74502,528.30927 433.64625,524.93136 442.7748,517.21292 z" style="fill:url(#linearGradient2344);fill-opacity:1;fill-rule:evenodd;stroke:none;stroke-width:0.99999994px;stroke-linecap:butt;stroke-linejoin:miter;stroke-opacity:1" inkscape:transform-center-y="17.97542" inkscape:transform-center-x="32.567072"/>
      <path transform="translate(-6.7857139,-7.5)" d="M 386.78572,418.43362 A 11.428572,11.428572 0 1 1 363.92858,418.43362 A 11.428572,11.428572 0 1 1 386.78572,418.43362 z" sodipodi:ry="11.428572" sodipodi:rx="11.428572" sodipodi:cy="418.43362" sodipodi:cx="375.35715" id="path3517" style="opacity:1;fill:url(#linearGradient2346);fill-opacity:1;stroke:none;stroke-width:1;stroke-linecap:butt;stroke-linejoin:round;stroke-miterlimit:4;stroke-dasharray:none;stroke-dashoffset:0;stroke-opacity:1" sodipodi:type="arc"/>
      <path id="path3154" d="M 391.875,422.375 C 383.69251,422.35722 376.5246,425.87734 371.84375,432.21875 C 370.36621,434.22046 369.17951,436.30496 368.21875,438.40625 C 379.56698,424.05103 404.53418,424.03849 425.03125,450.03125 C 434.08836,461.51679 447.86298,492.94774 442.40625,518.46875 C 449.71089,493.36087 438.00224,460.17568 429.6875,447.65625 C 417.9783,430.02583 403.83403,422.40098 391.875,422.375 z" style="fill:#000000;fill-opacity:1;fill-rule:evenodd;stroke:none;stroke-width:1px;stroke-linecap:butt;stroke-linejoin:miter;stroke-opacity:1"/>
      <path id="path3164" d="M 442.3125,518.625 C 437.22114,533.27042 420.46611,544.61662 412.09375,547.5 C 392.71046,554.17538 378.82348,545.75871 377,534.46875 C 376.78469,535.8995 376.7191,537.38243 376.8125,538.9375 C 377.53322,550.9367 391.8111,559.16306 412.09375,550.3125 C 420.47654,546.65455 437.24397,533.76308 442.3125,518.625 z" style="fill:#000000;fill-rule:evenodd;stroke:none;stroke-width:0.99999994px;stroke-linecap:butt;stroke-linejoin:miter;stroke-opacity:1"/>
      <path id="path3159" d="M 362.78125,493.75 C 365.63212,506.29781 378.8072,514.2146 397.4375,509.03125 C 418.10409,503.28136 431.16039,508.95249 441.40625,519.75 C 430.8795,508.21332 417.48316,501.61608 396.25,505.875 C 380.10557,509.11324 367.95206,503.2983 362.78125,493.75 z" style="fill:#000000;fill-rule:evenodd;stroke:none;stroke-width:1px;stroke-linecap:butt;stroke-linejoin:miter;stroke-opacity:1"/>
      <path id="path3171" d="M 383.75,467.59375 C 373.50189,467.91149 366.09603,473.16354 363.40625,480.75 C 371.10287,472.26106 387.16394,469.02342 406.34375,478.0625 C 417.02488,483.09633 437.9162,500.48943 441.40625,519.75 C 438.07549,499.65749 418.13112,480.43951 407.9375,474.59375 C 398.96637,469.44906 390.70434,467.37814 383.75,467.59375 z" style="fill:#000000;fill-rule:evenodd;stroke:none;stroke-width:1px;stroke-linecap:butt;stroke-linejoin:miter;stroke-opacity:1"/>
      <path clip-path="url(#clipPath3244)" transform="matrix(1.0244071,0,0,0.8686031,-7.61908,71.962635)" sodipodi:nodetypes="csccccccccc" style="fill:#ff00ff;fill-opacity:1;fill-rule:evenodd;stroke:none;stroke-width:1px;stroke-linecap:butt;stroke-linejoin:miter;stroke-opacity:1;filter:url(#filter3203)" d="M 358.71751,329.84375 C 349.38573,353.22501 644.84098,374.86389 643.91816,404.42968 C 643.4317,420.01591 646.6604,439.9905 652.47024,456.82035 C 628.7426,456.98342 618.55698,487.52001 655.7455,534.44224 C 640.47655,539.35039 645.42791,550.49932 651.80306,553.10923 C 584.5945,580.17558 282.14816,646.64412 314.59242,665.5625 C 310.37291,624.43674 328.45195,603.02673 367.1786,597.17155 C 381.45271,592.98468 393.87638,586.69554 404.41957,578.79174 C 404.46969,578.75009 404.52116,578.71037 404.5712,578.66866 C 467.49751,516.11066 454.43317,423.76502 402.509,384.696 C 381.23713,362.76727 360.45232,352.53113 358.71751,329.84375 z" id="path3177"/>
      <path id="path3339" d="M 513.59375,445.5 C 507.04604,445.41656 502.19546,447.43642 498.59375,450.8125 C 494.99204,454.18858 492.62846,458.78943 490.53125,463.9375 C 486.4106,474.05253 483.22912,486.32686 475,496.21875 C 475.56479,496.44301 476.08098,496.73509 476.5,497.0625 C 476.85925,497.34321 477.16795,497.65823 477.40625,498 C 486.09825,487.49364 489.33041,474.83741 493.3125,465.0625 C 495.34663,460.06928 497.55073,455.88168 500.625,453 C 503.69927,450.11832 507.62232,448.4243 513.5625,448.5 L 513.59375,445.5 z" style="fill:#000000;fill-opacity:1;fill-rule:evenodd;stroke:none;stroke-width:3;stroke-linecap:butt;stroke-linejoin:miter;stroke-miterlimit:4;stroke-dasharray:none;stroke-opacity:1"/>
      <path id="path3341" d="M 506.0625,423.0625 C 499.64158,424.62522 495.1576,428.41956 491.90625,433.5 C 488.6549,438.58044 486.53021,444.91479 484.5625,451.90625 C 480.65791,465.77964 477.28866,482.24311 467.5625,496.53125 C 468.94856,495.93549 470.37159,495.63583 471.71875,495.625 C 480.58002,481.3773 483.83211,465.64006 487.46875,452.71875 C 489.41264,445.81191 491.45457,439.70593 494.40625,435.09375 C 497.35793,430.48157 501.11084,427.34881 506.78125,425.96875 L 506.0625,423.0625 z" style="fill:#000000;fill-opacity:1;fill-rule:evenodd;stroke:none;stroke-width:3;stroke-linecap:butt;stroke-linejoin:miter;stroke-miterlimit:4;stroke-dasharray:none;stroke-opacity:1"/>
      <path transform="matrix(0.9333334,0,0,0.9333334,33.904762,28.252719)" d="M 513.92858,423.79074 A 5.3571429,5.3571429 0 1 1 503.2143,423.79074 A 5.3571429,5.3571429 0 1 1 513.92858,423.79074 z" sodipodi:ry="5.3571429" sodipodi:rx="5.3571429" sodipodi:cy="423.79074" sodipodi:cx="508.57144" id="path3357" style="opacity:1;fill:#000000;fill-opacity:1;stroke:none;stroke-width:3;stroke-linecap:butt;stroke-linejoin:round;stroke-miterlimit:4;stroke-dasharray:none;stroke-dashoffset:0;stroke-opacity:1" sodipodi:type="arc"/>
      <path sodipodi:type="arc" style="opacity:1;fill:#000000;fill-opacity:1;stroke:none;stroke-width:3;stroke-linecap:butt;stroke-linejoin:round;stroke-miterlimit:4;stroke-dasharray:none;stroke-dashoffset:0;stroke-opacity:1" id="path3359" sodipodi:cx="508.57144" sodipodi:cy="423.79074" sodipodi:rx="5.3571429" sodipodi:ry="5.3571429" d="M 513.92858,423.79074 A 5.3571429,5.3571429 0 1 1 503.2143,423.79074 A 5.3571429,5.3571429 0 1 1 513.92858,423.79074 z" transform="matrix(0.9333334,0,0,0.9333334,43.011905,52.002719)"/>
      <path sodipodi:nodetypes="ccscsc" id="path3522" d="M 368.5625,399.5 C 363.29127,399.5 358.88061,403.0817 357.5625,407.9375 C 359.38166,403.31684 365.07228,400.98735 370.90625,402.71875 C 375.60494,404.11323 379.07099,407.74367 379.96875,411.71875 C 379.98669,411.45707 380,411.20371 380,410.9375 C 380,404.62893 374.87106,399.49999 368.5625,399.5 z" style="opacity:1;fill:#000000;fill-opacity:1;stroke:none;stroke-width:1;stroke-linecap:butt;stroke-linejoin:round;stroke-miterlimit:4;stroke-dasharray:none;stroke-dashoffset:0;stroke-opacity:1"/>
    </g>
  </g>
</svg>