<?xml version="1.0" encoding="UTF-8" standalone="no"?>
<!-- Created with Inkscape (http://www.inkscape.org/) -->
<svg height="400pt" id="svg2" inkscape:version="0.43" sodipodi:docbase="F:\" sodipodi:docname="bowtie.svg" sodipodi:version="0.32" version="1.0" width="744.09448" xmlns="http://www.w3.org/2000/svg" xmlns:cc="http://web.resource.org/cc/" xmlns:dc="http://purl.org/dc/elements/1.1/" xmlns:inkscape="http://www.inkscape.org/namespaces/inkscape" xmlns:rdf="http://www.w3.org/1999/02/22-rdf-syntax-ns#" xmlns:sodipodi="http://inkscape.sourceforge.net/DTD/sodipodi-0.dtd" xmlns:svg="http://www.w3.org/2000/svg" xmlns:xlink="http://www.w3.org/1999/xlink">
  <metadata>
    <rdf:RDF xmlns:cc="http://web.resource.org/cc/" xmlns:dc="http://purl.org/dc/elements/1.1/" xmlns:rdf="http://www.w3.org/1999/02/22-rdf-syntax-ns#">
      <cc:Work rdf:about="">
        <dc:title>Bow Tie</dc:title>
        <dc:description/>
        <dc:subject>
          <rdf:Bag>
            <rdf:li>clothing</rdf:li>
            <rdf:li>bow tie</rdf:li>
            <rdf:li>festive</rdf:li>
            <rdf:li>clothes</rdf:li>
          </rdf:Bag>
        </dc:subject>
        <dc:publisher>
          <cc:Agent rdf:about="http://www.openclipart.org/">
            <dc:title>Open Clip Art Library</dc:title>
          </cc:Agent>
        </dc:publisher>
        <dc:creator>
          <cc:Agent>
            <dc:title>Greg</dc:title>
          </cc:Agent>
        </dc:creator>
        <dc:rights>
          <cc:Agent>
            <dc:title>Public Domain</dc:title>
          </cc:Agent>
        </dc:rights>
        <dc:date>4/3/2006</dc:date>
        <dc:format>image/svg+xml</dc:format>
        <dc:type rdf:resource="http://purl.org/dc/dcmitype/StillImage"/>
        <cc:license rdf:resource="http://web.resource.org/cc/PublicDomain"/>
        <dc:language>en</dc:language>
      </cc:Work>
      <cc:License rdf:about="http://web.resource.org/cc/PublicDomain">
        <cc:permits rdf:resource="http://web.resource.org/cc/Reproduction"/>
        <cc:permits rdf:resource="http://web.resource.org/cc/Distribution"/>
        <cc:permits rdf:resource="http://web.resource.org/cc/DerivativeWorks"/>
      </cc:License>
    </rdf:RDF>
  </metadata>
  <defs id="defs4">
    <linearGradient gradientTransform="matrix(0.164181,0,0,0.279005,370.379,341.0819)" gradientUnits="userSpaceOnUse" id="linearGradient4128" inkscape:collect="always" x1="180.65712" x2="245.75005" xlink:href="#linearGradient2212" y1="810.21936" y2="758.14929"/>
    <linearGradient gradientTransform="matrix(0.164181,0,0,0.279005,370.8438,332.0167)" gradientUnits="userSpaceOnUse" id="linearGradient4131" inkscape:collect="always" x1="244.28572" x2="157.14334" xlink:href="#linearGradient2212" y1="810.21936" y2="665.02673"/>
    <linearGradient gradientTransform="matrix(0.164181,0,0,0.279005,305.0635,339.2224)" gradientUnits="userSpaceOnUse" id="linearGradient4134" inkscape:collect="always" x1="337.4357" x2="256.58017" xlink:href="#linearGradient2212" y1="802.69507" y2="691.37769"/>
    <linearGradient gradientTransform="matrix(0.137094,0,0,0.237759,313.5525,379.6629)" gradientUnits="userSpaceOnUse" id="linearGradient4138" inkscape:collect="always" x1="244.28572" x2="203.70448" xlink:href="#linearGradient2212" y1="810.21936" y2="624.79266"/>
    <linearGradient id="linearGradient2212">
      <stop id="stop2214" offset="0" style="stop-color:#000000;stop-opacity:1;"/>
      <stop id="stop2216" offset="1" style="stop-color:#000000;stop-opacity:0;"/>
    </linearGradient>
    <linearGradient gradientTransform="matrix(0.451528,0,0,0.783074,122.3746,-32.89941)" gradientUnits="userSpaceOnUse" id="linearGradient2233" inkscape:collect="always" x1="244.28572" x2="225.92958" xlink:href="#linearGradient2212" y1="810.21936" y2="718.16046"/>
    <linearGradient gradientTransform="matrix(0.540741,0,0,0.918919,94.41544,-166.0926)" gradientUnits="userSpaceOnUse" id="linearGradient3991" inkscape:collect="always" x1="244.28572" x2="225.92958" xlink:href="#linearGradient2212" y1="810.21936" y2="718.16046"/>
    <linearGradient gradientTransform="matrix(0.540741,0,0,0.918919,311.0668,-189.8248)" gradientUnits="userSpaceOnUse" id="linearGradient3995" inkscape:collect="always" x1="244.28572" x2="222.39273" xlink:href="#linearGradient2212" y1="810.21936" y2="728.99078"/>
    <linearGradient gradientTransform="matrix(0.540741,0,0,0.918919,309.5357,-159.9682)" gradientUnits="userSpaceOnUse" id="linearGradient3999" inkscape:collect="always" x1="244.28572" x2="245.75005" xlink:href="#linearGradient2212" y1="810.21936" y2="758.14929"/>
    <linearGradient gradientTransform="matrix(0.451528,0,0,0.783074,122.3746,-32.89941)" gradientUnits="userSpaceOnUse" id="linearGradient4029" inkscape:collect="always" x1="244.28572" x2="225.92958" xlink:href="#linearGradient2212" y1="810.21936" y2="718.16046"/>
    <linearGradient gradientTransform="matrix(0.540741,0,0,0.918919,94.41544,-166.0926)" gradientUnits="userSpaceOnUse" id="linearGradient4031" inkscape:collect="always" x1="244.28572" x2="225.92958" xlink:href="#linearGradient2212" y1="810.21936" y2="718.16046"/>
    <linearGradient gradientTransform="matrix(0.540741,0,0,0.918919,311.0668,-189.8248)" gradientUnits="userSpaceOnUse" id="linearGradient4033" inkscape:collect="always" x1="244.28572" x2="222.39273" xlink:href="#linearGradient2212" y1="810.21936" y2="728.99078"/>
    <linearGradient gradientTransform="matrix(0.540741,0,0,0.918919,309.5357,-159.9682)" gradientUnits="userSpaceOnUse" id="linearGradient4035" inkscape:collect="always" x1="244.28572" x2="245.75005" xlink:href="#linearGradient2212" y1="810.21936" y2="758.14929"/>
    <linearGradient gradientTransform="matrix(0.631509,0,0,1.073171,344.7216,-554.2534)" gradientUnits="userSpaceOnUse" id="linearGradient1564" inkscape:collect="always" x1="101.8843" x2="245.75005" xlink:href="#linearGradient2212" y1="857.73218" y2="758.14929"/>
    <linearGradient gradientTransform="matrix(0.631509,0,0,1.073171,346.5094,-589.122)" gradientUnits="userSpaceOnUse" id="linearGradient1567" inkscape:collect="always" x1="244.28572" x2="202.43771" xlink:href="#linearGradient2212" y1="810.21936" y2="707.90417"/>
    <linearGradient gradientTransform="matrix(0.631509,0,0,1.073171,93.49065,-561.4058)" gradientUnits="userSpaceOnUse" id="linearGradient1570" inkscape:collect="always" x1="428.02444" x2="256.58017" xlink:href="#linearGradient2212" y1="859.4787" y2="691.37769"/>
    <linearGradient gradientTransform="matrix(0.527321,0,0,0.914521,126.1429,-405.8546)" gradientUnits="userSpaceOnUse" id="linearGradient1574" inkscape:collect="always" x1="244.28572" x2="213.13815" xlink:href="#linearGradient2212" y1="810.21936" y2="703.66602"/>
    <linearGradient gradientTransform="matrix(0.527321,0,0,0.914521,126.1429,-405.8546)" gradientUnits="userSpaceOnUse" id="linearGradient1593" inkscape:collect="always" x1="244.28572" x2="213.13815" xlink:href="#linearGradient2212" y1="810.21936" y2="703.66602"/>
    <linearGradient gradientTransform="matrix(0.631509,0,0,1.073171,93.49065,-561.4058)" gradientUnits="userSpaceOnUse" id="linearGradient1595" inkscape:collect="always" x1="428.02444" x2="256.58017" xlink:href="#linearGradient2212" y1="859.4787" y2="691.37769"/>
    <linearGradient gradientTransform="matrix(0.631509,0,0,1.073171,346.5094,-589.122)" gradientUnits="userSpaceOnUse" id="linearGradient1597" inkscape:collect="always" x1="244.28572" x2="202.43771" xlink:href="#linearGradient2212" y1="810.21936" y2="707.90417"/>
    <linearGradient gradientTransform="matrix(0.631509,0,0,1.073171,344.7216,-554.2534)" gradientUnits="userSpaceOnUse" id="linearGradient1599" inkscape:collect="always" x1="101.8843" x2="245.75005" xlink:href="#linearGradient2212" y1="857.73218" y2="758.14929"/>
  </defs>
  <sodipodi:namedview bordercolor="#666666" borderopacity="1.0" id="base" inkscape:current-layer="layer1" inkscape:cx="375" inkscape:cy="340.59709" inkscape:document-units="px" inkscape:pageopacity="0.0" inkscape:pageshadow="2" inkscape:window-height="964" inkscape:window-width="1280" inkscape:window-x="-4" inkscape:window-y="-4" inkscape:zoom="0.80408886" pagecolor="#ffffff"/>
  <g id="layer1" inkscape:groupmode="layer" inkscape:label="Layer 1">
    <g id="g1581" transform="translate(9.949149,14.92372)">
      <path d="M 436.47673,186.84694 C 423.33462,184.96948 464.14526,165.56282 476.09562,159.78109 C 513.9572,141.46323 531.88247,125.96687 569.62252,109.79259 C 592.92888,99.804153 607.98488,111.04672 631.70114,101.5602 C 646.93641,95.466106 676.11594,113.10404 682.72349,126.31909 C 689.96638,140.80487 696.73222,159.9611 692.97737,174.98052 C 685.6828,204.15879 682.08661,230.7235 677.83191,260.50649 C 676.90715,266.97987 676.54601,296.96209 675.471,303.41219 C 670.64278,332.38153 670.81386,351.1928 661.42111,379.37094 C 648.32578,418.65702 600.64079,365.02788 571.99124,358.11478 C 563.09974,355.96931 533.22396,346.32594 496.88882,321.66699 C 482.61431,311.97954 462.7173,299.65462 440.68168,287.22511 C 437.76134,236.76414 439.60664,213.56278 439.06914,213.02527" id="path1543" sodipodi:nodetypes="csssssssssscc" style="fill:#ff0000;fill-opacity:1;fill-rule:evenodd;stroke:none;stroke-width:4;stroke-linecap:butt;stroke-linejoin:miter;stroke-miterlimit:4;stroke-dasharray:none;stroke-opacity:1"/>
      <path d="M 313.95389,187.56118 C 327.21304,185.76298 275.57699,162.20938 263.52019,156.67165 C 225.32142,139.1269 207.64777,120.84289 170.05447,104.32259 C 148.28423,94.755737 128.03913,96.600173 105.71158,93.348139 C 84.994255,90.330622 68.451875,108.49138 61.785489,121.14872 C 54.478097,135.02315 38.73008,156.31382 37.287403,188.0803 C 35.980312,216.86049 37.439683,228.57745 40.074097,257.28433 C 41.645398,274.40668 44.953512,284.25724 46.038088,302.79096 C 47.681702,330.87706 45.379657,362.14069 72.118476,383.3834 C 102.75326,407.72128 155.79179,367.4216 184.69649,359.97262 C 193.6023,357.6775 244.26586,329.38611 253.026,323.14883 C 266.94997,313.23487 306.74435,303.37569 315.00915,289.49661 C 321.05946,279.33636 319.66998,290.25508 320.21228,289.74024" id="path1545" sodipodi:nodetypes="csssssssssssc" style="fill:#ff0000;fill-opacity:1;fill-rule:evenodd;stroke:none;stroke-width:3.80046415;stroke-linecap:butt;stroke-linejoin:miter;stroke-miterlimit:4;stroke-dasharray:none;stroke-opacity:1"/>
      <path d="M 101.38182,84.112075 C 85.516868,84.532142 58.603191,102.01528 52.354373,114.51299 C 44.86066,129.50042 32.11889,148.61848 30.639441,182.93328 C 29.29904,214.02221 32.495301,230.54436 30.174101,259.87982 C 28.709653,278.38799 37.48057,297.92981 41.866452,308.02216 C 40.860305,318.62271 50.108486,374.48728 75.720842,391.46961 C 99.279939,407.09055 156.19112,372.81043 185.83284,364.76387 C 194.96574,362.28466 246.92104,329.78695 255.90455,323.04932 C 270.18354,312.34008 302.69018,303.85349 317.65526,296.37097 C 317.66622,296.36547 317.68088,296.34016 317.69172,296.33447 C 317.74531,296.30504 317.82389,296.25889 317.87424,296.225 C 318.43131,295.8362 318.81096,295.17877 319.29757,294.69216 L 319.29757,186.26352 C 332.89478,184.32103 279.94737,158.85188 267.58317,152.86997 C 228.41045,133.91773 209.38493,119.00107 170.8331,101.15557 C 148.50778,90.821233 128.5107,88.927678 105.76131,84.477023 C 104.32948,84.196927 102.87342,84.072572 101.38182,84.112075 z M 97.24049,95.645222 C 87.158174,98.261673 142.31216,93.90964 129.48181,93.29152 C 107.65794,92.240062 159.09921,110.86701 180.17533,120.19785 C 216.56997,136.31051 211.29768,138.82437 273.31214,163.08875 C 285.28936,167.77508 328.72134,185.2219 315.88495,186.97576 L 313.20276,291.15211 C 312.69419,291.63853 312.29685,292.28246 311.66996,292.6119 C 311.65973,292.61706 311.64384,292.64344 311.63346,292.6484 C 297.50578,299.40437 270.63384,303.71771 257.15383,313.38708 C 248.67297,319.47046 203.19212,354.33904 194.33566,355.29318 C 160.09412,358.98209 106.59718,401.22048 84.356326,387.11639 C 60.177147,371.78309 58.171238,361.38756 57.13932,333.96766 C 56.452196,315.70981 50.248457,283.24067 46.725597,267.92265 C 40.652521,241.51589 41.979306,200.9775 43.244701,172.90743 C 44.641414,141.92474 59.804621,141.76066 69.08315,120.40779 C 79.737544,95.888623 82.352341,96.275881 97.24049,95.645222 z " id="path1547" sodipodi:nodetypes="cssscssssssccsssccsssccsssssssssc" style="fill:#000000;fill-opacity:1;fill-rule:evenodd;stroke:#000000;stroke-width:1.16786182;stroke-linecap:butt;stroke-linejoin:miter;stroke-miterlimit:4;stroke-dasharray:none;stroke-opacity:1"/>
      <path d="M 648.54401,92.879568 C 647.26818,92.940203 591.76915,96.613865 568.46279,106.6023 C 530.72274,122.77662 514.54088,138.26789 476.67929,156.58579 C 464.72889,162.36752 417.9844,177.23964 431.12655,179.11707 L 438.7937,288.44103 C 439.27243,288.91975 474.92006,323.04443 488.72112,322.35718 C 499.5612,321.81737 544.54894,356.47502 553.55888,354.89932 C 568.38227,352.30691 654.0993,422.34961 667.19464,383.06353 C 676.58735,354.88534 678.99856,322.27818 683.82678,293.30887 C 684.90182,286.85874 685.81712,254.27909 686.74185,247.80572 C 690.99659,218.02273 690.35191,211.87212 697.64644,182.69385 C 701.40129,167.67443 698.76118,135.13225 691.51832,120.64646 C 685.37538,108.36058 661.95705,104.17562 648.54401,92.879568 z M 636.18931,104.99674 C 651.30003,104.48422 674.59474,116.53255 680.0533,128.03226 C 686.51638,141.64834 693.45617,171.28761 690.10561,185.40526 C 683.59636,212.83165 678.0994,225.63066 674.30276,253.62544 C 673.47755,259.71017 672.36957,285.44703 671.41029,291.50989 C 667.10192,318.73991 661.09645,345.34277 652.71498,371.82911 C 641.02958,408.7564 569.53523,339.53267 539.34363,339.53267 C 531.18177,339.53264 511.68994,322.43262 503.94196,316.31149 C 491.62675,306.58218 440.8189,269.43532 434.53108,283.62165 C 427.37336,299.77072 414.14593,282.6101 412.04809,299.90522 L 441.17595,188.43881 C 429.44876,186.6741 475.13401,163.57293 485.79772,158.13832 C 519.58298,140.92026 537.30787,134.13357 570.98464,118.93039 C 591.78171,109.54168 604.76235,112.89086 625.9252,103.97397 C 626.93418,103.54883 630.65721,106.76614 636.18931,104.99674 z " id="path1549" sodipodi:nodetypes="cssccsssssssccssssssssccsssc" style="fill:#000000;fill-opacity:1;fill-rule:evenodd;stroke:none;stroke-width:4;stroke-linecap:butt;stroke-linejoin:miter;stroke-miterlimit:4;stroke-dasharray:none;stroke-opacity:1"/>
      <path d="M 321.9064,172.54245 C 310.72574,180.82879 310.97745,196.4068 308.5594,210.91504 C 305.90237,226.85734 308.5594,246.36127 308.5594,262.63463 C 308.5594,273.09055 311.65981,287.18749 315.2329,294.33371 C 323.24438,310.35667 352.40733,306.10642 368.62088,309.3491 C 380.39766,311.70446 415.68768,310.84128 425.34559,306.01237 C 440.35267,298.50881 440.38909,284.21093 445.36609,264.30301 C 449.25909,248.73101 448.70282,225.73256 448.70282,209.24665 C 448.70282,197.07542 440.84682,178.03341 433.68747,170.87406 C 421.02332,158.20991 380.64625,164.96511 363.61576,162.53218 C 356.51331,161.51753 335.1594,162.72019 321.9064,172.54245 z " id="path1551" sodipodi:nodetypes="cssssssssss" style="fill:#ff0000;fill-opacity:1;fill-rule:evenodd;stroke:#000000;stroke-width:6.42324066;stroke-linecap:butt;stroke-linejoin:miter;stroke-miterlimit:4;stroke-dasharray:none;stroke-opacity:1"/>
      <path d="M 215.82015,282.31815 L 254.10262,269.18162 L 286.41263,252.9975 L 306.93925,247.4995 L 307.66534,254.21362 C 307.66534,254.21362 289.03589,256.36077 264.14804,268.34252 C 239.58511,275.26712 208.11388,287.8358 208.11388,287.8358 L 215.82015,282.31815 z " id="path1553" sodipodi:nodetypes="cccccccc" style="fill:url(#linearGradient1593);fill-opacity:1;stroke:none;stroke-width:4;stroke-linecap:round;stroke-miterlimit:4;stroke-opacity:1"/>
      <path d="M 309.48189,267.36826 C 342.52887,248.66393 443.66709,266.7863 443.66709,266.7863 C 443.66709,266.7863 453.6254,277.47527 431.15026,303.68775 C 400.52982,324.94842 315.32202,299.21748 315.32202,299.21748 C 315.32202,299.21748 309.87495,280.21119 309.48189,267.36826 z " id="path1555" sodipodi:nodetypes="ccccc" style="fill:#af0000;fill-opacity:0.22222224;stroke:none;stroke-width:5.5;stroke-linejoin:miter;stroke-miterlimit:4"/>
      <path d="M 204.4624,195.18687 L 230.63937,201.2289 L 249.66385,205.48277 L 306.43225,219.59437 L 306.58441,236.56893 L 293.75672,221.48612 L 204.4624,195.18687 z " id="path1557" sodipodi:nodetypes="ccccccc" style="fill:url(#linearGradient1595);fill-opacity:1;stroke:none;stroke-width:4;stroke-linecap:round;stroke-miterlimit:4;stroke-opacity:1"/>
      <path d="M 453.90499,218.43244 L 471.14138,214.63979 L 485.69559,213.52929 L 528.159,199.03098 L 481.82009,218.68773 L 445.74685,225.95643 L 453.90499,218.43244 z " id="path1559" sodipodi:nodetypes="ccccccc" style="fill:url(#linearGradient1597);fill-opacity:1;stroke:none;stroke-width:4;stroke-linecap:round;stroke-miterlimit:4;stroke-opacity:1"/>
      <path d="M 452.11687,253.30075 L 457.73049,260.23681 L 474.96684,264.49068 L 495.97288,273.23794 L 512.21808,281.27192 L 443.95873,260.82473 L 452.11687,253.30075 z " id="path1561" sodipodi:nodetypes="ccccccc" style="fill:url(#linearGradient1599);fill-opacity:1;stroke:none;stroke-width:4;stroke-linecap:round;stroke-miterlimit:4;stroke-opacity:1"/>
    </g>
  </g>
</svg>