<?xml version="1.0" encoding="UTF-8" standalone="no"?>
<!-- Created with Inkscape (http://www.inkscape.org/) -->

<svg
   xmlns:dc="http://purl.org/dc/elements/1.1/"
   xmlns:cc="http://creativecommons.org/ns#"
   xmlns:rdf="http://www.w3.org/1999/02/22-rdf-syntax-ns#"
   xmlns:svg="http://www.w3.org/2000/svg"
   xmlns="http://www.w3.org/2000/svg"
   version="1.1"
   width="250"
   height="296.57538"
   id="svg3022">
  <defs
     id="defs3024" />
  <metadata
     id="metadata3027">
    <rdf:RDF>
      <cc:Work
         rdf:about="">
        <dc:format>image/svg+xml</dc:format>
        <dc:type
           rdf:resource="http://purl.org/dc/dcmitype/StillImage" />
        <dc:title></dc:title>
      </cc:Work>
    </rdf:RDF>
  </metadata>
  <g
     transform="translate(-210.22746,-88.683282)"
     id="layer1">
    <g
       transform="matrix(3.1428727,0,0,3.1428727,-919.67673,-1436.1756)"
       id="layer1-1">
      <path
         d="m 390.24423,485.17997 c -0.34499,0 -4.5145,2.1618 -6.22917,3.2297 -15.32919,9.54716 -24.50187,26.00245 -24.50187,43.95466 0,6.80569 1.28163,13.3477 3.82889,19.54442 0.79296,1.9291 2.3467,5.12809 2.74112,5.64341 0.19584,0.25595 0.55928,0.0842 4.5243,-2.13727 2.37117,-1.32848 4.33781,-2.43869 4.3704,-2.46665 0.0325,-0.028 -0.16354,-0.44593 -0.43594,-0.92861 -1.95389,-3.46218 -3.93358,-9.53085 -4.41926,-13.54772 l -0.11091,-0.91816 5.04751,0 5.04746,0 0.0403,18.08344 0.0403,18.0832 2.30642,1.54844 c 1.26857,0.85161 3.49608,2.16088 4.95006,2.90973 l 2.3e-4,0 c 1.45393,0.74876 2.73332,1.36583 2.84309,1.36583 0.15918,0.005 0.19966,-9.53676 0.19966,-47.18006 0,-42.12576 -0.0261,-47.18436 -0.24288,-47.18436 z m -10.20259,20.27897 c 0.0367,0 0.0661,4.92183 0.0661,10.9376 l 0,10.93788 -5.02991,0 c -5.02148,0 -5.02968,-4.1e-4 -5.02968,-0.33904 0,-0.59681 0.79825,-4.31635 1.28823,-6.00207 1.51777,-5.22186 4.09451,-10.0617 7.61156,-14.29697 0.56518,-0.68069 1.05745,-1.2374 1.09366,-1.2374 z"
         id="path12542"
         style="fill:#000000" />
    </g>
    <g
       transform="matrix(3.1428727,0,0,3.1428727,-767.02291,-1436.1756)"
       id="layer1-7">
      <path
         d="m 390.24423,485.17997 c -0.34499,0 -4.5145,2.1618 -6.22917,3.2297 -15.32919,9.54716 -24.50187,26.00245 -24.50187,43.95466 0,6.80569 1.28163,13.3477 3.82889,19.54442 0.79296,1.9291 2.3467,5.12809 2.74112,5.64341 0.19584,0.25595 0.55928,0.0842 4.5243,-2.13727 2.37117,-1.32848 4.33781,-2.43869 4.3704,-2.46665 0.0325,-0.028 -0.16354,-0.44593 -0.43594,-0.92861 -1.95389,-3.46218 -3.93358,-9.53085 -4.41926,-13.54772 l -0.11091,-0.91816 5.04751,0 5.04746,0 0.0403,18.08344 0.0403,18.0832 2.30642,1.54844 c 1.26857,0.85161 3.49608,2.16088 4.95006,2.90973 l 2.3e-4,0 c 1.45393,0.74876 2.73332,1.36583 2.84309,1.36583 0.15918,0.005 0.19966,-9.53676 0.19966,-47.18006 0,-42.12576 -0.0261,-47.18436 -0.24288,-47.18436 z m -10.20259,20.27897 c 0.0367,0 0.0661,4.92183 0.0661,10.9376 l 0,10.93788 -5.02991,0 c -5.02148,0 -5.02968,-4.1e-4 -5.02968,-0.33904 0,-0.59681 0.79825,-4.31635 1.28823,-6.00207 1.51777,-5.22186 4.09451,-10.0617 7.61156,-14.29697 0.56518,-0.68069 1.05745,-1.2374 1.09366,-1.2374 z"
         id="path12542-4"
         style="fill:#000000" />
    </g>
  </g>
</svg>
