<?xml version="1.0" encoding="UTF-8" standalone="no"?>
<!-- Created with Inkscape (http://www.inkscape.org/) -->

<svg
   xmlns:dc="http://purl.org/dc/elements/1.1/"
   xmlns:cc="http://creativecommons.org/ns#"
   xmlns:rdf="http://www.w3.org/1999/02/22-rdf-syntax-ns#"
   xmlns:svg="http://www.w3.org/2000/svg"
   xmlns="http://www.w3.org/2000/svg"
   xmlns:sodipodi="http://sodipodi.sourceforge.net/DTD/sodipodi-0.dtd"
   xmlns:inkscape="http://www.inkscape.org/namespaces/inkscape"
   width="315"
   height="315"
   id="svg3050"
   version="1.1"
   inkscape:version="0.48.5 r10040"
   sodipodi:docname="FrameCircleFullSecondCircle.svg"
   inkscape:export-filename="C:\ColdFusion10\cfusion\wwwroot\Monogram\images\frames\FrameCircleFullSecondCircle.png"
   inkscape:export-xdpi="80"
   inkscape:export-ydpi="80">
  <defs
     id="defs3052" />
  <sodipodi:namedview
     id="base"
     pagecolor="#ffffff"
     bordercolor="#666666"
     borderopacity="1.0"
     inkscape:pageopacity="0.0"
     inkscape:pageshadow="2"
     inkscape:zoom="0.98994949"
     inkscape:cx="15.457195"
     inkscape:cy="128.90413"
     inkscape:document-units="px"
     inkscape:current-layer="layer1"
     showgrid="false"
     inkscape:window-width="1014"
     inkscape:window-height="608"
     inkscape:window-x="234"
     inkscape:window-y="143"
     inkscape:window-maximized="0"
     fit-margin-top="0"
     fit-margin-left="0"
     fit-margin-right="0"
     fit-margin-bottom="0" />
  <metadata
     id="metadata3055">
    <rdf:RDF>
      <cc:Work
         rdf:about="">
        <dc:format>image/svg+xml</dc:format>
        <dc:type
           rdf:resource="http://purl.org/dc/dcmitype/StillImage" />
        <dc:title></dc:title>
      </cc:Work>
    </rdf:RDF>
  </metadata>
  <g
     inkscape:label="Layer 1"
     inkscape:groupmode="layer"
     id="layer1"
     transform="translate(-239.64287,-277.71933)">
    <path
       sodipodi:type="arc"
       style="fill:#000000;fill-opacity:1;fill-rule:nonzero;stroke:none"
       id="path3170"
       sodipodi:cx="55.357143"
       sodipodi:cy="96.071426"
       sodipodi:rx="95.35714"
       sodipodi:ry="95.35714"
       d="m 150.71428,96.071426 c 0,52.664294 -42.69284,95.357144 -95.357137,95.357144 -52.6642936,0 -95.357139,-42.69285 -95.357139,-95.357144 0,-52.664294 42.6928454,-95.3571392 95.357139,-95.3571392 52.664297,0 95.357137,42.6928452 95.357137,95.3571392 z"
       transform="matrix(1.2846442,0,0,1.2846442,326.02864,311.80173)" />
    <path
       style="fill:#000000;fill-opacity:1;fill-rule:nonzero;stroke:none"
       d="m 397.14288,277.71933 c -86.98485,0 -157.50001,70.51516 -157.50001,157.50001 0,86.98483 70.51516,157.49999 157.50001,157.49999 86.98483,0 157.49999,-70.51516 157.49999,-157.49999 0,-86.98485 -70.51516,-157.50001 -157.49999,-157.50001 z m 0.17897,18.1483 c 77.49559,0 140.31818,62.82258 140.31818,140.31818 0,77.49559 -62.82259,140.31818 -140.31818,140.31818 -77.4956,0 -140.31818,-62.82259 -140.31818,-140.31818 0,-77.4956 62.82258,-140.31818 140.31818,-140.31818 z"
       id="path3170-1"
       inkscape:connector-curvature="0" />
  </g>
</svg>
