<svg>

  <g
     transform="translate(-83.529654,-85.356946)"
     id="layer3">
    <path
       d="m 474.21875,85.375 c -3.85889,0.07678 -7.58426,0.420344 -11.15625,1 -16.63841,2.700017 -19.47199,8.397867 -5.5625,11.21875 5.07359,1.028954 14.57773,3.0387 21.125,4.4375 17.31772,3.69986 46.1665,24.84834 60.0625,44.03125 12.95461,17.88325 16.74681,45.57013 6.75,49.40625 -15.92605,6.11142 -60.57058,-29.22574 -73.9375,-58.53125 -8.08697,-17.72983 -8.49733,-18.03811 -9.96875,-7.09375 -2.37882,17.69384 9.59865,47.70408 29.8125,74.625 10.12551,13.48526 18.4375,25.78175 18.4375,27.34375 0,1.562 7.51147,10.22459 16.71875,19.25 16.92216,16.58781 38.73618,29.3125 50.21875,29.3125 10.10665,0 14.04803,43.3324 5.1875,57.03125 -3.77891,5.8424 -10.85135,18.47903 -15.71875,28.0625 -4.86732,9.58341 -9.92593,17.40625 -11.21875,17.40625 -1.29282,0 -5.90715,-6.62786 -10.28125,-14.75 -11.10456,-20.61989 -40.64577,-45.73513 -70.21875,-59.71875 -22.25738,-10.52442 -24.78969,-12.9647 -23.0625,-22 C 453.75311,274.12939 446.23405,264 434.78125,264 c -9.2231,0 -23.40625,10.93462 -23.40625,18.0625 0,2.8446 -10.41273,4.5125 -28.1875,4.5 -26.42926,-0.0193 -28.58116,-0.7385 -34.65625,-11.3125 -11.23662,-19.55793 -35.5625,-13.10075 -35.5625,9.4375 0,9.26317 -3.95421,12.89729 -26.875,24.53125 -27.27554,13.84432 -71.53125,55.74871 -71.53125,67.75 0,10.02869 -6.91435,6.5612 -12.15625,-6.09375 -2.73851,-6.61143 -9.44764,-18.04996 -14.875,-25.40625 -9.9233,-13.45025 -12.05655,-28.49879 -7.375,-51.90625 2.02584,-10.12926 5.05064,-12.89894 16.25,-15 13.53545,-2.53925 59.15625,-39.65823 59.15625,-48.125 0,-2.21293 6.25467,-11.69455 13.875,-21.09375 17.93216,-22.11815 30.36466,-47.07973 33.625,-67.46875 3.04488,-19.04164 -4.4832,-27.59761 -8.4375,-9.59375 -5.44654,24.79787 -48.29339,62 -71.40625,62 -19.97874,0 -9.80078,-39.64614 16.46875,-64.15625 17.49311,-16.3214 43.43662,-30.10591 56.8125,-30.1875 11.56388,-0.07043 23.33188,-6.060372 17.9375,-9.125 -18.51847,-10.520631 -57.05241,-4.873036 -95.625,14 -30.24379,14.79793 -72.03058,54.31131 -84.0625,79.46875 -10.93836,22.87073 -10.26691,51.80139 1.59375,67.84375 7.91048,10.6995 8.69015,14.3767 4.875,22.75 -6.21214,13.63415 -5.69521,27.6053 1.625,45.125 4.97279,11.90166 5.25888,17.75582 1.46875,30.40625 -5.82875,19.45438 -0.0109,35.73903 19.90625,55.65625 l 13.71875,13.71875 -17.875,0 c -13.11364,0 -22.95848,3.36565 -36.9375,12.625 -22.21084,14.71188 -39.788093,34.28053 -39.59375,44.0625 0.116934,5.88215 1.121305,5.67019 7.15625,-1.4375 10.65515,-12.54916 30.70935,-25.66477 44.1875,-28.90625 6.62726,-1.59388 17.01594,-5.39349 23.0625,-8.4375 13.06828,-6.57877 48.4375,-3.17916 48.4375,4.65625 0,2.9337 -10.73336,7.17634 -25.5625,10.09375 -14.06455,2.76704 -30.31068,7.47821 -36.09375,10.46875 -11.65041,6.02465 -44.9375,40.58965 -44.9375,46.65625 0,2.12094 -1.294136,7.21318 -2.875,11.34375 -1.580787,4.13064 6.9659,-2.16156 19,-14 12.03418,-11.83843 24.85993,-21.5461 28.5,-21.5625 3.64006,-0.0148 12.1414,-3.67614 18.90625,-8.15625 14.99012,-9.92759 49.15089,-11.38494 52.65625,-2.25 1.57486,4.10382 -4.65833,9.46517 -20.15625,17.3125 -12.34507,6.25081 -26.85882,16.01769 -32.25,21.71875 -14.34067,15.16488 -30.96875,48.72593 -30.96875,62.46875 0,14.16975 6.12731,11.9923 10.03125,-3.5625 6.18291,-24.63456 49.71138,-64.59726 75.03125,-68.875 14.40903,-2.43441 17.40625,-1.8244 17.40625,3.5625 0,3.58066 -1.37133,6.5337 -3.0625,6.5625 -1.69125,0.0285 -11.97757,10.20401 -22.84375,22.59375 -22.19501,25.30701 -34.41327,60.86162 -29.65625,86.21875 3.70516,19.75018 10.45051,17.67794 10.6875,-3.28125 0.10828,-9.58349 3.31848,-23.18613 7.15625,-30.21875 3.83783,-7.03262 11.23077,-20.4807 16.40625,-29.90625 5.17556,-9.42555 12.53077,-18.26468 16.375,-19.625 3.84431,-1.36041 10.02216,-5.05546 13.71875,-8.21875 5.88121,-5.03283 8.17463,-4.37907 18.4375,5.1875 43.84216,40.86752 94.95726,59.41702 140.6875,51.0625 29.63153,-5.41348 67.84846,-24.36219 91.96875,-45.59375 17.33494,-15.25875 19.96754,-16.35332 26.28125,-10.9375 3.8578,3.30915 10.15569,7.13959 14,8.5 3.84423,1.36032 10.99161,10.40042 15.90625,20.09375 4.91472,9.69333 10.09968,18.56011 11.5,19.6875 5.22311,4.20546 12.74761,31.87629 12.90625,47.4375 L 575.6875,643.21875 582.3125,631 c 5.72562,-10.58194 5.91611,-15.48953 1.53125,-36.71875 -6.31356,-30.56737 -11.46053,-40.205 -35.09375,-65.5 -19.00912,-20.34583 -22.71705,-35.86663 -6.5,-27.1875 4.39507,2.35208 11.3431,4.3228 15.4375,4.375 15.3505,0.19598 66.875,57.62712 66.875,74.53125 0,4.32834 1.8388,6.73737 4.09375,5.34375 7.05515,-4.3603 4.51811,-20.57147 -6.5,-41.4375 -12.90137,-24.43227 -23.24656,-35.95986 -40.125,-44.75 -28.01082,-14.58755 -33.3125,-18.32004 -33.3125,-23.375 0,-9.42376 37.50517,-8.96529 53.8125,0.65625 7.86394,4.63984 16.60702,8.4375 19.40625,8.4375 6.05724,0 39.53125,31.38662 39.53125,37.0625 0,2.17115 1.58898,3.9375 3.53125,3.9375 7.88273,0 -1.38593,-21.54126 -16.78125,-39.03125 -19.85557,-22.55712 -30.42479,-28.36217 -63.6875,-34.90625 -29.63223,-5.82976 -33.68849,-14.07152 -8.59375,-17.4375 22.18028,-2.97494 73.38629,16.25368 92.4375,34.71875 9.83467,9.53219 13.59375,11.33722 13.59375,6.53125 0,-18.96711 -49.47551,-56.46875 -74.5,-56.46875 -8.63321,0 -15.6875,-1.5107 -15.6875,-3.34375 0,-1.83305 5.47481,-8.56888 12.1875,-15 16.23039,-15.54975 22.67599,-35.35533 16.90625,-51.90625 -3.42288,-9.81899 -2.92868,-17.13586 2.25,-32.96875 5.43157,-16.60614 5.796,-23.24647 1.9375,-36.125 -4.16487,-13.90107 -3.65937,-17.57543 4.1875,-30.875 18.87191,-31.98547 7.7393,-67.74412 -33.78125,-108.625 -34.6375,-34.10389 -83.94736,-56.304696 -121.25,-55.5625 z m -94.8125,234.15625 c 67.65488,0 122.5,54.84512 122.5,122.5 0,67.65488 -54.84512,122.5 -122.5,122.5 -67.65488,0 -122.5,-54.84512 -122.5,-122.5 0,-67.65488 54.84512,-122.5 122.5,-122.5 z"
       id="path3014-1-7"
       style="fill:#000000" />
  </g>
  
</svg>
