<?xml version="1.0" encoding="UTF-8" standalone="no"?>
<!-- Created with Inkscape (http://www.inkscape.org/) -->

<svg
   xmlns:dc="http://purl.org/dc/elements/1.1/"
   xmlns:cc="http://creativecommons.org/ns#"
   xmlns:rdf="http://www.w3.org/1999/02/22-rdf-syntax-ns#"
   xmlns:svg="http://www.w3.org/2000/svg"
   xmlns="http://www.w3.org/2000/svg"
   version="1.1"
   width="553.99994"
   height="441.9086"
   id="svg3004">
  <defs
     id="defs3006" />
  <metadata
     id="metadata3009">
    <rdf:RDF>
      <cc:Work
         rdf:about="">
        <dc:format>image/svg+xml</dc:format>
        <dc:type
           rdf:resource="http://purl.org/dc/dcmitype/StillImage" />
        <dc:title></dc:title>
      </cc:Work>
    </rdf:RDF>
  </metadata>
  <g
     transform="translate(-570.82153,-180.83714)"
     id="layer1">
    <path
       d="m 923.16794,180.83757 c -0.27239,-3.1e-4 -0.54291,0.005 -0.81706,0.0105 -29.99856,2.75937 -44.18799,17.63221 -73.78128,18.34456 -25.80548,0.79366 -60.49002,-16.3121 -76.97297,-16.00249 l 0.46834,0.0871 c -18.31757,0.56846 -22.62603,4.70643 -29.57569,11.92831 9.47489,0.033 54.88185,31.85608 27.45154,70.43701 -31.00294,43.6056 -68.12751,7.72342 -68.12751,7.72342 0,0 -11.1321,7.69258 -18.80221,37.37539 -22.02669,66.52046 -11.19843,133.6298 -11.19843,133.6298 -16.07161,-0.0824 -44.32389,1.25028 -44.66309,26.93948 0.34839,22.48023 10.58219,18.51261 4.76047,33.70427 -3.44883,8.9995 -21.49681,19.95196 -38.24679,21.54725 -16.75009,1.59524 -26.51032,16.24157 -21.54726,28.01788 8.73427,20.72462 24.83852,16.74673 35.20752,11.96097 10.36913,-4.78564 20.58137,-17.50031 28.94394,-27.56037 6.14248,-7.38934 9.7551,-13.13633 20.61037,-9.00889 6.58251,2.50292 7.05515,6.16498 5.58839,16.7541 -1.73053,12.49222 -5.57276,18.43336 -7.16797,35.98106 -1.59521,17.54771 9.68702,25.30779 23.24657,24.51018 13.55968,-0.79761 18.12151,-12.00617 18.21384,-19.03078 0.10957,-8.35955 0.32892,-9.81127 -2.8432,-23.68239 -4.49821,-19.6706 -0.52732,-25.41852 6.84114,-29.74993 4.5875,-2.69669 8.71691,-4.87882 22.89794,-1.3617 15.37531,3.81325 13.93756,9.51035 29.14,11.39454 15.69781,1.94566 20.61574,-2.65821 22.59292,-14.57543 2.11657,-12.75765 -9.07779,-17.52814 -16.99371,-19.93495 -17.47449,-5.31296 -34.40083,3.96262 -59.92483,-2.41834 -25.52378,-6.38101 -43.87934,-10.76004 -39.64118,-29.44495 5.38173,-23.72706 27.19056,-16.82463 40.95933,-16.91752 19.4505,4.07522 40.7227,15.14194 62.8987,25.16384 -24.47196,-22.25921 -39.83734,-54.35792 -39.83734,-90.04514 0,-67.20733 54.48333,-121.6906 121.6906,-121.6906 67.2074,0 121.6906,54.48327 121.6906,121.6906 0,37.4734 -16.93577,70.99062 -43.57371,93.31317 16.81747,-4.76551 31.98096,-9.70698 43.34502,-12.85426 31.92403,-8.84129 37.91996,-4.33559 37.91996,-4.33559 0,0 33.8732,3.08409 32.9308,31.00273 -1.1532,34.17112 -43.53007,20.62126 -43.53007,20.62126 l -46.83089,0.10899 c 0,0 -28.69553,0.47295 -25.87192,19.94583 0.0956,16.64177 16.04167,22.14775 35.58891,10.39232 12.60448,-6.68529 27.13624,-12.72506 38.11613,-4.9347 10.25814,7.27839 8.78004,22.23351 8.78004,22.23351 0,0 -5.67609,15.26211 -5.79536,29.61927 -0.11918,14.37884 11.42636,22.33837 25.99186,20.83907 11.8451,-1.21907 17.41,-12.63805 16.6124,-30.18562 -0.7976,-17.5477 -15.6027,-37.98575 -3.8345,-45.48015 9.702,-6.17858 15.3597,0.58825 15.3597,0.58825 l 12.876,13.56224 c 0,0 16.0731,20.54593 26.3186,23.12689 5.4325,1.89335 24.9557,7.98143 32.8219,-13.80199 6.6909,-18.52873 -13.3553,-26.42749 -13.3553,-26.42749 0,0 -41.7429,-6.33717 -47.3755,-24.37953 -7.1785,-15.15481 11.7505,-19.1845 3.1809,-42.49528 -9.968,-27.11414 -20.5121,-24.23263 -41.7111,-35.00059 5.9823,-26.69762 5.8717,-79.61887 -13.5405,-143.52106 -3.918,-12.89763 -11.35527,-20.80884 -16.91742,-28.36652 -16.75592,16.57985 -49.73114,21.18407 -65.77453,-0.93683 -34.43312,-51.37952 25.8936,-75.63312 25.8936,-75.63312 0,0 -13.5262,-12.75993 -30.68671,-12.77801 z m -0.51202,309.0904 c -0.0315,-0.0157 -0.0653,-0.0279 -0.0979,-0.0436 0,0.0144 0,0.0293 0,0.0436 0.0326,0 0.0642,0 0.0979,0 z m -159.97015,-3.26804 c 0.0478,0.009 0.0945,0.0144 0.14162,0.0217 0,-0.0217 0,-0.0436 0,-0.0654 -0.0466,0.015 -0.0944,0.0285 -0.14162,0.0436 z M 714.75464,216.68786 c -0.32193,-0.005 -0.6455,0.003 -0.96953,0.0105 -12.31763,0.32409 -15.55585,15.56673 -15.55585,15.56673 0.97245,34.3598 37.51808,20.21785 36.30786,3.88893 -0.92443,-12.47491 -9.80138,-19.30062 -19.78248,-19.46659 z m 247.08495,0.37041 c -10.21165,0.34385 -17.72405,9.4591 -17.32053,19.30316 0.4604,11.23203 12.0239,18.24716 22.04835,17.9524 11.39903,-0.33524 16.11906,-7.02027 16.20938,-18.59512 0.0606,-7.73532 -2.60657,-15.38289 -16.5362,-18.26828 -1.1601,-0.24032 -2.30121,-0.36761 -3.40968,-0.39216 -0.33486,-0.008 -0.66193,-0.0116 -0.99132,0 z"
       id="path2987-1"
       style="fill:#000000;fill-opacity:1;stroke:none;display:inline" />
  </g>
</svg>
