<?xml version="1.0" encoding="UTF-8" standalone="no"?>
<!-- Created with Inkscape (http://www.inkscape.org/) -->

<svg
   xmlns:dc="http://purl.org/dc/elements/1.1/"
   xmlns:cc="http://creativecommons.org/ns#"
   xmlns:rdf="http://www.w3.org/1999/02/22-rdf-syntax-ns#"
   xmlns:svg="http://www.w3.org/2000/svg"
   xmlns="http://www.w3.org/2000/svg"
   version="1.1"
   width="197.39072"
   height="205"
   id="svg3075">
 
  <g
     transform="translate(-303.20238,-378.70838)"
     id="layer1">
    <path
       d="m 359.09622,573.05917 c -22.25478,-11.48356 -39.84795,-30.82573 -48.79754,-53.64901 -2.1458,-5.47208 -2.21556,-4.83999 0.64023,-5.79672 1.35967,-0.45548 5.62113,-1.91865 9.46971,-3.25156 3.84855,-1.33291 7.02658,-2.39033 7.06212,-2.34978 0.0347,0.04 0.67722,1.65276 1.42588,3.5826 2.98151,7.68701 6.43992,14.07546 10.50733,19.40929 2.62259,3.43896 3.38983,4.35593 3.64521,4.35593 0.10329,0 0.18799,-9.833 0.18799,-21.85116 l 0,-21.85116 -19.78776,0 c -18.54732,0 -19.80177,-0.034 -20.01211,-0.55818 -0.39814,-0.99049 -0.25786,-17.59133 0.17859,-21.13357 2.70188,-21.92927 10.97709,-40.58581 25.26651,-56.9631 5.69109,-6.5227 15.3833,-14.67379 23.12714,-19.44989 3.10221,-1.9133 11.86637,-6.52582 12.39957,-6.52582 0.11048,0 0.2008,14.64178 0.2008,32.53737 l 0,32.53762 -10.36366,0 -10.36377,0 -0.0833,-12.62648 -0.0833,-12.62669 -2.52772,3.10394 c -7.38462,9.06766 -12.99814,20.2072 -15.79607,31.34595 -1.10347,4.39228 -1.98582,9.27962 -1.74583,9.66798 0.0931,0.15183 9.13339,0.27509 20.08839,0.27509 l 19.91843,0 0,51.99626 c 0,28.59802 -0.0769,51.99625 -0.17061,51.99625 -0.0941,0 -2.06749,-0.9787 -4.38615,-2.17516 z m 89.64291,-186.90501 c -0.016,0 -0.0266,0.01 -0.033,0.012 -0.0605,0.0613 -0.0751,37.02238 -0.0301,82.13634 l 0.0805,82.02587 7.09892,-3.82472 c 3.90435,-2.10345 8.13906,-4.46222 9.41046,-5.24174 l 2.31143,-1.41721 6.37895,6.36727 c 3.5084,3.50209 6.476,6.36728 6.59495,6.36728 0.92252,0 12.70513,-14.67858 12.70513,-15.8279 0,-0.14983 -1.8981,-2.17536 -4.21851,-4.50057 -3.66122,-3.66889 -4.15679,-4.2852 -3.74839,-4.66698 0.25875,-0.24212 2.19331,-1.9592 4.29872,-3.81612 2.10541,-1.85674 5.44275,-4.93908 7.41656,-6.84895 l 3.58835,-3.47252 0,-38.38048 0,-38.38048 -2.01523,-3.85809 c -9.38288,-17.96531 -23.19891,-32.23587 -40.98666,-42.33435 -3.78301,-2.14772 -8.37538,-4.39331 -8.85152,-4.33883 z m 20.71975,40.11363 c 0.0274,0 0.0567,0 0.0887,0.03 1.62717,1.33211 8.4817,10.76316 10.10244,13.89965 0.47999,0.92956 0.52744,3.85769 0.52744,32.71962 l 0,31.69875 -3.26968,2.89056 c -1.7984,1.58983 -4.21889,3.69667 -5.37904,4.68237 -1.16026,0.9857 -2.2012,1.79219 -2.31298,1.79219 -0.11228,0 -0.20328,-19.82702 -0.20328,-44.06032 0,-38.61283 0.0311,-43.52653 0.44666,-43.65279 z m -62.79805,-47.55941 c -5.73257,0.0248 -11.46926,0.27836 -14.44839,0.74801 -5.36566,0.84589 -10.81117,2.05861 -15.24878,3.39522 l -3.40796,1.02647 0,97.57163 0,97.57171 1.75398,0.60472 c 2.70717,0.93296 9.98192,2.71917 13.87682,3.4074 l 0,0 c 1.92996,0.34122 3.76048,0.63189 4.06752,0.64747 0.52924,0.0259 0.55799,-2.33979 0.55799,-45.42982 l 0,-45.45657 5.97854,0 5.97805,0 6.46225,6.45678 6.46282,6.45658 0,39 0,39.0004 1.03664,0 c 2.33579,0 9.87406,-1.51671 16.10951,-3.23098 l 3.58834,-0.98631 0,-41.24909 0,-41.24827 -6.98768,-7.26148 -6.98823,-7.26228 6.98411,-7.19755 6.9842,-7.19795 -0.0751,-42.25495 -0.0759,-42.25543 -2.86687,-0.8892 c -3.65169,-1.13288 -10.39883,-2.60499 -15.31581,-3.34147 -2.96364,-0.44374 -8.69246,-0.6474 -14.42513,-0.62248 z m -0.56397,19.98906 c 3.58001,0 7.34524,0.2733 11.2407,0.80431 l 1.35565,0.18379 0,30.08796 0,30.08795 -6.34085,6.09839 -6.34083,6.09857 -6.10004,0 -6.10001,0 0,-36.20591 c 0,-19.91333 0.10768,-36.20871 0.23935,-36.20871 0.13165,0 1.95661,-0.21636 4.05532,-0.47827 2.53404,-0.31584 5.20624,-0.47247 7.99071,-0.46887 z"
       id="path12622"
       style="fill:#000000" />
  </g>
</svg>
