<?xml version="1.0" encoding="UTF-8" standalone="no"?>
<!-- Created with Inkscape (http://www.inkscape.org/) -->

<svg
   xmlns:dc="http://purl.org/dc/elements/1.1/"
   xmlns:cc="http://creativecommons.org/ns#"
   xmlns:rdf="http://www.w3.org/1999/02/22-rdf-syntax-ns#"
   xmlns:svg="http://www.w3.org/2000/svg"
   xmlns="http://www.w3.org/2000/svg"
   version="1.1"
   width="100.00871"
   height="100.04376"
   id="svg3051">
  <defs
     id="defs3053" />
  <metadata
     id="metadata3056">
    <rdf:RDF>
      <cc:Work
         rdf:about="">
        <dc:format>image/svg+xml</dc:format>
        <dc:type
           rdf:resource="http://purl.org/dc/dcmitype/StillImage" />
        <dc:title></dc:title>
      </cc:Work>
    </rdf:RDF>
  </metadata>
  <g
     transform="translate(-324.99525,-482.33991)"
     id="layer1">
    <g
       transform="matrix(0.02536783,0,0,0.02499005,296.01726,255.32249)"
       id="Layer_x0020_1"
       style="fill:#004f96;fill-rule:evenodd">
      <metadata
         id="CorelCorpID_0Corel-Layer" />
      <path
         d="m 4706,11368 c 0,0 7,19 17,48 5,14 10,32 15,50 5,19 12,40 16,60 4,21 9,41 13,61 1,5 2,9 3,14 1,5 2,10 3,14 1,9 3,18 4,26 5,32 8,54 8,54 0,0 -1,0 -2,2 -2,2 -5,4 -9,8 -7,6 -17,15 -30,26 -12,10 -26,22 -42,35 -16,12 -33,25 -49,38 -17,13 -35,24 -51,35 -16,11 -31,21 -44,30 -26,15 -44,26 -44,26 0,0 0,5 0,14 0,9 0,22 -1,37 -1,15 -2,33 -3,53 -1,9 -1,20 -2,30 -1,10 -3,21 -4,31 -2,21 -5,42 -8,62 -3,20 -6,38 -9,54 -3,16 -6,29 -8,39 -2,9 -3,14 -3,14 0,0 -20,8 -51,20 -7,3 -15,6 -24,9 -9,3 -18,6 -28,10 -19,6 -39,12 -59,19 -20,5 -40,11 -60,16 -9,2 -18,5 -27,7 -8,2 -17,4 -24,5 -30,6 -50,10 -50,10 0,0 -2,5 -5,14 -3,8 -8,19 -14,34 -6,14 -13,31 -20,49 -8,17 -18,36 -27,55 -5,9 -9,19 -14,28 -5,10 -10,18 -15,27 -9,18 -19,34 -27,48 -4,7 -7,14 -11,19 -4,6 -7,11 -9,15 -5,8 -8,12 -8,12 0,0 -22,1 -54,2 -17,0 -35,0 -56,0 -20,-1 -41,-1 -62,-3 -21,-1 -42,-3 -61,-5 -20,-1 -38,-4 -53,-6 -15,-2 -28,-4 -37,-5 -4,-1 -7,-2 -10,-2 -2,0 -3,-1 -3,-1 0,0 -14,16 -34,38 -11,12 -22,26 -36,39 -14,14 -29,29 -44,43 -15,16 -31,29 -46,42 -15,13 -29,26 -42,36 -25,20 -42,33 -42,33 0,0 -6,-1 -15,-4 -4,-2 -10,-3 -16,-5 -6,-2 -13,-5 -21,-7 -15,-6 -33,-13 -52,-20 -9,-3 -19,-7 -28,-11 -10,-4 -20,-8 -29,-13 -19,-8 -39,-17 -56,-25 -18,-9 -34,-17 -48,-25 -27,-14 -45,-24 -45,-24 0,0 -18,10 -45,24 -13,8 -29,16 -47,25 -18,8 -37,17 -56,25 -9,4 -19,9 -29,13 -9,4 -19,7 -28,11 -19,7 -37,14 -52,20 -7,2 -14,5 -21,7 -6,2 -11,3 -16,5 -9,3 -14,4 -14,4 0,0 -17,-13 -43,-33 -13,-10 -27,-23 -42,-36 -15,-13 -31,-26 -46,-42 -15,-14 -30,-29 -44,-43 -3,-3 -7,-7 -10,-10 -3,-3 -6,-7 -9,-10 -6,-7 -12,-13 -17,-19 -20,-23 -34,-38 -34,-38 0,0 -1,0 -4,1 -2,0 -5,1 -10,1 -9,2 -21,3 -36,6 -15,1 -34,4 -53,6 -19,2 -40,3 -61,5 -21,2 -42,2 -62,2 -20,1 -39,1 -55,1 -33,-1 -54,-2 -54,-2 0,0 -3,-4 -9,-12 -2,-4 -5,-9 -9,-15 -3,-5 -7,-12 -11,-19 -8,-14 -17,-30 -27,-48 -5,-9 -10,-18 -15,-27 -5,-9 -9,-19 -14,-28 -9,-19 -19,-38 -27,-56 -7,-18 -14,-34 -20,-49 -6,-14 -11,-26 -14,-34 -3,-8 -5,-13 -5,-13 0,0 -20,-4 -50,-10 -8,-2 -16,-4 -25,-6 -8,-2 -17,-4 -27,-6 -19,-6 -39,-11 -59,-16 -20,-7 -40,-13 -59,-20 -10,-3 -19,-6 -28,-9 -9,-3 -17,-6 -24,-9 -30,-12 -51,-20 -51,-20 0,0 -1,-5 -3,-14 -2,-10 -5,-23 -8,-39 -2,-16 -6,-35 -9,-54 -3,-20 -6,-42 -8,-62 -1,-11 -3,-21 -4,-31 -1,-11 -1,-21 -2,-31 -1,-19 -2,-37 -3,-53 -1,-15 -1,-28 -1,-37 0,-9 0,-14 0,-14 0,0 -18,-10 -44,-26 -13,-9 -28,-19 -44,-29 -16,-11 -34,-23 -50,-36 -17,-12 -34,-25 -50,-37 -16,-13 -30,-25 -42,-36 -12,-10 -23,-19 -30,-25 -3,-4 -6,-6 -8,-8 -2,-2 -3,-2 -3,-2 0,0 3,-22 8,-54 2,-8 3,-17 4,-26 1,-5 2,-9 3,-14 1,-5 2,-10 3,-15 4,-19 9,-40 13,-61 5,-20 11,-40 16,-59 6,-19 10,-36 15,-51 10,-29 17,-48 17,-48 0,0 -3,-4 -9,-11 -3,-4 -6,-8 -10,-13 -4,-4 -9,-10 -13,-16 -9,-12 -20,-27 -32,-42 -5,-8 -11,-17 -17,-25 -6,-9 -12,-17 -18,-26 -11,-18 -22,-36 -33,-53 -11,-17 -19,-33 -28,-47 -15,-29 -26,-48 -26,-48 0,0 11,-19 26,-48 9,-14 17,-30 28,-47 11,-17 22,-35 34,-53 5,-9 11,-18 17,-26 6,-9 12,-17 17,-25 12,-16 23,-30 32,-43 9,-12 18,-22 23,-29 6,-6 9,-10 9,-10 0,0 -7,-20 -17,-49 -4,-14 -9,-32 -15,-50 -5,-19 -11,-39 -16,-60 -4,-20 -9,-41 -13,-61 -1,-4 -2,-9 -3,-14 -1,-5 -2,-9 -3,-14 -1,-9 -2,-18 -4,-26 -5,-32 -8,-53 -8,-53 0,0 1,-1 3,-3 2,-2 5,-4 8,-7 7,-7 18,-16 30,-26 12,-11 26,-23 42,-36 16,-12 33,-25 50,-38 16,-12 34,-24 50,-35 16,-11 31,-21 44,-29 27,-16 44,-27 44,-27 0,0 0,-5 0,-14 1,-9 0,-22 1,-37 1,-15 2,-33 3,-53 1,-9 2,-20 2,-30 2,-10 3,-20 4,-31 3,-21 5,-42 8,-62 3,-19 7,-38 10,-54 3,-16 5,-29 7,-39 2,-9 3,-14 3,-14 0,0 21,-8 51,-20 8,-3 16,-6 24,-9 9,-3 18,-6 28,-10 19,-6 39,-12 59,-19 20,-5 41,-11 60,-16 9,-2 18,-5 27,-7 9,-2 17,-3 24,-5 31,-6 51,-10 51,-10 0,0 1,-5 4,-13 3,-9 8,-20 14,-35 6,-14 13,-31 21,-49 8,-17 17,-36 26,-55 5,-9 10,-19 14,-28 5,-9 10,-18 15,-27 10,-18 19,-34 27,-48 4,-7 8,-14 11,-19 4,-6 7,-11 9,-14 6,-9 9,-13 9,-13 0,0 21,-1 54,-2 16,0 35,0 55,1 20,0 41,0 62,2 21,2 42,3 62,5 19,1 37,4 52,6 16,2 28,4 37,5 4,1 8,2 10,2 2,0 4,1 4,1 0,0 13,-16 33,-38 11,-12 23,-26 37,-39 14,-14 28,-29 43,-43 15,-15 31,-29 46,-42 15,-13 30,-26 42,-36 26,-20 43,-33 43,-33 0,0 5,1 14,4 5,2 10,3 16,5 7,2 14,5 21,8 15,5 33,12 52,19 9,4 19,7 29,11 9,4 19,9 29,13 19,9 38,17 56,25 17,9 33,18 47,25 27,14 45,24 45,24 0,0 18,-10 45,-24 13,-7 30,-16 47,-25 18,-8 37,-16 56,-25 10,-4 19,-9 29,-13 10,-4 19,-7 29,-11 18,-7 36,-14 51,-19 8,-3 15,-6 21,-8 6,-2 12,-3 16,-5 9,-3 15,-4 15,-4 0,0 17,13 42,33 13,10 27,23 42,36 15,13 31,27 46,42 15,15 30,29 44,43 4,4 7,7 10,10 3,4 7,7 10,10 6,7 11,13 16,19 21,23 34,38 34,38 0,0 2,0 4,-1 2,0 6,-1 10,-1 9,-1 21,-3 37,-5 15,-2 33,-5 52,-7 20,-2 41,-3 61,-5 22,-2 43,-2 63,-2 20,-1 39,-1 55,-1 32,1 54,2 54,2 0,0 3,4 8,13 2,4 5,8 9,14 4,5 7,12 11,19 8,14 18,30 28,48 4,9 10,18 14,27 5,9 10,19 14,28 10,20 19,38 27,56 8,18 15,35 21,49 6,14 10,26 14,34 3,9 4,13 4,13 0,0 20,4 50,10 8,2 16,4 25,6 8,2 18,4 27,7 19,5 39,10 59,16 21,6 41,13 60,19 9,3 18,6 27,9 9,3 17,6 24,9 31,12 51,20 51,20 0,0 1,5 3,15 2,9 5,22 8,38 3,16 6,35 10,54 2,20 5,42 8,63 1,10 2,20 3,31 1,10 2,20 2,30 2,19 3,37 4,53 1,15 0,28 0,37 0,9 0,14 0,14 0,0 18,10 45,26 12,9 27,19 43,29 17,11 34,23 51,36 17,13 34,25 49,38 16,12 30,24 42,35 13,10 23,19 30,26 4,3 7,5 9,7 1,2 2,3 2,3 0,0 -3,21 -8,54 -1,8 -3,16 -4,25 -1,5 -2,9 -2,14 -1,5 -3,10 -4,15 -4,19 -8,40 -13,61 -4,20 -11,41 -16,59 -5,19 -10,36 -15,51 -10,29 -17,48 -17,48 0,0 4,4 9,11 3,4 7,8 11,13 4,5 8,10 13,16 9,13 19,27 31,43 6,8 12,16 18,24 6,9 11,17 17,26 11,18 23,36 34,53 10,17 19,33 27,47 16,29 26,48 26,48 0,0 -10,19 -26,48 -8,14 -17,30 -27,48 -11,16 -23,34 -34,52 -6,9 -11,18 -17,26 -6,9 -12,17 -18,25 -12,16 -22,30 -32,43 -8,12 -17,22 -23,29 -6,7 -9,11 -9,11 z m 137,-911 c 0,0 0,-2 0,-4 1,-3 1,-7 1,-12 1,-9 2,-23 4,-40 1,-17 3,-37 4,-59 1,-21 1,-44 2,-67 1,-24 0,-47 -1,-69 -1,-22 -2,-43 -2,-60 -3,-36 -5,-60 -5,-60 0,0 -5,-3 -14,-9 -8,-6 -20,-15 -35,-24 -15,-10 -33,-21 -52,-33 -9,-6 -18,-12 -28,-18 -10,-5 -21,-11 -31,-17 -20,-11 -40,-22 -59,-32 -20,-10 -38,-18 -53,-26 -15,-7 -28,-13 -37,-17 -9,-4 -14,-6 -14,-6 0,0 -6,-22 -14,-55 -3,-8 -5,-17 -8,-26 -2,-10 -6,-20 -9,-30 -6,-20 -14,-42 -21,-64 -8,-22 -16,-44 -24,-64 -4,-10 -8,-20 -12,-30 -3,-9 -7,-18 -11,-26 -15,-33 -25,-54 -25,-54 0,0 -5,-2 -15,-5 -10,-3 -25,-6 -42,-10 -18,-4 -38,-9 -59,-14 -22,-4 -45,-8 -68,-12 -11,-2 -23,-4 -34,-6 -11,-2 -22,-3 -33,-4 -21,-3 -41,-5 -58,-7 -9,-1 -16,-1 -23,-2 -7,0 -13,-1 -18,-1 -10,-1 -16,-1 -16,-1 0,0 -12,-19 -31,-47 -10,-14 -22,-29 -35,-47 -13,-17 -27,-35 -42,-53 -15,-18 -30,-35 -44,-52 -15,-17 -29,-31 -41,-44 -13,-13 -23,-24 -30,-32 -4,-4 -7,-7 -9,-9 -2,-2 -3,-3 -3,-3 0,0 -24,3 -59,7 -9,1 -19,2 -29,3 -5,0 -10,1 -15,2 -6,1 -11,1 -16,2 -22,4 -45,8 -68,12 -23,3 -46,9 -67,14 -21,4 -40,9 -56,13 -33,9 -55,16 -55,16 0,0 -4,-4 -12,-10 -4,-3 -9,-6 -15,-10 -5,-4 -12,-9 -19,-13 -14,-10 -31,-21 -48,-33 -9,-5 -19,-12 -28,-18 -10,-6 -20,-11 -30,-17 -20,-12 -41,-23 -60,-34 -19,-11 -37,-19 -53,-28 -32,-15 -54,-26 -54,-26 0,0 -21,11 -54,26 -16,8 -34,17 -53,28 -20,11 -40,22 -60,34 -10,6 -20,11 -30,17 -10,6 -19,13 -28,18 -18,12 -35,23 -49,32 -7,5 -13,10 -19,14 -5,4 -10,7 -14,10 -8,6 -13,10 -13,10 0,0 -21,-7 -54,-16 -16,-4 -36,-9 -57,-14 -21,-4 -43,-10 -66,-14 -23,-3 -46,-7 -68,-11 -22,-4 -42,-5 -60,-8 -35,-3 -59,-6 -59,-6 0,0 -1,1 -3,3 -2,2 -5,5 -9,9 -7,7 -17,18 -30,31 -12,13 -26,28 -41,45 -14,16 -29,34 -45,52 -15,17 -29,36 -42,53 -12,17 -24,33 -34,47 -19,28 -32,47 -32,47 0,0 -6,0 -16,1 -4,0 -10,1 -17,1 -7,0 -15,1 -23,2 -17,2 -37,4 -58,7 -11,1 -22,2 -33,4 -12,2 -23,4 -34,6 -23,4 -46,8 -68,12 -21,5 -41,9 -59,13 -17,4 -32,8 -42,10 -10,3 -15,5 -15,5 0,0 -10,22 -25,54 -4,9 -8,17 -12,27 -3,9 -7,19 -11,29 -8,21 -16,43 -25,64 -7,23 -14,45 -21,65 -3,10 -6,20 -9,29 -3,10 -5,19 -7,27 -9,33 -14,55 -14,55 0,0 -6,2 -15,6 -9,4 -21,10 -37,17 -15,8 -33,16 -52,26 -19,9 -39,21 -60,32 -10,6 -20,11 -30,17 -10,6 -19,12 -29,18 -18,11 -36,22 -51,32 -15,9 -27,18 -35,24 -9,6 -14,10 -14,10 0,0 -2,23 -5,59 -1,18 -2,39 -2,61 -1,22 -2,45 -1,68 0,23 1,47 1,68 1,22 3,42 4,59 2,17 3,31 4,40 0,5 1,9 1,12 0,2 1,4 1,4 0,0 -16,16 -40,39 -6,6 -13,13 -20,20 -3,3 -7,7 -10,11 -4,4 -7,7 -11,11 -14,17 -30,34 -45,51 -16,17 -29,36 -43,53 -14,17 -27,34 -37,48 -21,29 -35,49 -35,49 0,0 2,5 5,15 2,11 5,25 11,42 6,17 12,37 19,58 3,10 7,21 10,32 4,11 8,22 12,33 9,21 17,43 25,63 8,19 17,38 24,53 14,31 24,51 24,51 0,0 -10,20 -24,51 -7,15 -16,33 -24,53 -8,20 -16,42 -25,63 -4,11 -8,22 -12,33 -4,11 -7,21 -10,32 -7,21 -14,40 -19,57 -3,9 -5,17 -7,24 -2,7 -3,13 -5,18 -2,10 -4,16 -4,16 0,0 14,19 34,48 11,15 24,31 38,49 14,17 27,35 43,53 15,17 31,34 45,50 4,4 7,8 11,12 3,4 7,8 10,11 7,7 14,14 20,20 24,24 40,39 40,39 0,0 -1,2 -1,4 0,3 -1,7 -1,12 -1,10 -2,24 -4,40 -1,17 -3,37 -4,59 0,21 -1,44 -1,67 -1,24 0,47 0,69 1,22 2,43 3,60 2,36 5,60 5,60 0,0 5,3 13,9 9,6 20,15 36,25 15,9 32,20 51,32 9,6 19,12 29,18 10,5 20,11 30,17 21,11 41,22 60,32 19,10 37,18 52,26 16,7 28,13 37,17 9,4 15,6 15,6 0,0 5,22 14,55 2,8 4,17 7,27 3,9 6,19 9,29 7,20 14,42 21,64 8,22 16,44 24,64 4,11 8,21 12,30 4,9 8,18 11,26 15,33 25,55 25,55 0,0 6,1 16,4 10,3 24,6 42,10 17,4 37,9 59,14 21,4 45,8 67,12 12,2 23,4 34,6 12,2 23,3 33,4 22,3 42,5 59,7 8,1 16,2 23,2 6,0 13,1 17,1 10,1 16,1 16,1 0,0 13,19 31,47 11,14 22,30 35,47 13,17 27,36 42,53 15,18 30,36 44,52 15,17 29,32 41,45 13,13 23,23 30,31 4,4 7,7 9,9 2,2 3,3 3,3 0,0 24,-3 60,-7 9,0 18,-2 28,-3 5,0 10,-1 16,-2 5,0 10,-1 16,-2 21,-4 44,-8 68,-11 22,-4 45,-10 66,-14 21,-5 40,-10 57,-14 32,-9 54,-15 54,-15 0,0 5,3 13,9 4,3 9,6 14,10 6,5 12,9 19,14 14,9 31,20 49,32 9,6 18,12 28,18 9,6 19,11 29,17 21,12 41,23 60,34 19,11 38,20 53,28 33,16 54,26 54,26 0,0 22,-10 54,-26 16,-8 34,-17 54,-28 19,-11 39,-22 60,-34 10,-6 20,-11 29,-17 10,-6 19,-12 28,-18 18,-12 35,-23 49,-32 7,-5 14,-9 19,-14 6,-4 11,-7 15,-10 8,-6 12,-9 12,-9 0,0 22,6 54,15 17,4 36,9 57,14 21,4 44,10 66,14 23,4 46,7 68,11 22,4 42,6 60,8 36,4 59,6 59,6 0,0 1,-1 3,-3 2,-2 5,-5 9,-9 7,-7 18,-18 30,-31 12,-13 27,-28 41,-44 15,-17 30,-35 45,-53 15,-17 29,-36 42,-53 13,-17 25,-33 35,-47 19,-28 31,-47 31,-47 0,0 6,0 16,-1 5,0 11,-1 18,-1 7,0 14,-1 23,-2 17,-2 36,-4 58,-7 10,-1 21,-2 33,-4 11,-2 22,-4 34,-5 22,-4 45,-8 67,-13 22,-5 42,-9 59,-13 17,-4 32,-8 42,-10 10,-3 16,-5 16,-5 0,0 10,-22 24,-54 4,-8 8,-17 12,-26 4,-10 8,-20 12,-30 7,-21 16,-42 24,-64 7,-22 15,-44 21,-65 3,-10 6,-20 9,-29 3,-10 5,-19 8,-27 8,-33 14,-55 14,-55 0,0 5,-2 14,-6 9,-4 22,-10 37,-17 15,-7 33,-16 53,-25 19,-10 39,-21 59,-33 10,-5 20,-11 30,-17 10,-6 20,-12 29,-17 19,-12 36,-23 51,-33 16,-9 27,-18 36,-24 8,-6 13,-9 13,-9 0,0 2,-24 5,-60 1,-18 2,-38 3,-61 0,-22 1,-45 1,-68 -1,-23 -2,-46 -2,-68 -1,-21 -3,-42 -4,-59 -2,-16 -3,-30 -4,-40 0,-5 0,-9 -1,-12 0,-2 0,-4 0,-4 0,0 16,-15 40,-39 6,-6 12,-13 19,-20 4,-3 7,-7 11,-11 3,-3 7,-7 10,-11 15,-16 30,-34 45,-51 16,-17 30,-36 44,-53 13,-17 26,-33 37,-48 20,-29 34,-48 34,-48 0,0 -2,-6 -4,-16 -3,-10 -6,-25 -12,-42 -5,-17 -12,-37 -18,-58 -4,-10 -7,-21 -11,-32 -4,-11 -8,-22 -12,-32 -9,-22 -17,-43 -25,-64 -8,-19 -17,-38 -24,-53 -14,-31 -24,-51 -24,-51 0,0 10,-20 24,-51 7,-15 16,-33 24,-53 8,-20 16,-42 25,-63 4,-11 8,-22 12,-33 4,-10 7,-21 11,-31 7,-22 13,-41 18,-58 3,-9 5,-17 7,-24 2,-7 4,-13 5,-18 3,-10 4,-16 4,-16 0,0 -14,-19 -34,-48 -11,-15 -24,-31 -37,-48 -14,-18 -28,-36 -44,-54 -15,-17 -30,-34 -45,-50 -3,-4 -7,-8 -10,-12 -4,-4 -7,-7 -11,-11 -7,-7 -13,-14 -19,-20 -24,-23 -40,-39 -40,-39 z m -71,335 0,0 c 0,0 5,-15 12,-37 3,-11 7,-24 10,-38 4,-14 7,-29 11,-45 2,-7 4,-15 6,-23 1,-7 3,-15 4,-22 3,-15 5,-28 8,-40 2,-12 4,-22 5,-29 1,-7 1,-11 1,-11 1,-7 2,-15 2,-22 l 2,0 c 4,5 10,11 15,16 0,0 3,3 8,8 5,6 12,14 20,23 8,9 18,20 28,32 5,6 11,12 16,18 5,7 11,13 16,20 10,13 21,27 31,39 5,7 10,13 14,19 5,6 8,11 12,16 15,22 25,36 25,36 0,0 -4,16 -11,41 -7,25 -17,57 -28,89 -4,16 -11,32 -16,46 -6,15 -11,28 -16,40 -4,11 -8,21 -11,27 -2,7 -4,11 -4,11 -4,5 -7,13 -8,21 l -2,0 c -3,-7 -7,-15 -10,-20 0,0 -2,-4 -6,-10 -3,-7 -8,-16 -15,-26 -6,-11 -13,-23 -21,-36 -8,-13 -15,-26 -25,-40 -18,-27 -35,-53 -49,-72 -14,-18 -24,-31 -24,-31 z m -200,-549 0,0 c 0,0 -1,-16 -2,-39 -2,-23 -5,-54 -8,-85 -4,-31 -9,-62 -13,-86 -1,-6 -2,-12 -3,-17 -1,-4 -2,-9 -3,-12 -1,-7 -2,-11 -2,-11 -2,-6 -4,-15 -5,-21 l 1,-1 c 5,3 14,7 20,10 0,0 3,2 10,5 3,2 7,4 12,6 4,3 9,5 15,8 21,12 51,28 80,45 29,18 58,36 79,51 22,15 36,25 36,25 0,0 1,17 4,42 1,13 1,28 2,44 1,15 1,32 2,49 1,17 1,33 0,49 0,16 0,30 0,43 -1,12 -1,22 -1,29 -1,7 -1,11 -1,11 -1,7 -2,16 -1,23 l -1,1 c -5,-6 -11,-12 -17,-16 0,0 -3,-2 -8,-7 -5,-5 -13,-11 -23,-19 -9,-8 -20,-17 -32,-27 -6,-4 -12,-9 -18,-14 -6,-5 -13,-10 -19,-14 -13,-10 -26,-19 -38,-28 -12,-9 -23,-17 -33,-23 -20,-13 -33,-21 -33,-21 z m -377,-448 0,0 c 0,0 -5,-15 -15,-35 -5,-11 -10,-23 -16,-37 -7,-13 -13,-27 -21,-41 -14,-28 -29,-56 -41,-77 -13,-20 -21,-34 -21,-34 -4,-6 -8,-13 -12,-19 l 1,-1 c 6,2 15,2 22,3 0,0 16,2 41,5 25,4 57,10 91,16 17,2 33,7 49,10 15,4 30,7 43,10 12,3 23,6 30,8 7,2 11,3 11,3 0,0 8,16 18,39 6,12 12,25 18,40 6,14 12,30 18,46 6,15 13,31 18,45 5,15 9,29 13,41 8,23 13,39 13,39 1,6 4,14 7,21 l -1,1 c -7,-4 -15,-7 -21,-9 0,0 -16,-5 -39,-14 -11,-4 -24,-9 -38,-14 -15,-5 -30,-9 -46,-14 -15,-4 -30,-9 -44,-13 -15,-4 -28,-7 -40,-10 -22,-6 -38,-9 -38,-9 z m -506,-293 0,0 c 0,0 -11,-11 -27,-27 -8,-9 -17,-19 -27,-29 -6,-5 -11,-11 -17,-16 -5,-5 -11,-10 -17,-16 -23,-21 -47,-43 -65,-58 -19,-15 -31,-25 -31,-25 -6,-4 -13,-9 -18,-13 l 0,-2 c 6,0 15,-3 22,-4 0,0 16,-4 40,-9 25,-6 57,-11 91,-17 34,-6 67,-10 93,-12 26,-3 43,-5 43,-5 0,0 4,3 9,9 5,5 13,13 22,22 17,19 41,42 63,68 11,13 21,26 32,37 5,6 9,12 14,18 4,5 8,11 12,15 15,20 25,33 25,33 3,6 9,13 14,17 l -1,2 c -7,-1 -16,-2 -22,-1 0,0 -17,0 -41,0 -6,-1 -13,-1 -20,-1 -7,1 -14,1 -22,1 -15,1 -31,1 -47,2 -8,0 -16,1 -23,1 -8,0 -16,1 -23,2 -15,1 -29,3 -41,4 -11,1 -21,2 -28,3 -6,0 -10,1 -10,1 z m -577,-101 0,0 c 0,0 -13,-6 -34,-16 -10,-5 -23,-11 -36,-18 -7,-3 -14,-6 -21,-9 -7,-3 -14,-6 -21,-9 -15,-6 -29,-12 -43,-18 -14,-5 -27,-11 -38,-14 -23,-8 -38,-14 -38,-14 -7,-1 -15,-4 -22,-6 l 0,-1 c 6,-3 13,-8 19,-12 0,0 14,-9 35,-23 11,-7 23,-14 37,-22 13,-7 28,-16 43,-24 7,-4 15,-9 22,-13 7,-4 15,-7 22,-11 14,-7 28,-14 39,-19 12,-6 21,-11 28,-14 7,-4 11,-5 11,-5 0,0 16,7 39,18 11,6 25,12 39,19 7,4 14,7 21,11 8,4 15,8 23,13 14,8 29,16 42,24 14,7 26,14 37,21 20,14 34,23 34,23 5,4 13,8 19,11 l 0,2 c -7,1 -16,4 -21,7 0,0 -16,5 -39,13 -11,4 -25,9 -39,15 -14,6 -29,12 -43,18 -8,3 -15,6 -22,9 -7,3 -14,7 -21,10 -14,6 -26,12 -37,17 -10,5 -19,10 -25,13 -6,3 -10,4 -10,4 z m -576,102 0,0 c 0,0 -4,-1 -10,-1 -7,-1 -16,-2 -28,-3 -23,-2 -54,-6 -85,-7 -16,-1 -32,-1 -47,-2 -7,0 -15,0 -22,-1 -6,1 -13,1 -19,1 -24,0 -40,0 -40,0 -7,1 -15,1 -22,2 l -1,-2 c 5,-4 10,-12 14,-17 0,0 10,-13 25,-33 4,-5 8,-11 12,-16 5,-6 10,-12 15,-18 10,-12 21,-24 32,-37 5,-7 11,-13 16,-20 6,-6 12,-12 17,-18 11,-11 21,-22 30,-32 9,-9 17,-17 22,-22 5,-6 9,-9 9,-9 0,0 17,2 42,4 13,2 28,3 44,5 15,1 32,5 49,7 33,6 65,11 90,16 24,6 40,9 40,9 6,3 14,4 22,4 l 0,2 c -6,4 -14,10 -18,14 0,0 -13,10 -32,26 -19,15 -43,37 -66,59 -24,21 -46,44 -62,61 -16,17 -27,28 -27,28 z m -506,293 0,0 c 0,0 -15,4 -37,9 -12,3 -25,6 -39,10 -14,4 -29,9 -44,13 -15,5 -30,9 -45,14 -14,5 -27,10 -38,14 -23,8 -38,14 -38,14 -6,3 -14,6 -20,9 l -1,-1 c 3,-6 5,-15 7,-21 0,0 5,-16 13,-40 3,-11 8,-25 13,-40 5,-15 11,-31 17,-47 6,-15 13,-31 18,-46 7,-15 13,-29 18,-40 11,-24 18,-40 18,-40 0,0 16,-5 41,-11 13,-3 27,-6 43,-10 15,-4 31,-8 48,-10 33,-7 66,-13 90,-16 25,-3 41,-5 41,-5 6,0 15,-2 22,-4 l 1,2 c -5,6 -10,13 -12,19 0,0 -8,14 -21,35 -12,21 -27,50 -42,78 -8,14 -14,28 -21,42 -6,13 -12,26 -17,37 -4,10 -9,19 -11,25 -3,7 -4,10 -4,10 z m -376,449 0,0 c 0,0 -13,8 -32,21 -10,6 -21,14 -33,23 -12,8 -24,17 -37,27 -6,4 -13,9 -19,14 -6,5 -12,10 -18,14 -11,10 -22,18 -31,26 -10,8 -17,14 -23,19 -5,4 -8,7 -8,7 -5,5 -11,11 -16,16 l -1,-1 c 0,-6 -1,-15 -1,-22 0,0 0,-4 -1,-12 0,-7 0,-17 -1,-30 0,-12 -1,-27 -1,-42 0,-8 0,-17 0,-25 0,-8 0,-17 0,-25 1,-17 1,-34 2,-50 0,-16 1,-31 2,-44 3,-26 4,-43 4,-43 0,0 14,-10 35,-25 21,-14 50,-32 78,-50 29,-17 58,-33 80,-45 10,-6 20,-11 26,-14 7,-3 10,-5 10,-5 6,-2 14,-6 20,-11 l 1,1 c -2,8 -4,16 -5,22 0,0 -1,4 -2,11 -1,4 -2,8 -3,13 0,5 -1,10 -2,16 -4,25 -10,56 -14,88 -3,32 -6,63 -8,87 -1,23 -2,39 -2,39 z m -199,550 0,0 c 0,0 -10,12 -24,30 -13,19 -31,45 -48,71 -9,13 -17,27 -25,39 -7,13 -14,25 -21,36 -6,10 -11,19 -14,25 -4,6 -5,10 -5,10 -3,6 -7,14 -10,20 l -2,0 c -1,-7 -5,-15 -8,-21 0,0 -2,-4 -5,-11 -2,-6 -6,-16 -11,-27 -4,-12 -10,-26 -15,-40 -6,-15 -13,-31 -17,-47 -11,-32 -22,-64 -29,-89 -7,-25 -11,-42 -11,-42 0,0 10,-14 24,-35 7,-11 16,-22 26,-35 10,-13 20,-26 31,-39 5,-7 10,-13 15,-20 5,-6 11,-12 16,-18 10,-12 20,-23 28,-32 8,-9 15,-17 19,-22 3,-3 5,-5 6,-6 1,-2 2,-2 2,-2 5,-4 11,-11 15,-17 l 2,0 c 0,8 1,17 2,23 0,0 1,1 1,3 0,1 1,4 1,8 1,7 3,17 5,29 3,12 5,26 8,41 1,7 3,15 4,23 2,7 4,15 6,23 4,15 8,31 11,45 2,7 4,14 6,21 1,6 3,13 5,18 7,23 12,38 12,38 z m 0,585 0,0 c 0,0 -5,15 -11,37 -4,11 -7,24 -11,38 -3,14 -7,30 -11,45 -2,8 -4,15 -5,23 -2,7 -3,15 -5,22 -3,15 -5,29 -7,40 -2,12 -4,22 -5,29 -2,7 -2,11 -2,11 -1,7 -1,15 -2,22 l -2,1 c -3,-6 -10,-12 -15,-17 0,0 -3,-3 -8,-8 -4,-6 -11,-13 -19,-23 -9,-9 -19,-20 -29,-32 -5,-6 -11,-12 -16,-18 -5,-7 -10,-13 -16,-20 -10,-13 -21,-27 -30,-39 -5,-6 -10,-13 -15,-19 -4,-5 -8,-11 -12,-16 -15,-22 -25,-36 -25,-36 0,0 5,-16 11,-41 8,-25 18,-57 28,-89 5,-16 11,-31 17,-46 5,-15 10,-28 15,-40 4,-11 8,-21 11,-27 3,-7 4,-11 4,-11 4,-5 7,-13 9,-20 l 2,0 c 2,7 6,14 10,20 0,0 2,3 5,9 3,7 9,16 15,26 6,11 13,23 21,36 8,13 16,27 25,40 18,27 36,53 49,72 14,18 24,31 24,31 z m 200,549 0,0 c 0,0 1,16 2,39 2,23 5,54 9,85 3,31 9,63 13,87 1,6 2,11 2,16 1,5 2,9 3,12 1,7 2,11 2,11 2,6 4,15 6,21 l -2,1 c -5,-3 -13,-7 -19,-10 0,0 -4,-2 -11,-5 -3,-2 -7,-4 -11,-6 -5,-2 -10,-5 -15,-8 -22,-12 -52,-28 -81,-45 -28,-18 -57,-36 -79,-51 -21,-14 -35,-24 -35,-24 0,0 -2,-17 -4,-43 -2,-12 -2,-28 -3,-43 0,-16 -1,-33 -2,-50 -1,-16 0,-33 0,-49 0,-16 0,-30 1,-42 0,-13 0,-23 0,-30 1,-7 1,-11 1,-11 1,-7 2,-16 1,-23 l 1,0 c 6,5 12,11 17,15 0,0 3,3 8,7 6,5 14,12 23,19 10,8 20,17 32,27 6,4 12,9 18,14 6,5 13,10 19,15 13,9 26,18 38,27 12,9 23,17 33,23 20,13 33,21 33,21 z m 377,448 0,0 c 0,0 5,15 15,36 5,10 11,23 17,36 6,13 12,28 20,41 15,28 29,56 41,77 13,21 21,34 21,34 4,6 9,13 13,19 l -1,1 c -7,-2 -16,-2 -22,-3 0,0 -17,-2 -42,-5 -24,-4 -57,-10 -91,-16 -17,-2 -33,-6 -48,-10 -16,-4 -31,-7 -43,-10 -13,-3 -24,-5 -31,-8 -7,-2 -11,-3 -11,-3 0,0 -7,-15 -18,-39 -5,-12 -12,-25 -18,-39 -6,-15 -12,-31 -18,-47 -6,-15 -12,-31 -17,-45 -5,-15 -10,-29 -14,-41 -7,-23 -13,-39 -13,-39 -1,-6 -3,-14 -7,-21 l 2,-1 c 6,4 14,7 20,9 0,0 16,5 39,14 11,4 25,9 39,14 14,5 30,9 45,14 15,5 30,9 45,13 14,4 28,7 39,10 23,6 38,9 38,9 z m 506,293 0,0 c 0,0 11,11 27,28 8,8 18,18 28,28 5,6 10,11 16,16 6,5 11,10 17,16 23,21 47,43 65,58 19,15 32,25 32,25 5,4 12,9 18,13 l -1,2 c -6,0 -15,3 -22,4 0,0 -16,4 -40,9 -25,6 -57,12 -91,17 -33,6 -67,10 -93,13 -26,2 -43,4 -43,4 0,0 -3,-3 -9,-8 -5,-6 -12,-14 -21,-23 -18,-18 -42,-42 -63,-68 -11,-13 -22,-25 -32,-37 -5,-6 -10,-12 -15,-17 -4,-6 -8,-11 -12,-16 -15,-20 -25,-33 -25,-33 -3,-6 -8,-12 -14,-17 l 1,-2 c 7,1 16,2 23,1 0,0 16,0 40,1 6,0 13,0 20,0 7,0 14,-1 22,-1 15,0 31,-1 47,-2 8,0 16,0 24,-1 7,0 15,-1 23,-2 14,-1 28,-3 40,-4 11,-1 21,-2 28,-3 7,0 10,-1 10,-1 z m 577,101 0,0 c 0,0 14,6 34,17 11,5 23,11 36,17 7,3 14,6 21,9 7,3 14,6 21,9 15,6 30,12 43,18 14,6 27,11 39,15 22,7 37,13 37,13 7,2 15,4 22,6 l 0,2 c -6,2 -13,8 -19,11 0,0 -14,9 -35,23 -10,7 -23,14 -36,22 -14,8 -29,16 -43,24 -8,5 -15,9 -23,13 -7,4 -14,7 -21,11 -15,7 -28,14 -40,20 -11,5 -21,10 -28,13 -7,4 -11,6 -11,6 0,0 -15,-8 -38,-19 -12,-6 -25,-12 -39,-19 -8,-4 -15,-7 -22,-11 -7,-4 -15,-8 -22,-12 -15,-9 -29,-17 -43,-25 -13,-7 -26,-14 -36,-21 -21,-14 -35,-23 -35,-23 -5,-4 -12,-8 -19,-11 l 0,-2 c 8,-1 16,-4 22,-7 0,0 15,-5 38,-13 12,-4 25,-9 39,-15 14,-6 29,-12 44,-18 7,-3 14,-6 22,-9 7,-3 14,-6 21,-10 13,-6 25,-12 36,-17 11,-5 19,-9 25,-12 6,-3 10,-5 10,-5 z m 576,-102 0,0 c 0,0 4,1 11,1 6,1 16,2 27,3 23,2 55,6 86,7 16,1 31,1 46,2 8,0 15,0 22,1 7,0 13,0 19,-1 24,0 40,0 40,0 7,-1 16,-1 22,-2 l 1,2 c -4,4 -10,12 -14,17 0,0 -10,13 -25,33 -4,5 -8,11 -12,16 -5,6 -10,12 -15,18 -10,12 -21,25 -31,37 -6,7 -12,13 -17,20 -6,6 -11,12 -17,18 -11,12 -21,22 -30,32 -9,9 -16,17 -22,22 -5,6 -8,9 -8,9 0,0 -17,-2 -43,-4 -13,-2 -27,-3 -43,-5 -16,-1 -33,-5 -49,-7 -34,-5 -66,-10 -90,-16 -24,-6 -40,-9 -40,-9 -6,-2 -15,-4 -22,-4 l -1,-2 c 7,-4 14,-9 18,-14 0,0 13,-10 32,-26 19,-15 43,-37 66,-59 24,-21 46,-44 62,-61 16,-17 27,-28 27,-28 z m 506,-293 0,0 c 0,0 15,-4 38,-9 11,-3 24,-6 38,-10 14,-4 29,-9 44,-13 15,-5 31,-9 45,-14 14,-5 27,-10 38,-14 23,-8 38,-14 38,-14 6,-3 14,-6 20,-9 l 1,1 c -2,6 -4,15 -7,21 0,0 -5,16 -12,40 -4,12 -9,26 -14,41 -5,14 -11,30 -17,46 -6,16 -12,32 -18,46 -6,15 -13,29 -18,41 -11,23 -18,39 -18,39 0,0 -16,5 -41,11 -12,3 -27,6 -42,10 -16,4 -32,8 -49,11 -33,6 -65,12 -90,15 -24,3 -41,5 -41,5 -6,0 -15,2 -22,4 l -1,-1 c 5,-7 10,-14 12,-20 0,0 9,-14 21,-35 13,-21 28,-50 43,-78 7,-13 14,-28 20,-42 6,-13 12,-26 17,-36 5,-11 9,-20 11,-26 3,-7 4,-10 4,-10 z m 376,-449 0,0 c 0,0 13,-8 33,-21 10,-6 20,-14 32,-22 12,-9 25,-18 37,-28 7,-4 13,-9 19,-14 6,-5 12,-9 18,-14 12,-9 22,-18 32,-26 9,-8 17,-14 22,-19 5,-4 8,-7 8,-7 5,-5 11,-11 16,-16 l 2,1 c -1,6 0,16 0,22 0,0 1,5 1,12 0,7 1,17 1,30 0,12 1,27 1,43 0,8 0,16 1,24 0,8 -1,17 -1,25 0,17 -1,34 -2,50 0,16 -1,31 -2,44 -2,26 -4,43 -4,43 0,0 -14,10 -34,25 -22,14 -51,32 -79,50 -29,17 -58,33 -79,45 -11,6 -20,11 -27,14 -6,3 -10,5 -10,5 -6,2 -14,6 -20,11 l -1,-1 c 2,-7 5,-16 5,-22 0,0 1,-4 2,-11 1,-4 2,-8 3,-13 1,-5 2,-10 3,-16 4,-25 9,-56 13,-88 3,-32 7,-63 8,-87 1,-23 2,-39 2,-39 z m 200,-549 0,0 c 0,0 9,-13 23,-31 13,-19 31,-45 49,-71 9,-13 16,-27 24,-39 8,-13 15,-25 21,-36 6,-10 11,-19 15,-25 3,-6 5,-10 5,-10 3,-6 6,-14 9,-20 l 2,0 c 1,7 6,15 8,21 0,0 2,4 5,11 3,6 6,16 11,27 5,12 10,26 16,40 5,15 12,31 17,47 10,32 21,65 28,89 7,25 11,42 11,42 0,0 -9,14 -24,35 -7,11 -16,23 -26,35 -10,13 -20,26 -30,39 -5,7 -11,13 -16,20 -5,6 -10,12 -15,18 -11,12 -20,23 -28,32 -9,9 -15,17 -20,22 -2,3 -4,5 -6,6 -1,2 -2,3 -2,3 -5,4 -11,10 -15,16 l -1,0 c -1,-8 -1,-16 -3,-23 0,0 0,-1 -1,-2 0,-2 0,-5 -1,-9 -1,-7 -3,-17 -5,-29 -2,-12 -5,-26 -8,-41 -1,-7 -2,-15 -4,-22 -2,-8 -4,-16 -6,-24 -4,-15 -7,-31 -11,-45 -2,-7 -4,-14 -5,-21 -2,-6 -4,-12 -6,-18 -7,-23 -11,-37 -11,-37 z"
         id="path10"
         style="fill:#004f96;fill-rule:nonzero;stroke:#373435;stroke-width:3" />
    </g>
  </g>
</svg>
