

<svg
   xmlns:dc="http://purl.org/dc/elements/1.1/"
   xmlns:cc="http://creativecommons.org/ns#"
   xmlns:rdf="http://www.w3.org/1999/02/22-rdf-syntax-ns#"
   xmlns:svg="http://www.w3.org/2000/svg"
   xmlns="http://www.w3.org/2000/svg"
   version="1.1"
   width="99.995575"
   height="100.00441"
   viewBox="0 0 1111.062 1111.1601"
   id="svg2"
   xml:space="preserve"
   style="fill-rule:evenodd">


 <g
   transform="translate(-14563,-4499.7505)"
   id="Layer_x0020_1">
  <metadata
   id="CorelCorpID_0Corel-Layer" />
  <g
   id="_2572733305440">
   <g
   id="g11">
    <path
   d="m 18502,6494 c -1,31 -6,60 -16,86 17,16 30,35 41,56 23,-40 35,-90 36,-142 l -61,0 z m -105,629 0,0 c 10,-30 16,-60 14,-87 20,-10 39,-23 57,-40 7,44 5,96 -13,147 l -58,-20 z m -223,-360 0,0 c 4,-22 9,-42 17,-62 8,-19 18,-37 29,-53 10,18 23,35 39,50 -6,11 -11,23 -15,35 -2,7 -4,13 -5,20 -2,6 -3,13 -5,20 -5,26 -4,53 0,77 -20,10 -39,21 -54,36 -5,-20 -8,-40 -9,-60 -2,-21 -1,-42 3,-63 z m 302,50 0,0 c 5,-26 4,-52 1,-76 -4,-23 -9,-45 -19,-63 -20,-36 -49,-58 -82,-60 -20,-1 -38,4 -56,14 -13,-14 -22,-32 -28,-50 25,-16 55,-25 86,-24 50,1 97,30 126,79 30,49 44,117 32,190 -12,72 -48,132 -91,169 -45,36 -97,50 -145,35 -30,-10 -55,-29 -74,-52 11,-16 27,-29 43,-38 14,16 29,27 48,32 32,9 68,-3 97,-31 15,-14 28,-33 39,-54 10,-21 18,-45 23,-71 z m -368,211 0,0 c 5,-14 11,-28 18,-40 6,-13 13,-25 21,-36 8,-12 17,-22 26,-32 10,-9 19,-18 30,-26 41,-31 92,-48 141,-38 32,6 59,22 79,45 -12,18 -27,34 -43,44 -14,-15 -30,-26 -49,-30 -33,-8 -66,4 -96,28 -30,25 -53,61 -69,105 l -58,-20 z m 88,-530 0,0 c 0,30 4,58 13,85 7,26 18,51 33,72 16,22 32,41 53,55 20,14 43,24 69,27 31,5 62,-3 89,-18 -3,-11 -6,-21 -10,-30 -5,-9 -10,-18 -16,-25 -18,11 -37,16 -56,14 -34,-4 -63,-27 -82,-59 -19,-33 -33,-75 -31,-121 l -62,0 z"
   id="path13"
   style="fill:#353136" />
   </g>
   <g
   id="g15">
    <path
   d="m 18397,7123 c -5,15 -11,29 -18,42 -7,13 -16,24 -25,35 11,20 18,43 21,66 17,-15 32,-33 46,-54 7,-10 14,-21 19,-33 6,-11 11,-23 15,-36 l -58,-20 z m -304,561 0,0 c 10,-12 19,-25 25,-38 7,-13 13,-27 16,-40 23,-3 46,-9 67,-19 -3,23 -10,45 -20,68 -5,12 -11,23 -17,35 -7,11 -14,21 -23,32 l -48,-38 z m -93,-413 0,0 c 10,-19 22,-37 36,-53 14,-15 28,-29 44,-41 3,20 12,41 21,61 -19,16 -35,37 -47,62 -14,24 -23,48 -26,73 -22,3 -44,7 -63,16 4,-39 14,-81 35,-118 z m 269,146 0,0 c 12,-24 21,-48 25,-71 6,-23 5,-46 3,-66 -7,-40 -26,-71 -58,-84 -18,-7 -37,-8 -57,-5 -7,-17 -11,-38 -11,-57 29,-6 60,-5 90,6 47,18 80,60 93,116 6,28 7,59 2,92 -5,32 -17,65 -33,98 -19,32 -40,59 -64,82 -25,21 -52,38 -78,48 -54,20 -108,15 -148,-15 -26,-18 -43,-45 -54,-73 16,-11 36,-18 54,-21 7,19 19,35 35,45 28,20 64,19 101,2 38,-16 73,-51 100,-97 z m -417,80 0,0 c 19,-24 39,-44 62,-60 23,-16 46,-29 71,-37 50,-15 102,-15 146,11 28,16 48,39 60,68 -17,13 -36,23 -55,27 -8,-18 -20,-34 -36,-44 -29,-18 -65,-18 -100,-4 -18,7 -36,16 -53,29 -8,7 -16,14 -24,22 -8,8 -16,16 -23,25 l -48,-37 z m 256,-473 0,0 c -9,28 -15,56 -16,84 0,28 2,55 8,80 15,50 43,94 89,117 28,14 60,17 90,12 1,-22 0,-43 -7,-61 -21,4 -40,3 -57,-5 -31,-14 -51,-45 -58,-82 -5,-19 -6,-39 -5,-60 1,-11 3,-22 5,-32 2,-11 5,-22 9,-33 l -58,-20 z"
   id="path17"
   style="fill:#353136" />
   </g>
   <g
   id="g19">
    <path
   d="m 18093,7684 c -19,25 -41,45 -65,59 3,22 2,46 -2,69 41,-18 83,-48 115,-90 l -48,-38 z m -469,433 0,0 c 27,-17 48,-39 64,-61 23,5 46,7 70,4 -10,20 -25,39 -42,58 -16,18 -36,36 -59,50 l -33,-51 z m 45,-422 0,0 c 16,-15 33,-28 52,-38 18,-10 36,-19 55,-25 -4,20 -3,43 0,65 -23,9 -45,24 -65,43 -20,19 -37,38 -49,61 -21,-4 -43,-7 -64,-5 4,-9 9,-18 14,-27 5,-9 10,-18 16,-26 11,-18 26,-33 41,-48 z m 207,225 0,0 c 20,-18 36,-38 48,-59 12,-20 19,-41 23,-61 8,-40 -2,-76 -27,-98 -15,-13 -32,-20 -52,-23 -2,-19 1,-40 8,-58 30,4 59,15 83,35 39,32 56,82 50,140 -3,28 -13,58 -28,87 -7,15 -16,29 -27,42 -11,14 -23,27 -36,40 -27,25 -57,43 -87,57 -30,12 -61,19 -89,20 -28,2 -56,-4 -79,-15 -23,-10 -42,-26 -57,-46 -18,-26 -26,-57 -27,-87 10,-2 20,-4 29,-4 10,-1 20,-1 29,1 1,21 7,39 18,55 21,27 55,38 96,34 10,0 21,-2 31,-5 11,-3 22,-8 32,-13 21,-10 43,-24 62,-42 z m -420,-59 0,0 c 50,-33 105,-48 158,-48 13,0 26,2 38,4 13,3 25,6 36,10 23,10 44,24 60,43 21,24 33,53 35,84 -20,7 -42,10 -61,8 -1,-20 -7,-39 -20,-54 -21,-26 -56,-38 -93,-36 -19,1 -40,4 -60,11 -20,6 -39,17 -59,29 l -34,-51 z m 396,-364 0,0 c -9,11 -17,23 -24,36 -7,12 -14,25 -19,38 -5,13 -9,26 -11,39 -3,13 -6,26 -6,39 -2,26 0,52 8,76 7,24 19,45 37,64 22,22 51,36 82,40 8,-20 13,-41 13,-60 -21,-2 -39,-10 -53,-23 -25,-24 -33,-59 -28,-97 4,-38 21,-78 49,-115 l -48,-37 z"
   id="path21"
   style="fill:#353136" />
   </g>
   <g
   id="g23">
    <path
   d="m 17624,8117 c -26,16 -53,29 -81,34 -4,22 -13,44 -24,65 22,-2 46,-7 70,-14 23,-8 46,-20 68,-34 l -33,-51 z m -585,257 0,0 c 31,-8 59,-21 81,-37 20,12 41,20 65,26 -9,8 -18,15 -27,22 -10,8 -20,13 -31,19 -22,12 -47,22 -73,29 l -15,-59 z m 180,-385 0,0 c 20,-9 41,-14 61,-19 20,-4 41,-6 61,-5 -10,18 -17,39 -22,60 -6,1 -12,2 -18,3 -6,1 -13,2 -19,4 -13,3 -25,8 -38,13 -24,12 -47,25 -65,42 -19,-11 -39,-20 -59,-25 13,-14 28,-29 45,-41 16,-12 35,-22 54,-32 z m 123,280 0,0 c 25,-11 46,-24 64,-40 18,-15 32,-33 42,-50 21,-35 23,-73 6,-102 -9,-17 -24,-29 -42,-39 5,-18 14,-37 27,-51 27,13 51,33 67,60 27,43 27,96 2,148 -11,27 -30,50 -54,73 -24,24 -54,42 -87,57 -67,30 -137,33 -192,16 -27,-8 -51,-21 -69,-39 -19,-17 -32,-39 -39,-63 -8,-30 -6,-62 3,-90 19,1 39,6 55,15 -5,20 -6,39 0,58 10,32 39,54 79,64 20,5 42,6 66,3 23,-3 48,-8 72,-20 z m -378,-192 0,0 c 29,-7 58,-11 86,-9 27,1 54,6 79,15 24,10 46,21 65,38 19,16 34,36 44,60 11,29 13,60 5,90 -11,0 -22,-1 -32,-2 -10,-2 -19,-6 -28,-10 5,-19 5,-39 -1,-57 -12,-32 -41,-54 -77,-65 -9,-3 -19,-5 -29,-6 -10,-2 -20,-3 -31,-3 -21,-1 -43,3 -66,8 l -15,-59 z m 492,-216 0,0 c -25,16 -46,36 -64,56 -18,21 -32,45 -42,69 -20,47 -24,101 -2,147 14,28 36,50 64,64 14,-16 26,-34 32,-52 -19,-9 -34,-23 -43,-40 -8,-15 -10,-31 -9,-48 0,-9 2,-17 4,-26 2,-9 6,-18 10,-26 8,-18 19,-35 34,-50 14,-15 30,-31 50,-43 l -34,-51 z"
   id="path25"
   style="fill:#353136" />
   </g>
   <g
   id="g27">
    <path
   d="m 17039,8374 c -30,7 -60,9 -87,6 -12,19 -26,37 -44,53 21,5 45,10 70,9 25,0 51,-3 76,-9 l -15,-59 z m -636,52 0,0 c 32,2 62,0 89,-9 14,18 32,33 52,46 -20,9 -43,16 -68,21 -25,4 -51,4 -78,3 l 5,-61 z m 295,-305 0,0 c 11,-1 22,-1 33,0 11,0 21,0 31,2 21,2 41,8 59,15 -15,13 -28,31 -40,49 -12,-3 -24,-5 -37,-5 -13,-1 -27,-1 -41,0 -27,2 -52,9 -75,18 -14,-17 -30,-32 -47,-43 17,-10 36,-18 55,-24 20,-5 41,-11 62,-12 z m 25,305 0,0 c 14,-1 27,-3 39,-6 12,-3 24,-7 35,-11 22,-9 41,-21 56,-34 31,-28 45,-61 39,-95 -4,-19 -13,-35 -27,-50 11,-16 25,-30 42,-40 21,21 37,47 44,79 5,24 4,49 -4,73 -8,24 -22,47 -42,67 -10,11 -22,20 -34,29 -13,9 -27,16 -42,23 -30,13 -64,23 -101,26 -18,1 -36,1 -53,0 -17,-1 -34,-5 -50,-9 -31,-9 -60,-21 -83,-39 -46,-34 -71,-81 -69,-131 2,-32 14,-61 32,-85 18,7 35,19 48,33 -12,16 -19,34 -20,54 0,17 5,33 14,48 5,7 11,14 17,21 7,6 15,12 23,17 18,11 38,19 61,25 24,6 49,6 75,5 z m -295,-305 0,0 c 15,1 30,3 44,7 14,4 27,7 40,12 26,10 50,25 70,40 41,32 69,77 71,128 2,32 -7,61 -24,87 -20,-8 -39,-17 -53,-31 11,-17 18,-35 17,-54 0,-17 -5,-33 -14,-48 -5,-7 -10,-14 -16,-20 -6,-7 -13,-13 -21,-19 -15,-11 -34,-21 -54,-27 -20,-7 -41,-13 -65,-14 l 5,-61 z m 536,-44 0,0 c -29,7 -55,19 -79,33 -23,13 -44,31 -62,51 -35,38 -56,86 -50,137 4,31 18,59 40,82 19,-11 36,-23 47,-39 -15,-14 -24,-32 -27,-51 -5,-33 10,-67 37,-94 13,-14 30,-25 48,-36 18,-10 39,-18 61,-24 l -15,-59 z"
   id="path29"
   style="fill:#353136" />
   </g>
   <g
   id="g31">
    <path
   d="m 16403,8426 c -15,-2 -30,-4 -44,-8 -14,-4 -28,-9 -40,-15 -17,15 -37,28 -59,37 18,12 40,23 63,31 12,4 24,8 37,11 12,2 25,4 38,5 l 5,-61 z m -618,-157 0,0 c 28,14 58,20 86,21 8,21 19,42 35,60 -23,3 -47,2 -72,-2 -24,-5 -50,-11 -74,-23 l 25,-56 z m 377,-192 0,0 c 22,5 42,13 60,22 19,10 36,20 51,33 -19,8 -37,21 -54,35 -20,-14 -44,-24 -72,-31 -26,-6 -52,-9 -77,-7 -8,-19 -18,-40 -30,-56 9,-2 19,-3 29,-4 10,0 21,-1 31,-1 21,0 41,4 62,9 z m -75,297 0,0 c 26,6 52,8 76,7 23,-1 45,-7 64,-14 37,-16 62,-43 67,-77 3,-19 -1,-37 -9,-56 15,-11 33,-21 52,-25 14,27 20,57 17,89 -6,50 -38,92 -90,119 -25,12 -55,21 -88,24 -33,4 -68,0 -104,-8 -35,-9 -67,-24 -94,-42 -28,-18 -50,-40 -66,-63 -17,-23 -27,-49 -31,-74 -4,-25 -1,-50 8,-73 12,-30 33,-53 58,-70 7,6 13,14 19,22 6,7 11,16 15,24 -17,12 -29,27 -36,45 -12,32 -2,68 23,100 7,8 14,15 22,23 9,7 18,13 28,19 20,12 44,23 69,30 z m -180,-385 0,0 c 55,25 98,62 126,106 7,11 13,23 18,35 5,11 9,23 11,35 5,24 5,50 -3,74 -8,30 -26,56 -51,75 -17,-13 -31,-30 -40,-47 16,-12 28,-27 34,-45 10,-33 1,-68 -21,-99 -11,-15 -24,-31 -41,-44 -17,-13 -36,-23 -57,-34 l 24,-56 z m 521,132 0,0 c -29,-2 -58,-1 -85,5 -14,3 -27,7 -39,12 -13,4 -25,10 -36,16 -23,13 -43,29 -59,49 -16,19 -28,41 -33,66 -7,30 -2,62 11,90 21,-4 41,-11 57,-22 -9,-19 -13,-38 -9,-57 6,-33 31,-60 65,-76 17,-9 37,-16 57,-19 11,-2 21,-3 32,-3 12,-1 23,-1 34,0 l 5,-61 z"
   id="path33"
   style="fill:#353136" />
   </g>
   <g
   id="g35">
    <path
   d="m 15785,8269 c -15,-6 -28,-13 -40,-21 -13,-8 -24,-17 -33,-27 -21,8 -44,13 -68,14 14,18 31,36 50,51 19,16 42,28 66,39 l 25,-56 z m -535,-349 0,0 c 24,22 50,37 75,48 1,23 5,45 14,68 -11,-3 -23,-6 -34,-10 -11,-5 -22,-10 -33,-16 -21,-12 -44,-26 -63,-45 l 41,-45 z m 420,-59 0,0 c 19,12 35,26 50,41 14,14 27,30 37,47 -20,1 -41,8 -62,15 -16,-18 -34,-37 -58,-52 -23,-14 -46,-26 -70,-32 -1,-22 -5,-43 -12,-63 20,4 40,8 59,15 20,8 38,18 56,29 z m -167,256 0,0 c 23,14 45,25 68,32 23,6 46,8 66,7 10,0 19,-2 28,-4 9,-3 18,-6 25,-11 16,-8 28,-21 35,-36 9,-17 12,-36 10,-56 18,-6 38,-8 58,-6 3,30 0,61 -14,90 -22,45 -66,74 -123,82 -29,5 -59,2 -91,-5 -33,-7 -65,-22 -96,-42 -61,-40 -102,-97 -117,-152 -4,-14 -7,-27 -8,-40 0,-14 0,-27 3,-39 4,-25 15,-48 31,-67 21,-24 49,-39 77,-47 9,17 16,36 18,54 -20,7 -37,17 -49,31 -21,27 -24,63 -10,102 6,20 18,38 33,57 15,18 33,36 56,50 z m -46,-422 0,0 c 22,21 41,42 55,67 14,24 25,48 30,74 12,51 8,103 -22,145 -18,26 -43,44 -73,53 -6,-9 -11,-18 -15,-27 -4,-10 -6,-20 -8,-29 20,-7 36,-17 48,-32 20,-28 23,-64 12,-101 -2,-9 -6,-18 -10,-27 -4,-9 -9,-18 -15,-27 -11,-18 -26,-35 -43,-51 l 41,-45 z m 450,294 0,0 c -27,-12 -55,-18 -82,-22 -27,-4 -55,-2 -80,1 -51,9 -98,35 -124,79 -17,27 -23,58 -19,89 21,3 42,3 61,-2 -3,-21 0,-40 10,-57 17,-30 48,-46 86,-51 19,-3 40,-3 60,1 21,3 43,9 64,18 l 24,-56 z"
   id="path37"
   style="fill:#353136" />
   </g>
   <g
   id="g39">
    <path
   d="m 15250,7920 c -22,-21 -41,-45 -52,-70 -23,1 -46,-1 -69,-8 7,22 17,44 30,65 14,20 31,40 50,58 l 41,-45 z m -392,-503 0,0 c 16,28 35,51 55,69 -6,22 -9,45 -9,69 -39,-24 -73,-62 -100,-109 l 54,-29 z m 417,80 0,0 c 26,35 45,72 53,111 -19,-5 -41,-6 -63,-6 -4,-11 -10,-22 -16,-34 -6,-12 -14,-23 -22,-34 -9,-11 -18,-20 -27,-29 -9,-9 -19,-17 -30,-24 6,-21 10,-42 10,-63 17,9 35,20 51,33 8,7 15,14 22,22 8,7 15,15 22,24 z m -241,187 0,0 c 32,43 75,70 113,81 40,11 76,4 101,-19 14,-14 22,-31 27,-50 19,0 39,4 56,13 -6,30 -19,57 -41,80 -18,18 -40,30 -64,37 -24,6 -51,7 -79,1 -14,-3 -29,-7 -43,-12 -14,-6 -28,-14 -42,-23 -14,-8 -28,-19 -41,-30 -12,-12 -24,-25 -36,-40 -23,-28 -38,-60 -49,-91 -11,-31 -14,-62 -13,-91 2,-57 29,-104 72,-129 28,-16 59,-22 88,-20 4,19 4,39 -1,57 -20,0 -39,4 -55,14 -29,18 -44,52 -44,93 1,20 6,42 14,64 4,11 9,23 15,34 6,10 14,21 22,31 z m 93,-413 0,0 c 15,26 24,53 30,81 6,26 7,54 5,80 -5,51 -27,99 -68,129 -26,19 -55,28 -86,27 -5,-20 -8,-41 -4,-60 20,0 39,-5 55,-16 28,-18 43,-52 45,-90 1,-38 -8,-81 -31,-122 l 54,-29 z m 330,424 0,0 c -10,-10 -22,-19 -34,-27 -12,-8 -24,-15 -36,-21 -24,-13 -51,-20 -77,-24 -51,-9 -103,1 -142,33 -25,21 -40,48 -47,78 19,10 39,17 58,19 4,-21 14,-39 28,-51 13,-12 28,-19 45,-22 16,-3 35,-3 54,1 19,4 38,11 56,21 19,9 37,22 54,38 l 41,-45 z"
   id="path41"
   style="fill:#353136" />
   </g>
   <g
   id="g43">
    <path
   d="m 14858,7417 c -14,-28 -24,-56 -27,-83 -22,-7 -43,-17 -63,-30 -1,45 12,95 36,142 l 54,-29 z m -207,-604 0,0 c 6,31 15,60 30,83 -14,19 -24,40 -31,62 -14,-17 -27,-38 -38,-61 -9,-22 -16,-48 -21,-74 l 60,-10 z m 368,211 0,0 c 3,11 6,21 8,31 3,11 5,21 6,31 3,21 2,42 0,61 -17,-11 -37,-20 -58,-26 0,-12 -1,-25 -4,-38 -3,-13 -5,-26 -10,-39 -9,-26 -22,-49 -36,-68 12,-18 24,-37 30,-57 28,29 49,65 64,105 z m -289,99 0,0 c 4,13 9,25 14,36 7,12 13,22 20,31 14,20 30,35 47,47 34,22 70,28 101,14 18,-8 31,-22 42,-39 18,7 36,18 49,31 -15,26 -37,48 -65,62 -45,23 -99,19 -148,-10 -25,-14 -49,-34 -69,-60 -20,-26 -38,-57 -49,-92 -6,-17 -11,-34 -14,-51 -2,-18 -3,-35 -3,-51 0,-33 5,-63 17,-90 22,-53 60,-89 110,-99 31,-6 62,-1 91,10 -3,19 -10,38 -21,54 -19,-7 -38,-10 -57,-5 -32,7 -59,35 -71,73 -12,39 -12,89 6,139 z m 223,-360 0,0 c 9,59 2,115 -20,163 -21,47 -58,86 -107,101 -30,9 -61,8 -90,-3 2,-21 7,-42 17,-59 19,7 38,9 57,4 33,-9 56,-36 71,-71 8,-18 12,-38 14,-59 2,-21 2,-43 -3,-66 l 61,-10 z m 174,508 0,0 c -14,-26 -32,-49 -51,-69 -19,-19 -41,-35 -65,-47 -45,-25 -98,-33 -145,-15 -30,11 -53,32 -70,59 15,15 31,29 49,36 11,-18 25,-31 43,-39 31,-13 67,-7 100,13 32,19 64,50 85,91 l 54,-29 z"
   id="path45"
   style="fill:#353136" />
   </g>
   <g
   id="g47">
    <path
   d="m 14651,6813 c -1,-8 -2,-15 -3,-23 -1,-7 -1,-15 0,-22 0,-15 2,-29 4,-43 -18,-13 -36,-29 -49,-48 -9,21 -13,44 -15,69 -2,25 -2,51 3,77 l 60,-10 z m 0,-638 0,0 c -1,8 -2,16 -3,23 -1,8 -1,16 -1,23 1,15 2,29 5,42 -18,14 -36,30 -49,49 -9,-21 -13,-45 -15,-69 -2,-25 -2,-52 3,-78 l 60,10 z m 279,319 0,0 c 2,44 -10,85 -25,121 -13,-16 -31,-31 -47,-44 8,-23 12,-49 11,-77 1,-27 -3,-53 -12,-77 17,-12 35,-27 48,-43 15,35 27,77 25,120 z m -305,0 0,0 c 1,53 15,101 40,133 25,33 57,50 91,47 19,-2 36,-11 53,-23 7,6 14,13 20,21 6,7 12,15 16,24 -23,20 -51,33 -82,37 -25,4 -50,0 -73,-10 -23,-10 -46,-26 -64,-47 -18,-22 -34,-49 -46,-80 -10,-31 -16,-65 -17,-102 1,-37 7,-71 17,-102 12,-31 28,-58 46,-80 18,-21 41,-38 64,-48 23,-9 48,-13 73,-10 31,4 59,19 82,39 -5,8 -10,17 -17,24 -6,8 -12,15 -20,21 -16,-14 -33,-22 -52,-24 -34,-3 -66,14 -91,47 -25,32 -39,80 -40,133 z m 328,-269 0,0 c -10,59 -36,110 -71,148 -37,38 -82,62 -134,61 -31,-1 -60,-12 -85,-32 9,-20 21,-37 35,-50 16,13 34,21 53,22 34,2 66,-16 90,-44 12,-15 24,-32 33,-51 9,-20 14,-41 18,-64 l 61,10 z m 0,538 0,0 c -10,-59 -36,-110 -71,-148 -37,-38 -82,-63 -134,-61 -31,1 -60,13 -85,33 9,19 21,37 35,50 16,-14 34,-22 53,-23 34,-2 66,16 90,45 12,14 24,31 33,50 9,20 14,41 18,64 l 61,-10 z"
   id="path49"
   style="fill:#353136" />
   </g>
   <g
   id="g51">
    <path
   d="m 14651,6175 c 6,-30 15,-59 29,-83 -13,-18 -23,-39 -31,-62 -14,18 -26,39 -37,61 -9,23 -17,48 -21,74 l 60,10 z m 207,-604 0,0 c -15,28 -24,57 -28,84 -22,6 -42,17 -62,30 0,-22 1,-47 8,-71 6,-24 16,-48 28,-72 l 54,29 z m 161,393 0,0 c -15,41 -36,77 -65,105 -6,-19 -17,-38 -29,-56 14,-20 27,-43 36,-69 4,-13 7,-26 10,-39 2,-12 4,-25 4,-37 20,-7 40,-15 58,-27 2,20 2,41 0,61 -2,10 -4,21 -6,31 -2,10 -5,20 -8,31 z m -289,-100 0,0 c -18,51 -18,101 -6,140 12,38 39,65 71,73 19,4 38,2 57,-4 10,16 18,35 20,54 -28,11 -59,15 -90,9 -50,-10 -88,-46 -110,-99 -6,-13 -10,-28 -13,-43 -3,-15 -4,-31 -4,-47 0,-16 0,-33 3,-51 3,-17 8,-34 14,-52 11,-34 29,-65 49,-91 20,-26 44,-46 69,-60 49,-29 103,-33 148,-10 28,14 50,37 65,63 -14,13 -31,24 -49,30 -11,-18 -24,-31 -42,-39 -31,-14 -67,-8 -101,14 -17,12 -33,28 -47,47 -7,9 -14,20 -20,31 -5,11 -10,23 -14,35 z m 397,-147 0,0 c -14,26 -32,49 -51,69 -19,19 -41,35 -65,47 -45,25 -98,33 -145,15 -30,-12 -54,-32 -70,-58 15,-16 30,-29 49,-36 11,17 25,30 43,38 31,13 67,6 100,-13 32,-19 64,-50 85,-92 l 54,30 z m -174,508 0,0 c 9,-59 2,-115 -20,-163 -21,-47 -58,-86 -107,-101 -30,-9 -61,-7 -90,4 2,21 7,42 16,58 20,-7 39,-9 58,-4 33,9 56,36 71,71 8,18 12,38 14,59 2,21 2,43 -3,66 l 61,10 z"
   id="path53"
   style="fill:#353136" />
   </g>
   <g
   id="g55">
    <path
   d="m 14858,5571 c 15,-27 34,-51 55,-68 -7,-22 -10,-45 -9,-69 -39,24 -74,62 -100,108 l 54,29 z m 392,-503 0,0 c -23,22 -41,45 -53,70 -23,-1 -46,2 -69,8 7,-21 17,-43 31,-64 14,-21 30,-41 50,-59 l 41,45 z m 25,423 0,0 c -7,9 -14,17 -22,24 -7,8 -15,15 -23,22 -15,13 -33,24 -51,33 0,-20 -3,-42 -9,-63 10,-6 20,-14 29,-24 9,-9 19,-18 28,-29 16,-22 29,-45 37,-68 22,1 44,0 64,-6 -9,39 -27,77 -53,111 z m -241,-188 0,0 c -9,11 -16,21 -22,32 -6,12 -11,23 -16,34 -8,22 -13,44 -13,64 0,41 15,75 44,93 16,10 35,14 55,14 4,18 5,39 1,58 -30,1 -60,-5 -88,-21 -43,-25 -70,-73 -72,-129 -2,-29 2,-60 13,-91 11,-31 26,-63 49,-91 12,-15 24,-28 36,-40 13,-11 27,-21 41,-30 13,-9 28,-17 41,-23 15,-5 29,-9 43,-12 28,-6 55,-5 80,1 24,6 46,19 64,37 22,23 34,51 41,81 -18,8 -38,13 -57,13 -4,-20 -12,-38 -26,-51 -25,-23 -62,-30 -101,-19 -39,11 -81,38 -113,80 z m 423,-11 0,0 c -10,11 -22,20 -34,28 -12,8 -24,15 -36,21 -25,13 -51,20 -77,24 -51,9 -103,-1 -142,-34 -25,-20 -41,-46 -47,-77 19,-10 38,-17 57,-18 5,20 15,37 29,50 25,23 61,28 99,21 18,-4 37,-11 56,-21 19,-10 37,-22 54,-38 l 41,44 z m -330,425 0,0 c 15,-26 24,-53 29,-81 7,-26 8,-53 5,-80 -4,-51 -26,-100 -67,-130 -26,-18 -56,-27 -87,-26 -5,21 -8,42 -4,61 21,-1 40,3 56,14 28,19 43,53 44,91 2,38 -7,82 -30,121 l 54,30 z"
   id="path57"
   style="fill:#353136" />
   </g>
   <g
   id="g59">
    <path
   d="m 15250,5068 c 23,-22 49,-37 74,-47 1,-23 5,-46 14,-68 -11,2 -22,6 -34,10 -11,4 -22,9 -33,15 -21,12 -43,26 -62,45 l 41,45 z m 535,-350 0,0 c -15,7 -29,14 -41,22 -6,4 -12,9 -18,13 -5,5 -10,10 -15,15 -21,-9 -44,-14 -68,-15 14,-18 31,-35 50,-51 20,-16 42,-28 67,-40 l 25,56 z m -115,409 0,0 c -18,11 -37,22 -56,29 -20,7 -40,12 -59,15 6,-20 10,-41 11,-63 24,-6 47,-18 71,-32 23,-15 42,-33 57,-52 21,8 42,14 63,15 -11,17 -23,33 -38,47 -15,15 -30,29 -49,41 z m -167,-256 0,0 c -23,14 -41,32 -56,50 -15,19 -27,37 -34,57 -13,38 -10,75 11,101 12,15 29,25 48,32 -2,19 -8,37 -18,55 -28,-8 -55,-24 -76,-48 -16,-19 -27,-42 -31,-67 -3,-12 -4,-26 -3,-39 1,-13 3,-27 7,-40 16,-55 57,-112 119,-152 30,-20 62,-35 94,-42 32,-7 63,-10 92,-6 57,9 101,37 123,83 14,28 17,60 13,90 -19,2 -40,0 -58,-6 3,-21 0,-40 -9,-57 -7,-15 -19,-27 -35,-35 -7,-5 -16,-8 -25,-11 -9,-2 -18,-4 -29,-4 -20,-1 -42,1 -65,7 -23,7 -46,18 -68,32 z m 404,127 0,0 c -27,13 -55,19 -82,23 -27,4 -55,2 -81,-2 -50,-9 -97,-35 -123,-78 -17,-27 -23,-57 -20,-88 21,-3 42,-4 61,1 -2,21 1,40 11,57 17,30 48,45 86,51 19,3 39,3 60,-1 21,-3 43,-9 64,-19 l 24,56 z m -450,294 0,0 c 22,-20 41,-42 54,-66 15,-24 25,-48 31,-74 6,-26 8,-51 5,-76 -4,-24 -12,-48 -27,-69 -18,-26 -44,-43 -74,-53 -6,9 -11,18 -15,28 -3,9 -6,19 -8,29 21,5 37,16 49,31 20,27 23,64 12,100 -3,10 -6,19 -11,28 -4,9 -8,18 -14,27 -11,18 -26,35 -43,51 l 41,44 z"
   id="path61"
   style="fill:#353136" />
   </g>
   <g
   id="g63">
    <path
   d="m 15785,4718 c 27,-13 57,-19 85,-20 8,-21 19,-42 34,-60 -22,-3 -46,-1 -71,3 -24,4 -49,10 -73,21 l 25,56 z m 618,-156 0,0 c -16,1 -31,3 -45,7 -15,4 -28,10 -40,16 -18,-15 -37,-28 -60,-37 19,-13 41,-23 64,-31 12,-4 24,-8 37,-11 13,-2 26,-4 39,-5 l 5,61 z m -241,348 0,0 c -21,6 -42,9 -63,10 -10,0 -21,-1 -31,-1 -10,-1 -20,-2 -29,-4 12,-16 22,-37 30,-56 25,2 51,-1 78,-8 27,-6 51,-16 71,-30 17,14 35,27 54,35 -15,13 -32,23 -51,33 -18,9 -38,17 -59,21 z m -75,-296 0,0 c -26,7 -49,17 -69,29 -10,7 -20,13 -28,20 -8,8 -16,15 -22,23 -26,32 -35,67 -23,99 7,18 19,33 35,46 -4,8 -9,17 -15,24 -6,8 -12,16 -19,22 -25,-17 -45,-40 -57,-70 -9,-23 -12,-48 -8,-73 4,-25 14,-51 30,-74 17,-23 39,-45 66,-64 28,-17 60,-32 95,-41 36,-8 71,-12 104,-9 32,4 62,12 88,25 51,26 84,69 90,119 3,31 -4,62 -18,89 -19,-5 -37,-14 -52,-25 9,-19 13,-38 10,-57 -5,-34 -30,-60 -67,-76 -19,-8 -41,-14 -65,-14 -23,-1 -49,1 -75,7 z m 341,253 0,0 c -30,1 -58,1 -85,-5 -14,-3 -27,-8 -40,-12 -12,-5 -24,-10 -36,-16 -22,-13 -43,-30 -58,-49 -16,-19 -28,-41 -33,-66 -7,-31 -3,-62 10,-90 21,4 41,11 57,22 -8,19 -12,38 -8,57 6,33 31,60 65,76 17,9 36,15 57,19 10,2 21,3 32,3 11,1 23,1 34,0 l 5,61 z m -521,131 0,0 c 55,-24 98,-61 126,-105 14,-23 24,-47 29,-71 5,-24 4,-49 -3,-73 -8,-31 -27,-56 -53,-75 -16,13 -30,30 -39,47 17,12 29,27 35,45 10,32 1,68 -21,99 -11,15 -25,31 -41,43 -17,14 -36,24 -57,34 l 24,56 z"
   id="path65"
   style="fill:#353136" />
   </g>
   <g
   id="g67">
    <path
   d="m 16403,4562 c 31,-2 61,-1 87,8 15,-17 33,-32 53,-45 -21,-9 -44,-16 -68,-21 -24,-5 -50,-5 -77,-3 l 5,61 z m 636,52 0,0 c -31,-7 -61,-9 -88,-6 -12,-20 -27,-37 -45,-53 22,-6 46,-10 71,-10 25,1 51,4 77,10 l -15,59 z m -341,253 0,0 c -22,-2 -42,-7 -62,-12 -20,-6 -39,-14 -56,-24 17,-11 33,-27 47,-43 23,9 48,16 76,18 14,1 27,0 40,0 13,-1 25,-3 37,-6 12,19 25,36 40,50 -18,7 -38,12 -59,15 -10,1 -20,2 -31,2 -10,1 -21,1 -32,0 z m 25,-305 0,0 c -26,-2 -52,-1 -75,5 -23,5 -44,14 -61,24 -9,6 -16,11 -23,18 -7,6 -12,14 -17,21 -9,15 -14,31 -14,48 1,19 8,37 18,54 -12,14 -29,26 -47,33 -18,-25 -29,-54 -31,-85 -2,-51 23,-97 69,-132 23,-18 51,-29 83,-38 16,-4 32,-8 50,-9 17,-1 35,-1 53,0 37,2 71,12 101,25 15,7 29,14 41,23 13,9 24,19 34,29 20,21 35,43 43,67 8,24 9,50 4,74 -7,31 -24,57 -45,78 -17,-9 -31,-24 -42,-39 15,-15 24,-32 28,-51 6,-33 -9,-67 -39,-94 -15,-14 -35,-25 -57,-34 -11,-4 -22,-8 -34,-11 -13,-3 -25,-5 -39,-6 z m 241,348 0,0 c -29,-6 -55,-18 -79,-32 -24,-14 -45,-31 -62,-51 -35,-38 -56,-87 -50,-137 4,-32 17,-60 39,-82 18,10 35,22 47,38 -14,15 -23,32 -26,51 -5,34 10,67 36,94 14,14 30,25 48,36 19,11 40,19 62,24 l -15,59 z m -536,-43 0,0 c 15,-1 30,-4 43,-7 14,-4 28,-7 41,-12 26,-10 49,-25 70,-40 40,-32 69,-78 71,-128 2,-32 -8,-62 -26,-87 -20,7 -38,17 -52,30 12,18 19,36 18,55 0,17 -5,33 -14,47 -5,8 -10,14 -16,21 -7,7 -14,13 -21,18 -16,12 -34,21 -54,28 -20,6 -42,12 -65,14 l 5,61 z"
   id="path69"
   style="fill:#353136" />
   </g>
   <g
   id="g71">
    <path
   d="m 17039,4614 c 30,8 58,21 80,36 20,-12 41,-20 64,-25 -8,-8 -17,-16 -26,-23 -10,-7 -20,-13 -31,-19 -22,-12 -46,-22 -72,-28 l -15,59 z m 585,257 0,0 c -27,-17 -54,-30 -82,-35 -4,-22 -13,-44 -24,-65 22,2 46,7 70,14 23,8 46,20 69,35 l -33,51 z m -405,127 0,0 c -20,-9 -38,-19 -55,-31 -17,-13 -32,-27 -45,-41 20,-6 40,-15 59,-26 18,18 41,30 66,42 12,6 25,10 37,13 13,3 25,6 38,7 4,21 11,43 21,60 -20,1 -40,-1 -60,-5 -21,-4 -41,-10 -61,-19 z m 123,-280 0,0 c -24,-11 -49,-17 -73,-20 -23,-2 -45,-2 -65,3 -40,10 -69,33 -79,65 -6,18 -6,38 -1,57 -16,9 -36,14 -55,16 -9,-29 -10,-60 -2,-90 7,-25 20,-46 39,-63 9,-9 20,-17 31,-24 12,-6 24,-11 38,-16 54,-17 124,-13 192,16 33,15 63,34 86,57 24,23 43,47 55,73 24,53 25,106 -2,149 -16,27 -41,47 -68,60 -13,-15 -22,-34 -26,-52 18,-9 33,-21 42,-38 17,-29 14,-67 -6,-102 -10,-18 -24,-35 -42,-51 -18,-16 -40,-29 -64,-40 z m 114,409 0,0 c -25,-16 -46,-37 -64,-57 -18,-21 -32,-45 -42,-68 -21,-48 -24,-101 -2,-147 14,-29 35,-51 63,-65 14,17 26,34 32,52 -18,10 -33,23 -42,40 -8,15 -11,32 -10,49 1,8 2,17 5,25 2,9 5,18 9,27 8,17 20,34 34,49 15,16 31,31 51,44 l -34,51 z m -492,-217 0,0 c 29,8 58,11 86,9 27,0 54,-5 78,-15 25,-9 47,-21 66,-37 19,-16 34,-36 44,-60 11,-29 12,-61 3,-91 -10,0 -21,1 -31,3 -10,2 -20,5 -28,9 6,20 6,39 0,57 -12,32 -41,55 -78,66 -9,2 -18,4 -28,6 -10,1 -21,2 -31,3 -21,0 -43,-3 -66,-9 l -15,59 z"
   id="path73"
   style="fill:#353136" />
   </g>
   <g
   id="g75">
    <path
   d="m 17624,4871 c 26,16 47,38 63,60 22,-5 46,-7 70,-4 -10,-20 -25,-39 -41,-58 -17,-18 -36,-35 -59,-49 l -33,51 z m 469,432 0,0 c -10,-12 -20,-24 -31,-34 -11,-10 -23,-18 -35,-25 3,-23 2,-46 -2,-70 41,18 84,49 116,92 l -48,37 z m -424,-11 0,0 c -16,-15 -30,-30 -42,-47 -6,-9 -11,-18 -16,-27 -5,-9 -9,-18 -13,-27 20,2 43,-1 64,-5 11,23 28,42 49,62 19,18 41,32 64,42 -3,22 -3,44 0,65 -19,-6 -37,-15 -55,-25 -18,-10 -35,-23 -51,-38 z m 207,-224 0,0 c -19,-19 -41,-32 -62,-43 -11,-5 -21,-9 -32,-12 -11,-3 -21,-5 -31,-6 -41,-4 -75,8 -96,35 -11,15 -17,34 -19,54 -9,2 -19,2 -28,1 -10,0 -20,-2 -29,-4 0,-30 9,-60 27,-86 15,-21 34,-36 57,-47 23,-10 50,-16 79,-15 28,1 59,8 89,21 29,13 60,32 87,57 13,12 25,25 36,39 10,14 20,28 27,42 15,30 25,59 28,87 6,58 -11,108 -50,140 -24,21 -54,31 -84,35 -7,-18 -9,-39 -8,-58 21,-2 38,-9 53,-22 25,-23 35,-59 27,-98 -4,-20 -12,-42 -23,-62 -13,-20 -29,-40 -48,-58 z m -24,423 0,0 c -9,-12 -17,-24 -24,-37 -8,-12 -14,-25 -19,-37 -5,-13 -9,-27 -12,-40 -3,-13 -5,-26 -6,-39 -2,-26 1,-51 9,-75 7,-24 19,-46 37,-64 22,-22 51,-37 81,-41 8,20 13,41 13,60 -20,3 -38,11 -52,24 -25,24 -33,58 -29,96 4,39 22,78 50,116 l -48,37 z m -396,-364 0,0 c 50,32 105,48 157,47 13,0 26,-1 39,-4 12,-2 24,-5 36,-10 23,-9 44,-23 60,-42 21,-24 32,-54 34,-85 -20,-7 -42,-10 -61,-8 0,21 -6,39 -19,54 -21,27 -56,38 -94,36 -18,-1 -39,-3 -59,-10 -20,-7 -40,-17 -59,-29 l -34,51 z"
   id="path77"
   style="fill:#353136" />
   </g>
   <g
   id="g79">
    <path
   d="m 18093,5303 c 9,12 18,25 25,38 7,13 12,26 16,40 22,2 45,8 67,18 -3,-22 -11,-45 -20,-68 -5,-11 -11,-22 -17,-34 -7,-10 -15,-21 -23,-31 l -48,37 z m 304,561 0,0 c -5,-15 -11,-29 -18,-42 -8,-13 -16,-25 -25,-35 10,-21 18,-43 21,-67 17,15 32,34 46,55 7,10 13,21 19,33 6,11 11,24 15,36 l -58,20 z m -397,-147 0,0 c -22,-39 -32,-80 -35,-119 19,8 41,13 62,16 4,25 13,49 27,73 12,24 28,45 47,62 -10,19 -18,40 -21,61 -31,-24 -61,-55 -80,-93 z m 269,-146 0,0 c -27,-47 -62,-82 -100,-98 -37,-17 -73,-17 -101,2 -16,11 -28,27 -36,45 -18,-3 -38,-11 -53,-21 10,-29 28,-54 54,-73 40,-29 94,-34 148,-15 26,11 53,27 78,49 24,22 45,50 64,82 16,32 28,65 33,98 5,32 4,63 -2,91 -13,57 -46,99 -93,117 -30,11 -61,11 -90,5 -1,-20 4,-40 11,-57 20,4 39,3 57,-4 32,-14 51,-44 57,-85 7,-40 -3,-89 -27,-136 z m -161,393 0,0 c -9,-29 -15,-57 -16,-85 -1,-28 2,-54 8,-80 15,-50 43,-93 89,-116 28,-15 59,-19 90,-13 1,22 -1,43 -7,61 -21,-4 -40,-2 -57,6 -31,14 -51,45 -59,82 -4,18 -6,39 -4,60 1,10 3,21 5,32 2,11 5,22 9,33 l -58,20 z m -256,-473 0,0 c 19,23 39,44 62,59 23,16 46,29 71,37 50,16 102,16 146,-10 28,-16 48,-41 60,-70 -18,-12 -37,-22 -55,-27 -8,20 -20,35 -36,46 -29,18 -65,17 -100,3 -18,-6 -36,-16 -53,-29 -8,-6 -16,-13 -24,-21 -8,-8 -16,-16 -23,-25 l -48,37 z"
   id="path81"
   style="fill:#353136" />
   </g>
   <g
   id="g83">
    <path
   d="m 18397,5864 c 10,30 16,59 13,87 21,10 40,23 58,40 7,-45 5,-97 -13,-147 l -58,20 z m 105,630 0,0 c -1,-32 -6,-62 -16,-87 17,-16 30,-35 41,-56 23,39 35,89 36,143 l -61,0 z m -328,-269 0,0 c -4,-22 -5,-43 -3,-64 0,-21 4,-41 9,-60 15,14 34,26 53,36 -3,24 -4,50 1,78 2,6 3,13 5,19 1,7 3,13 5,19 4,13 8,24 14,35 -15,16 -28,33 -38,51 -11,-16 -22,-34 -29,-53 -8,-20 -13,-40 -17,-61 z m 302,-50 0,0 c -5,-26 -13,-51 -23,-72 -11,-21 -25,-39 -39,-53 -29,-29 -65,-40 -97,-31 -19,5 -35,16 -48,31 -17,-9 -32,-23 -44,-38 20,-23 45,-42 75,-51 48,-15 100,-2 145,34 43,37 79,97 91,170 12,72 -2,141 -32,189 -29,49 -76,78 -126,80 -31,1 -61,-9 -86,-25 6,-18 15,-36 28,-50 18,11 36,16 56,15 33,-2 62,-25 82,-61 10,-18 15,-40 19,-63 3,-24 4,-49 -1,-75 z m -280,319 0,0 c 0,-30 4,-59 13,-85 7,-27 18,-51 33,-73 30,-43 71,-75 122,-82 31,-4 62,2 89,18 -3,10 -6,20 -10,29 -5,10 -10,18 -17,26 -17,-10 -36,-15 -55,-13 -34,3 -63,26 -82,58 -19,33 -33,75 -31,122 l -62,0 z m -88,-530 0,0 c 5,14 11,27 17,40 7,12 14,24 22,36 16,22 36,41 56,57 41,32 92,48 141,39 32,-7 58,-23 78,-47 -12,-17 -26,-33 -42,-43 -14,16 -30,27 -49,31 -33,8 -66,-5 -96,-29 -30,-24 -54,-61 -69,-104 l -58,20 z"
   id="path85"
   style="fill:#353136" />
   </g>
  </g>
 </g>
</svg>