<?xml version="1.0" encoding="UTF-8" standalone="no"?>
<!-- Created with Inkscape (http://www.inkscape.org/) -->

<svg
   xmlns:dc="http://purl.org/dc/elements/1.1/"
   xmlns:cc="http://creativecommons.org/ns#"
   xmlns:rdf="http://www.w3.org/1999/02/22-rdf-syntax-ns#"
   xmlns:svg="http://www.w3.org/2000/svg"
   xmlns="http://www.w3.org/2000/svg"
   version="1.1"
   width="360.26999"
   height="359.37"
   viewBox="0 0 4002.9999 3992.9999"
   id="svg2"
   xml:space="preserve"
   style="fill-rule:evenodd"><metadata
   id="metadata14"><rdf:RDF><cc:Work
       rdf:about=""><dc:format>image/svg+xml</dc:format><dc:type
         rdf:resource="http://purl.org/dc/dcmitype/StillImage" /><dc:title></dc:title></cc:Work></rdf:RDF></metadata>
 <defs
   id="defs4">
  <style
   type="text/css"
   id="style6" />
 </defs>
 <g
   transform="translate(-5588.5,-9089.5)"
   id="Layer_x0020_1">
  <metadata
   id="CorelCorpID_0Corel-Layer" />
  <path
   d="m 6582,9349 c 1,0 36,10 69,19 32,9 75,23 116,38 41,15 81,32 110,45 15,6 27,12 35,16 9,4 14,6 14,6 0,0 7,-19 18,-49 6,-15 13,-34 21,-52 8,-18 17,-38 27,-58 9,-20 19,-40 28,-59 10,-18 20,-35 28,-49 16,-30 28,-50 28,-50 0,0 5,3 13,8 9,5 21,12 36,21 14,9 31,19 48,31 18,11 36,23 54,36 36,26 70,51 95,72 25,21 41,35 41,35 0,0 12,-18 31,-44 19,-26 46,-60 74,-94 7,-8 14,-17 22,-25 7,-8 14,-16 21,-23 14,-16 27,-30 39,-42 12,-12 22,-22 29,-29 7,-8 11,-11 11,-11 0,0 16,16 40,40 23,25 53,56 81,91 14,17 28,34 41,50 6,8 12,15 17,23 6,7 11,14 16,21 19,26 31,44 31,44 0,0 16,-14 41,-35 25,-20 59,-46 95,-71 36,-26 74,-49 103,-67 14,-8 27,-16 35,-20 9,-5 14,-8 14,-8 0,0 11,20 28,49 8,15 17,32 27,50 9,19 19,39 28,59 9,20 18,40 26,58 8,19 15,37 21,52 12,30 19,50 19,50 0,0 4,-3 13,-7 8,-4 20,-9 35,-15 15,-7 32,-14 51,-22 19,-8 39,-16 60,-23 41,-14 84,-29 116,-38 32,-8 54,-14 54,-14 0,0 7,22 15,54 8,33 17,77 25,120 8,43 13,86 17,118 2,16 3,29 4,38 1,10 1,15 1,15 0,0 21,-4 53,-9 32,-5 74,-10 118,-14 44,-4 88,-6 122,-7 34,0 57,0 57,0 0,0 0,6 0,16 0,9 0,24 -1,41 0,34 -1,77 -6,122 -4,44 -8,86 -14,118 -5,32 -8,53 -8,53 0,0 5,0 14,1 9,1 23,1 39,3 32,4 75,10 118,17 43,8 87,17 120,25 32,8 54,14 54,14 0,0 -5,23 -14,55 -5,16 -10,35 -17,55 -6,20 -13,41 -21,61 -3,10 -7,21 -11,31 -3,10 -7,20 -11,29 -8,19 -15,37 -22,51 -6,15 -11,27 -15,35 -4,9 -7,14 -7,14 0,0 20,7 50,18 15,6 33,13 52,21 19,7 38,16 58,26 40,18 80,38 109,55 30,16 49,28 49,28 0,0 -2,5 -7,13 -5,9 -12,21 -21,36 -17,29 -41,66 -65,102 -26,37 -52,71 -72,96 -10,13 -19,23 -25,30 -6,7 -9,11 -9,11 0,0 17,12 44,31 27,19 60,45 94,74 34,28 66,58 91,81 24,23 50,51 50,51 0,0 -26,26 -50,49 -25,23 -57,53 -91,81 -34,29 -67,55 -94,74 -27,19 -44,30 -44,30 0,0 3,5 9,12 6,7 15,17 25,30 20,25 46,59 72,95 24,36 48,74 65,103 10,15 16,27 21,35 5,9 8,14 8,14 0,0 -20,12 -50,28 -28,16 -69,37 -109,55 -20,9 -39,18 -58,26 -19,8 -36,15 -52,21 -30,11 -49,18 -49,18 0,0 2,5 6,13 4,9 9,21 16,35 6,15 13,32 21,51 4,10 8,20 12,30 3,10 7,20 11,30 14,41 29,85 37,117 9,32 14,54 14,54 0,0 -21,6 -54,15 -33,7 -77,17 -119,25 -44,7 -87,13 -119,16 -15,2 -29,3 -38,4 -10,0 -15,1 -15,1 0,0 4,21 9,52 5,33 10,75 14,119 4,44 5,88 6,122 0,17 0,31 0,41 0,10 0,16 0,16 0,0 -23,0 -56,-1 -34,-1 -78,-2 -122,-6 -44,-4 -87,-9 -119,-14 -32,-6 -52,-9 -52,-9 0,0 -1,5 -2,14 0,10 -1,23 -3,39 -4,31 -9,75 -17,118 -8,43 -17,87 -25,120 -9,32 -15,54 -15,54 0,0 -22,-6 -54,-15 -33,-8 -76,-23 -117,-37 -20,-7 -41,-15 -59,-23 -19,-8 -37,-15 -51,-22 -15,-6 -27,-12 -36,-15 -8,-4 -13,-7 -13,-7 0,0 -7,20 -18,50 -6,15 -13,33 -21,52 -8,18 -17,38 -26,58 -9,20 -19,40 -29,59 -9,18 -18,35 -27,50 -16,29 -28,49 -28,49 0,0 -5,-3 -13,-8 -9,-4 -21,-12 -35,-20 -29,-18 -67,-41 -103,-67 -36,-25 -70,-51 -95,-71 -26,-21 -42,-35 -42,-35 0,0 -11,18 -30,44 -19,27 -46,60 -74,94 -28,35 -58,66 -82,91 -23,24 -39,40 -39,40 0,0 -4,-3 -11,-10 -7,-8 -17,-18 -29,-30 -12,-12 -25,-26 -39,-41 -14,-16 -29,-32 -43,-49 -29,-34 -55,-67 -74,-93 -20,-27 -31,-44 -31,-44 0,0 -16,14 -41,34 -25,21 -60,46 -96,72 -18,13 -36,26 -53,37 -18,11 -34,21 -49,30 -14,9 -26,16 -35,21 -9,5 -13,8 -13,8 0,0 -12,-20 -29,-49 -8,-15 -17,-32 -27,-50 -10,-19 -19,-39 -29,-59 -9,-20 -18,-39 -26,-58 -9,-18 -15,-36 -21,-51 -12,-30 -19,-50 -19,-50 0,0 -5,2 -13,6 -9,5 -21,10 -36,16 -29,13 -69,30 -110,45 -41,15 -84,29 -116,39 -32,9 -68,17 -68,17 0,0 -6,-19 -9,-28 -2,-10 -6,-23 -10,-40 -8,-33 -17,-76 -25,-119 -7,-44 -13,-87 -16,-118 -3,-32 -4,-54 -4,-54 0,0 -21,4 -53,9 -8,1 -17,3 -26,4 -9,1 -19,2 -29,3 -20,3 -42,5 -64,7 -44,4 -88,5 -122,5 -17,1 -31,1 -41,1 -10,0 -15,0 -15,0 0,0 0,-23 0,-57 1,-17 1,-36 2,-57 1,-21 3,-43 5,-65 2,-22 4,-44 7,-64 2,-20 5,-39 8,-55 5,-31 9,-52 9,-52 0,0 -6,0 -15,-1 -10,-1 -23,-2 -39,-4 -31,-4 -75,-9 -118,-17 -42,-8 -87,-18 -119,-26 -33,-8 -54,-15 -54,-15 0,0 5,-22 14,-54 9,-32 24,-75 38,-116 15,-41 32,-82 45,-111 12,-29 22,-48 22,-48 0,0 -20,-7 -50,-19 -15,-6 -33,-13 -51,-20 -19,-9 -39,-17 -58,-27 -20,-9 -40,-19 -59,-28 -18,-10 -35,-19 -50,-28 -29,-16 -49,-28 -49,-28 0,0 10,-19 28,-48 18,-29 41,-67 67,-103 26,-36 51,-70 71,-95 21,-25 35,-41 35,-41 0,0 -17,-12 -44,-31 -26,-19 -59,-46 -93,-74 -35,-28 -66,-58 -91,-82 -24,-23 -40,-40 -40,-40 0,0 16,-16 40,-39 25,-24 56,-54 91,-82 34,-28 67,-55 93,-74 27,-19 44,-31 44,-31 0,0 -14,-16 -35,-41 -20,-25 -46,-59 -71,-95 -26,-36 -49,-74 -67,-103 -18,-29 -28,-48 -28,-48 0,0 19,-12 49,-29 14,-8 31,-17 50,-27 18,-9 38,-19 58,-28 20,-10 40,-19 58,-27 19,-8 37,-15 52,-20 30,-12 50,-19 50,-19 0,0 -10,-19 -23,-48 -12,-30 -30,-70 -44,-111 -15,-41 -29,-84 -38,-116 -9,-33 -15,-55 -15,-55 0,0 22,-6 54,-14 33,-9 77,-18 120,-26 43,-8 87,-13 118,-17 32,-4 53,-5 53,-5 0,0 -4,-21 -9,-53 -2,-16 -5,-35 -8,-55 -2,-20 -4,-41 -6,-63 -2,-22 -4,-45 -5,-65 -1,-21 -2,-40 -2,-57 -1,-34 -1,-57 -1,-57 0,0 6,0 16,0 10,0 24,0 41,0 17,0 36,1 57,2 10,0 21,1 32,1 11,1 22,2 33,3 22,2 44,4 64,6 10,1 19,2 28,3 10,2 18,3 27,4 32,5 52,9 52,9 0,0 2,-21 5,-53 3,-32 9,-75 16,-119 8,-42 17,-86 25,-119 4,-17 8,-30 10,-40 3,-9 8,-29 8,-29 z m 301,212 c -5,-2 -9,-4 -14,-7 -10,-4 -20,-9 -31,-14 -34,-15 -69,-30 -105,-42 -26,-10 -54,-19 -81,-28 -6,28 -12,56 -17,84 -6,37 -11,75 -15,112 -2,16 -3,32 -4,48 l -6,111 -109,-20 c -17,-3 -34,-6 -51,-8 -8,-1 -15,-3 -23,-4 -9,-1 -18,-2 -27,-3 -21,-2 -41,-4 -61,-6 -11,-1 -21,-2 -31,-2 -10,-1 -20,-1 -30,-2 -3,0 -7,0 -10,0 0,3 0,7 0,10 1,20 3,41 5,61 2,20 4,40 6,61 2,17 5,34 8,51 2,16 5,33 8,50 l 21,109 -111,6 c -16,1 -32,3 -47,5 -37,4 -75,9 -112,16 -23,4 -47,9 -71,14 8,23 16,46 24,68 12,36 27,70 42,105 6,14 13,29 20,43 l 51,100 -106,36 c -15,6 -31,12 -47,18 -16,6 -32,12 -48,19 -19,8 -37,17 -55,25 -19,9 -37,18 -56,27 -2,1 -5,3 -8,4 13,20 25,40 39,59 22,30 44,61 68,90 10,13 21,26 32,39 l 73,82 -90,62 c -15,10 -29,20 -43,30 -30,22 -60,47 -88,70 -18,15 -36,31 -53,46 17,16 35,32 53,47 28,23 58,48 88,69 14,10 28,20 42,30 l 92,62 -74,83 c -11,13 -21,26 -32,38 -24,30 -46,60 -68,91 -13,19 -26,39 -39,58 3,2 6,3 9,5 18,9 36,18 55,27 18,8 37,17 55,25 16,7 32,13 48,19 16,6 32,12 49,18 l 103,38 -50,98 c -7,14 -13,29 -20,43 -14,34 -29,69 -42,105 -8,22 -16,45 -23,68 23,5 47,9 70,14 37,7 75,11 112,16 11,1 23,3 34,3 5,1 10,1 15,2 l 109,7 -20,108 c -3,16 -6,33 -9,50 -3,17 -5,34 -7,51 -3,20 -5,40 -7,61 -2,20 -3,40 -4,60 0,4 -1,7 -1,11 24,-1 47,-2 70,-5 21,-2 41,-3 62,-6 9,-1 18,-2 27,-3 8,-1 16,-2 24,-3 17,-3 33,-6 50,-9 l 109,-20 6,111 c 1,16 2,32 4,48 4,38 9,75 15,112 5,28 11,56 17,84 28,-9 55,-18 82,-27 35,-13 70,-28 105,-43 10,-5 20,-9 30,-14 5,-2 9,-5 14,-7 l 99,-49 36,104 c 6,16 12,32 18,47 6,16 12,32 19,48 8,18 17,37 25,55 9,19 18,37 27,55 2,3 3,6 5,9 3,-2 6,-4 9,-6 17,-10 33,-21 49,-33 31,-22 62,-44 90,-68 13,-11 26,-21 39,-33 l 83,-73 62,92 c 10,14 20,28 30,41 22,30 46,60 70,89 13,15 26,30 39,44 3,3 5,5 7,8 16,-17 32,-35 46,-53 24,-28 48,-58 70,-88 10,-14 20,-28 30,-43 l 62,-91 83,73 c 12,11 25,21 38,32 29,23 60,46 90,68 20,13 39,26 59,39 2,-3 3,-6 4,-8 10,-19 19,-38 27,-56 9,-18 17,-37 25,-55 7,-16 13,-32 19,-49 6,-16 12,-31 18,-47 l 36,-105 99,49 c 4,2 8,4 12,6 11,5 22,10 33,15 16,7 32,14 49,21 18,7 36,14 54,21 23,7 46,15 69,23 5,-24 10,-47 14,-70 7,-38 11,-75 16,-113 1,-11 2,-22 3,-34 0,-5 1,-9 1,-14 l 7,-109 108,19 c 17,3 34,6 51,9 37,6 75,10 112,14 23,2 47,3 70,4 -1,-23 -2,-47 -4,-70 -4,-37 -7,-75 -13,-112 -3,-17 -6,-34 -9,-51 l -20,-107 109,-8 c 5,0 10,0 14,-1 12,-1 23,-1 35,-3 38,-4 75,-9 113,-15 23,-5 46,-9 70,-14 -8,-23 -16,-46 -23,-68 -4,-10 -7,-19 -11,-29 -3,-9 -7,-18 -10,-27 -7,-16 -14,-32 -21,-48 -5,-12 -10,-23 -15,-35 -1,-3 -3,-5 -4,-8 0,-1 0,-1 -1,-1 l -49,-100 104,-36 c 16,-6 32,-12 48,-18 16,-6 33,-13 49,-19 19,-8 36,-16 54,-25 22,-9 43,-20 64,-31 -12,-20 -25,-39 -39,-59 -21,-31 -44,-61 -68,-91 -7,-9 -15,-18 -22,-27 -4,-4 -7,-8 -10,-12 l -68,-82 87,-61 c 15,-10 29,-20 43,-30 31,-21 60,-46 89,-69 22,-18 43,-37 63,-56 -20,-19 -41,-38 -63,-56 -29,-23 -58,-48 -89,-69 -14,-10 -28,-20 -42,-30 l -89,-60 69,-83 c 3,-4 6,-8 10,-12 7,-9 15,-18 22,-27 24,-30 47,-60 68,-91 14,-20 27,-40 39,-60 -21,-11 -42,-21 -64,-31 -18,-8 -36,-17 -54,-24 -16,-7 -33,-13 -50,-20 -15,-6 -31,-12 -47,-17 l -105,-36 50,-100 c 0,0 1,-1 1,-1 1,-3 2,-6 4,-8 5,-12 10,-23 15,-35 7,-16 14,-32 20,-48 4,-10 7,-19 11,-28 4,-9 7,-19 10,-28 7,-20 14,-40 20,-60 1,-3 2,-5 3,-8 -23,-5 -46,-10 -70,-14 -37,-7 -75,-11 -112,-16 -12,-1 -24,-2 -35,-3 -5,0 -9,0 -14,-1 l -109,-7 19,-107 c 3,-17 6,-35 9,-52 6,-37 10,-75 13,-112 2,-23 4,-46 5,-70 -24,1 -47,3 -71,5 -37,4 -75,7 -111,14 -17,2 -35,5 -52,8 l -107,20 -7,-108 c -1,-5 -1,-11 -1,-16 -1,-11 -2,-22 -4,-33 -4,-38 -9,-76 -16,-113 -4,-23 -9,-47 -14,-70 -23,7 -46,15 -68,23 -19,7 -37,14 -55,21 -16,7 -33,14 -49,21 -11,5 -22,9 -32,14 -4,2 -8,4 -12,6 l -99,50 -37,-105 c -5,-16 -11,-31 -17,-47 -6,-17 -13,-33 -20,-49 -7,-18 -16,-37 -24,-55 -9,-18 -18,-37 -27,-56 -2,-2 -3,-5 -5,-8 -19,13 -39,26 -58,39 -31,22 -61,45 -91,68 -13,11 -26,21 -38,32 l -83,73 -62,-92 c -10,-14 -20,-27 -29,-41 -5,-7 -10,-13 -15,-20 -5,-7 -11,-14 -16,-21 -13,-16 -26,-32 -39,-48 -15,-18 -31,-36 -46,-53 -3,3 -5,5 -7,8 -7,7 -14,14 -20,22 -7,7 -13,15 -20,23 -24,29 -48,58 -70,88 -10,14 -20,27 -29,41 l -62,92 -84,-73 c -12,-11 -25,-22 -38,-33 -29,-24 -60,-46 -90,-68 -16,-12 -33,-22 -50,-33 -3,-2 -5,-4 -8,-6 -2,3 -4,6 -5,9 -10,18 -18,36 -27,55 -9,18 -17,37 -25,56 -7,15 -13,31 -20,47 -6,16 -12,32 -18,48 l -37,103 -97,-49 z"
   id="path10"
   style="fill:#373435;fill-rule:nonzero;stroke:#373435;stroke-width:3" />
 </g>
</svg>