<?xml version="1.0" encoding="UTF-8" standalone="no"?>
<!-- Created with Inkscape (http://www.inkscape.org/) -->

<svg
   xmlns:dc="http://purl.org/dc/elements/1.1/"
   xmlns:cc="http://creativecommons.org/ns#"
   xmlns:rdf="http://www.w3.org/1999/02/22-rdf-syntax-ns#"
   xmlns:svg="http://www.w3.org/2000/svg"
   xmlns="http://www.w3.org/2000/svg"
   version="1.1"
   width="360"
   height="360"
   viewBox="0 0 4000 4000"
   id="svg2"
   xml:space="preserve"
   style="fill-rule:evenodd"><metadata
   id="metadata17"><rdf:RDF><cc:Work
       rdf:about=""><dc:format>image/svg+xml</dc:format><dc:type
         rdf:resource="http://purl.org/dc/dcmitype/StillImage" /><dc:title></dc:title></cc:Work></rdf:RDF></metadata>
 <defs
   id="defs4">
  <style
   type="text/css"
   id="style6" />
 </defs>
 <g
   transform="translate(-10070,-9086)"
   id="Layer_x0020_1">
  <metadata
   id="CorelCorpID_0Corel-Layer" />
  <g
   id="_2572815805488">
   <path
   d="m 12071,9086 c 551,0 1051,225 1413,586 363,362 586,862 586,1415 0,551 -223,1051 -586,1414 -362,362 -862,585 -1413,585 -553,0 -1053,-223 -1416,-585 -361,-363 -585,-863 -585,-1414 0,-553 224,-1053 585,-1415 363,-361 863,-586 1416,-586 z m 1278,721 c -327,-328 -780,-531 -1278,-531 -501,0 -953,203 -1280,531 -329,327 -531,780 -531,1280 0,499 202,951 531,1278 327,329 779,531 1280,531 498,0 951,-202 1278,-531 328,-327 531,-779 531,-1278 0,-500 -203,-953 -531,-1280 z"
   id="path11"
   style="fill:#212121;fill-rule:nonzero" />
   <path
   d="m 12071,9452 c 450,0 858,183 1154,479 296,296 479,704 479,1156 0,450 -183,858 -479,1154 -296,296 -704,479 -1154,479 -452,0 -860,-183 -1156,-479 -296,-296 -479,-704 -479,-1154 0,-452 183,-860 479,-1156 296,-296 704,-479 1156,-479 z m 1087,546 c -279,-278 -663,-450 -1087,-450 -426,0 -810,172 -1089,450 -278,279 -450,663 -450,1089 0,424 172,808 450,1087 279,278 663,450 1089,450 424,0 808,-172 1087,-450 278,-279 450,-663 450,-1087 0,-426 -172,-810 -450,-1089 z"
   id="path13"
   style="fill:#212121;fill-rule:nonzero" />
  </g>
 </g>
</svg>