<?xml version="1.0" encoding="UTF-8" standalone="no"?>
<!-- Created with Inkscape (http://www.inkscape.org/) -->

<svg
   xmlns:dc="http://purl.org/dc/elements/1.1/"
   xmlns:cc="http://creativecommons.org/ns#"
   xmlns:rdf="http://www.w3.org/1999/02/22-rdf-syntax-ns#"
   xmlns:svg="http://www.w3.org/2000/svg"
   xmlns="http://www.w3.org/2000/svg"
   version="1.1"
   width="360"
   height="360"
   viewBox="0 0 4000 4000"
   id="svg2"
   xml:space="preserve"
   style="fill-rule:evenodd">

<metadata
   id="metadata17"><rdf:RDF><cc:Work
       rdf:about=""><dc:format>image/svg+xml</dc:format><dc:type
         rdf:resource="http://purl.org/dc/dcmitype/StillImage" /><dc:title></dc:title></cc:Work></rdf:RDF></metadata>

 <g
   transform="translate(-14563,-9086)"
   id="Layer_x0020_1">
  <metadata
   id="CorelCorpID_0Corel-Layer" />
  <g
   id="_2572722833056">
   <path
   d="m 16562,9086 c 196,0 368,101 469,251 162,-79 361,-79 533,16 169,98 267,273 279,453 181,13 356,111 451,279 98,169 98,368 18,534 150,98 251,272 251,466 0,196 -101,367 -251,469 80,162 80,361 -18,533 -95,168 -270,267 -451,279 -12,181 -110,355 -279,450 -172,98 -371,98 -533,19 -101,150 -273,251 -469,251 -193,0 -368,-101 -466,-251 -166,79 -365,79 -533,-19 -169,-95 -267,-269 -279,-450 -181,-12 -356,-111 -454,-279 -95,-172 -95,-371 -15,-533 -150,-102 -252,-273 -252,-469 0,-194 102,-368 252,-466 -80,-166 -80,-365 15,-534 98,-168 273,-266 454,-279 12,-180 110,-355 279,-453 168,-95 367,-95 533,-16 98,-150 273,-251 466,-251 z m 0,313 c 165,0 312,82 395,211 138,-67 307,-67 451,16 141,79 227,226 236,380 153,9 297,92 380,236 83,144 83,312 15,447 129,86 212,233 212,396 0,165 -83,312 -212,395 68,138 68,306 -15,451 -83,141 -227,226 -380,236 -9,153 -95,297 -236,380 -144,82 -313,82 -451,15 -83,129 -230,211 -395,211 -163,0 -310,-82 -396,-211 -134,67 -303,67 -447,-15 -144,-83 -227,-227 -236,-380 -153,-10 -300,-95 -380,-236 -83,-145 -83,-313 -15,-451 -129,-83 -212,-230 -212,-395 0,-163 83,-310 212,-396 -68,-135 -68,-303 15,-447 80,-144 227,-227 380,-236 9,-154 92,-301 236,-380 144,-83 313,-83 447,-16 86,-129 233,-211 396,-211 z"
   id="path11"
   style="fill:#282929" />
   <path
   d="m 16562,9822 c 343,0 656,144 880,371 226,229 364,545 364,892 0,349 -138,665 -364,895 -224,226 -537,370 -880,370 -343,0 -653,-144 -880,-370 -224,-230 -362,-546 -362,-895 0,-347 138,-663 362,-892 227,-227 537,-371 880,-371 z m 834,420 c -215,-218 -509,-353 -834,-353 -325,0 -616,135 -831,353 -211,214 -343,515 -343,843 0,331 132,631 343,846 215,217 506,349 831,349 325,0 619,-132 834,-349 211,-215 343,-515 343,-846 0,-328 -132,-629 -343,-843 z"
   id="path13"
   style="fill:#282929;fill-rule:nonzero" />
  </g>
 </g>
</svg>