<?xml version="1.0" encoding="UTF-8" standalone="no"?>
<!-- Created with Inkscape (http://www.inkscape.org/) -->

<svg
   xmlns:dc="http://purl.org/dc/elements/1.1/"
   xmlns:cc="http://creativecommons.org/ns#"
   xmlns:rdf="http://www.w3.org/1999/02/22-rdf-syntax-ns#"
   xmlns:svg="http://www.w3.org/2000/svg"
   xmlns="http://www.w3.org/2000/svg"
   version="1.1"
   width="316.62598"
   height="316.62598"
   id="svg6016">
  <defs
     id="defs6018" />
  <metadata
     id="metadata6021">
    <rdf:RDF>
      <cc:Work
         rdf:about="">
        <dc:format>image/svg+xml</dc:format>
        <dc:type
           rdf:resource="http://purl.org/dc/dcmitype/StillImage" />
        <dc:title></dc:title>
      </cc:Work>
    </rdf:RDF>
  </metadata>
  <g
     transform="translate(-178.82987,-328.33491)"
     id="layer1">
    <g
       transform="translate(-37.85714,-45.714289)"
       id="layer1-7"
       style="fill:#000000;display:inline">
      <path
         d="m 375.10987,374.0492 c 37.06034,3.1e-4 70.97145,12.37823 101.73339,37.13379 12.15794,11.13307 20.43429,19.84889 24.82911,26.14746 21.09343,29.00413 31.64031,60.71796 31.64062,95.1416 -3.1e-4,37.35363 -12.45148,71.41122 -37.35352,102.17285 -10.98659,11.86528 -19.62916,19.99515 -25.92773,24.38965 -29.15062,21.09376 -60.86446,31.64062 -95.14161,31.64062 -40.57628,0 -76.90437,-14.4287 -108.98436,-43.28613 -13.76958,-14.35541 -22.92484,-26.00091 -27.46583,-34.93652 -14.50197,-25.3417 -21.75293,-51.04968 -21.75293,-77.12403 l 0,-5.93261 c 0,-27.09943 8.05664,-54.19901 24.16992,-81.29883 19.48238,-30.90793 47.46086,-52.88057 83.93554,-65.91797 16.6991,-5.41961 33.47154,-8.12957 50.3174,-8.12988 z m -148.31543,155.5664 0,5.49317 c -1e-5,27.97864 8.78904,55.29795 26.36719,81.958 10.6933,14.79498 23.65716,27.53911 38.89159,38.23243 25.92764,16.84572 53.53992,25.26856 82.83691,25.26855 39.69708,10e-6 74.70681,-14.57517 105.02931,-43.72559 28.85712,-30.17569 43.28582,-65.03894 43.28613,-104.58984 -3.2e-4,-39.55058 -14.57549,-74.48707 -43.7256,-104.80957 -30.32249,-28.85713 -65.18573,-43.28583 -104.58984,-43.28613 -37.35364,3e-4 -70.89851,13.18388 -100.63475,39.55078 -13.18365,13.33033 -21.38677,23.3645 -24.60939,30.10254 -15.23439,24.4631 -22.85157,49.73163 -22.85156,75.80566 z M 375.10987,399.7572 c 28.56425,2.9e-4 55.29764,9.08232 80.20019,27.2461 11.57201,9.52173 20.43431,18.60376 26.58691,27.24609 17.1384,24.31662 25.70772,50.31757 25.708,78.00293 -2.8e-4,26.66029 -7.83719,51.78233 -23.51073,75.36621 -12.89089,17.57819 -27.53931,30.90826 -43.94532,39.99024 -20.50802,11.57229 -42.33417,17.35842 -65.47852,17.35839 -22.11927,3e-5 -43.7257,-5.71286 -64.81933,-17.13867 -5.85945,-3.07612 -13.54988,-8.64253 -23.07129,-16.69922 -7.47077,-6.8847 -13.6231,-13.62297 -18.45702,-20.21484 -7.32427,-10.25382 -12.74419,-19.84853 -16.25978,-28.78418 -6.44534,-16.55261 -9.66799,-32.44615 -9.66797,-47.68066 l 0,-4.17481 c -2e-5,-25.04864 7.83688,-49.51151 23.51075,-73.38867 3.51557,-5.12672 9.37494,-11.93823 17.57812,-20.43457 10.25383,-9.08177 19.55558,-15.89329 27.90528,-20.43457 20.94714,-10.83956 42.18736,-16.25948 63.72071,-16.25977 z m -122.3877,131.39649 0,3.2959 c -4e-5,23.29114 7.32418,46.06944 21.97266,68.33496 3.66204,4.98055 9.00872,11.05964 16.04004,18.2373 7.17765,6.73835 14.42862,12.15826 21.75292,16.25977 19.6288,11.5723 40.42956,17.35843 62.40235,17.3584 30.17559,3e-5 57.34842,-10.40035 81.51856,-31.20118 9.8142,-9.5214 15.60033,-16.03995 17.35839,-19.55566 3.07592,-3.36905 7.03099,-9.8876 11.86524,-19.55566 7.76339,-17.13855 11.64523,-34.49693 11.64551,-52.0752 -2.8e-4,-28.12481 -9.44852,-54.19901 -28.34473,-78.22266 -17.57836,-20.21458 -38.81857,-33.54465 -63.7207,-39.99023 -10.25409,-2.63644 -20.3615,-3.9548 -30.32227,-3.95508 -25.92787,2.8e-4 -50.24425,7.98367 -72.94922,23.9502 -11.13288,8.93579 -20.06842,18.1643 -26.80664,27.68554 -14.94145,22.11935 -22.41214,45.26386 -22.41211,69.4336 z"
         id="path5953"
         style="font-size:450px;font-style:normal;font-variant:normal;font-weight:normal;font-stretch:normal;text-align:start;line-height:50%;letter-spacing:0px;word-spacing:0px;writing-mode:lr-tb;text-anchor:start;fill:#000000;fill-opacity:1;stroke:none;font-family:Two Letter Circle Monogram;-inkscape-font-specification:Two Letter Circle Monogram" />
    </g>
  </g>
</svg>
