<?xml version="1.0" encoding="UTF-8" standalone="no"?>
<!-- Created with Inkscape (http://www.inkscape.org/) -->

<svg
   xmlns:dc="http://purl.org/dc/elements/1.1/"
   xmlns:cc="http://creativecommons.org/ns#"
   xmlns:rdf="http://www.w3.org/1999/02/22-rdf-syntax-ns#"
   xmlns:svg="http://www.w3.org/2000/svg"
   xmlns="http://www.w3.org/2000/svg"
   version="1.1"
   width="357.66"
   height="360"
   id="svg3071">
  <defs
     id="defs3073" />
  <metadata
     id="metadata3076">
    <rdf:RDF>
      <cc:Work
         rdf:about="">
        <dc:format>image/svg+xml</dc:format>
        <dc:type
           rdf:resource="http://purl.org/dc/dcmitype/StillImage" />
        <dc:title></dc:title>
      </cc:Work>
    </rdf:RDF>
  </metadata>
  <g
     transform="translate(-101.17,-183.79075)"
     id="layer1">
    <g
       transform="matrix(0.09,0,0,0.09,-403.1,-220.66925)"
       id="Layer_x0020_1"
       style="fill-rule:evenodd">
      <metadata
         id="CorelCorpID_0Corel-Layer" />
      <g
         id="_2572733312128">
        <g
           id="g2994">
          <path
             d="m 8931,6781 c 0,0 6,-3 17,-9 10,-5 24,-14 42,-24 18,-11 39,-24 60,-38 22,-15 45,-31 68,-48 5,-5 11,-9 17,-13 5,-5 11,-9 16,-14 11,-9 22,-18 32,-26 21,-18 40,-35 56,-50 32,-31 53,-53 53,-53 0,0 20,22 50,57 15,17 32,38 50,61 8,11 17,23 27,36 4,6 9,12 14,18 4,7 8,13 13,20 17,26 35,52 51,78 16,26 29,50 41,72 12,21 22,40 29,53 6,13 9,20 9,20 0,0 -26,21 -64,51 -10,7 -21,15 -32,23 -12,8 -24,16 -36,25 -13,8 -26,17 -39,26 -13,8 -27,16 -40,24 -27,16 -54,32 -80,46 -26,13 -50,25 -70,34 -21,10 -38,18 -51,23 -12,5 -19,8 -19,8 0,0 -2,-7 -7,-20 -4,-12 -10,-29 -19,-50 -8,-20 -19,-44 -30,-68 -11,-25 -25,-51 -38,-76 -7,-12 -13,-25 -20,-37 -7,-12 -14,-23 -21,-34 -7,-11 -14,-22 -20,-32 -7,-10 -13,-19 -19,-28 -24,-34 -40,-55 -40,-55"
             id="path2996" />
          <path
             d="m 8704,7287 c 0,0 27,-2 68,-7 21,-2 44,-6 70,-11 13,-2 27,-4 40,-7 14,-3 27,-6 41,-10 14,-3 28,-6 42,-10 7,-2 13,-4 20,-5 7,-2 13,-4 20,-6 26,-8 50,-16 71,-24 21,-7 38,-14 50,-19 12,-5 19,-7 19,-7 0,0 3,7 7,19 4,13 11,31 17,53 6,21 13,47 20,76 2,7 4,14 6,21 1,8 3,15 5,22 3,15 6,31 9,46 3,16 6,31 8,47 3,15 5,31 7,46 4,29 7,58 9,82 4,49 5,82 5,82 0,0 -8,2 -22,6 -13,4 -34,9 -58,14 -24,6 -51,12 -81,17 -30,5 -61,10 -92,14 -31,5 -63,7 -92,9 -14,1 -28,2 -41,3 -13,0 -26,1 -37,1 -23,0 -42,1 -55,1 -7,-1 -12,-1 -15,-1 -4,0 -6,0 -6,0 0,0 1,-2 1,-5 0,-4 0,-9 1,-15 0,-13 1,-32 2,-54 0,-11 1,-23 1,-36 0,-12 0,-26 -1,-39 -1,-28 -1,-56 -4,-84 -2,-29 -5,-57 -9,-83 -3,-25 -8,-50 -11,-70 -4,-20 -7,-36 -10,-48 -3,-12 -5,-18 -5,-18"
             id="path2998" />
          <path
             d="m 8293,7659 c 0,0 6,3 17,6 12,5 28,10 47,15 20,6 43,13 69,19 25,6 53,12 81,17 7,1 14,2 21,4 7,1 14,2 21,3 14,2 28,4 41,5 14,2 27,3 40,5 12,1 24,2 35,3 44,2 74,3 74,3 0,0 -2,30 -7,75 -2,12 -3,24 -5,37 -2,13 -4,27 -7,41 -2,14 -5,29 -8,44 -1,8 -3,16 -4,23 -2,8 -4,16 -6,23 -7,31 -15,62 -23,91 -8,29 -17,56 -25,79 -8,23 -14,43 -20,56 -5,14 -8,21 -8,21 0,0 -33,-4 -81,-13 -24,-5 -52,-11 -81,-17 -15,-4 -30,-7 -45,-11 -15,-5 -31,-9 -46,-14 -60,-17 -119,-39 -160,-56 -22,-8 -39,-17 -51,-22 -12,-5 -19,-9 -19,-9 0,0 4,-6 10,-18 6,-11 14,-28 24,-48 18,-41 42,-93 60,-147 5,-14 9,-27 13,-40 5,-13 8,-27 12,-39 7,-26 13,-49 17,-69 9,-40 14,-67 14,-67"
             id="path3000" />
        </g>
        <g
           id="g3002">
          <path
             d="m 7747,7837 c 0,0 2,1 4,3 2,2 6,5 10,9 8,8 21,20 36,33 31,29 75,62 122,96 46,31 96,63 135,83 19,11 36,19 47,25 6,3 11,6 14,7 3,2 5,2 5,2 0,0 -1,2 -3,5 -1,3 -4,8 -7,13 -7,12 -16,28 -28,47 -24,40 -59,90 -97,141 -39,49 -81,99 -115,134 -17,18 -31,32 -41,43 -6,5 -10,9 -12,12 -3,2 -5,4 -5,4 0,0 -28,-19 -68,-47 -10,-7 -20,-14 -32,-22 -11,-9 -22,-18 -34,-27 -24,-19 -49,-39 -72,-60 -24,-21 -47,-42 -68,-62 -5,-5 -10,-10 -15,-14 -5,-5 -10,-10 -14,-15 -9,-10 -18,-19 -26,-27 -15,-17 -28,-31 -37,-40 -4,-5 -7,-9 -10,-12 -2,-3 -3,-4 -3,-4 0,0 1,-1 4,-3 3,-2 7,-6 12,-10 10,-8 25,-20 42,-34 8,-7 17,-15 27,-23 4,-4 9,-8 14,-13 5,-4 10,-9 15,-14 20,-18 40,-39 60,-59 20,-20 38,-42 55,-62 9,-9 17,-19 25,-28 7,-9 14,-18 20,-27 25,-33 40,-54 40,-54"
             id="path3004" />
          <path
             d="m 7195,7777 c 0,0 3,7 7,18 5,11 12,26 21,45 9,18 19,40 31,63 13,23 27,47 42,72 7,13 15,24 22,36 8,12 16,23 24,34 8,12 15,23 23,33 7,10 14,19 21,28 27,35 47,58 47,58 0,0 -24,18 -61,44 -10,7 -20,14 -31,21 -11,7 -23,15 -35,22 -12,8 -25,16 -38,24 -14,8 -27,16 -41,23 -28,15 -56,29 -83,43 -28,13 -53,24 -76,34 -23,9 -42,18 -55,23 -14,5 -22,8 -22,8 0,0 -18,-28 -44,-70 -12,-21 -26,-46 -41,-72 -7,-14 -14,-27 -21,-41 -7,-14 -14,-29 -21,-43 -6,-14 -13,-29 -19,-43 -6,-14 -12,-27 -18,-41 -10,-27 -20,-52 -27,-74 -8,-21 -14,-39 -18,-52 -3,-12 -6,-20 -6,-20 0,0 8,-1 20,-5 13,-3 31,-7 52,-14 21,-6 46,-14 71,-22 13,-5 26,-10 40,-15 13,-5 26,-10 39,-16 13,-5 26,-10 39,-16 13,-6 25,-12 37,-18 23,-11 45,-22 63,-32 36,-21 58,-35 58,-35"
             id="path3006" />
          <path
             d="m 6715,7501 c 0,0 -1,27 0,68 0,11 0,22 1,34 1,11 2,24 2,37 1,13 2,27 4,41 1,13 3,27 5,41 2,14 4,28 6,43 3,14 5,28 8,41 5,26 11,51 16,73 5,22 10,39 14,52 3,12 5,19 5,19 0,0 -7,2 -20,5 -13,3 -31,8 -54,12 -22,4 -48,8 -77,13 -15,2 -30,4 -45,5 -15,2 -31,4 -46,5 -16,1 -32,3 -48,4 -15,1 -31,1 -46,2 -15,0 -29,0 -43,1 -14,0 -28,0 -40,0 -48,-1 -82,-3 -82,-3 0,0 -1,-8 -4,-22 -2,-15 -5,-35 -8,-60 -1,-12 -3,-25 -5,-39 0,-7 -1,-14 -2,-21 -1,-7 -1,-15 -2,-22 -2,-30 -4,-62 -5,-93 -1,-64 0,-125 5,-171 1,-23 3,-41 5,-54 0,-7 1,-12 1,-16 1,-3 1,-5 1,-5 0,0 2,0 5,1 4,1 9,2 15,3 13,2 32,4 54,7 43,6 102,10 158,12 29,0 57,0 83,-1 7,0 13,0 19,0 7,-1 13,-1 19,-2 12,-1 23,-2 33,-2 21,-2 37,-4 49,-5 12,-2 19,-3 19,-3"
             id="path3008" />
        </g>
        <g
           id="g3010">
          <path
             d="m 6377,7036 c 0,0 -12,24 -29,63 -8,18 -16,41 -26,65 -4,13 -9,26 -13,39 -4,13 -9,26 -13,40 -8,27 -16,55 -22,81 -6,27 -11,52 -16,74 -4,22 -6,40 -8,53 -2,12 -3,20 -3,20 0,0 -8,-2 -21,-4 -12,-3 -31,-6 -53,-12 -44,-11 -105,-27 -164,-49 -15,-5 -30,-10 -44,-16 -15,-5 -29,-11 -43,-17 -28,-12 -54,-23 -76,-34 -44,-21 -74,-37 -74,-37 0,0 2,-8 6,-21 3,-14 10,-34 17,-58 8,-23 16,-50 26,-78 11,-29 23,-59 35,-88 3,-7 6,-14 9,-21 3,-7 6,-14 10,-21 6,-14 13,-28 19,-41 7,-13 13,-25 19,-37 6,-12 12,-23 18,-33 22,-40 37,-65 37,-65 0,0 26,17 63,41 9,6 19,12 30,18 11,7 22,13 34,20 12,6 25,13 37,20 6,3 13,6 19,9 6,4 13,7 19,10 26,12 52,23 76,33 24,10 47,19 66,26 20,6 35,12 47,15 11,4 18,5 18,5"
             id="path3012" />
          <path
             d="m 6263,6494 c 0,0 -20,17 -50,45 -8,7 -16,15 -25,24 -9,8 -17,17 -26,26 -18,19 -37,40 -56,62 -36,43 -73,89 -97,126 -12,18 -22,34 -30,45 -7,11 -11,17 -11,17 0,0 -6,-4 -16,-12 -11,-7 -26,-18 -44,-32 -37,-28 -83,-67 -131,-111 -22,-21 -44,-44 -66,-66 -10,-11 -20,-21 -30,-32 -9,-10 -17,-20 -25,-29 -32,-37 -53,-63 -53,-63 0,0 21,-26 53,-63 8,-9 16,-19 25,-30 10,-10 20,-21 30,-32 22,-21 44,-44 66,-66 48,-43 93,-82 131,-110 18,-14 33,-25 44,-33 10,-7 16,-11 16,-11 0,0 4,6 11,17 8,11 18,27 30,45 24,36 61,83 97,126 19,22 38,43 56,62 9,9 17,18 26,26 9,8 17,16 25,23 30,29 50,46 50,46"
             id="path3014" />
          <path
             d="m 6377,5951 c 0,0 -7,2 -18,5 -12,4 -27,9 -47,16 -19,7 -42,15 -66,25 -24,10 -50,22 -76,34 -6,3 -13,6 -19,9 -6,4 -13,7 -19,10 -12,7 -25,13 -37,20 -11,7 -23,13 -34,19 -11,7 -21,13 -30,19 -37,23 -63,41 -63,41 0,0 -15,-26 -37,-66 -6,-10 -12,-21 -18,-32 -6,-12 -12,-24 -19,-37 -6,-13 -13,-27 -19,-41 -4,-7 -7,-14 -10,-21 -3,-7 -6,-15 -9,-22 -12,-29 -24,-58 -35,-87 -10,-28 -18,-55 -26,-79 -7,-23 -13,-43 -17,-57 -4,-14 -6,-22 -6,-22 0,0 30,-16 74,-37 22,-10 48,-22 76,-33 14,-6 28,-12 43,-18 15,-5 30,-11 44,-16 59,-21 120,-37 164,-48 22,-6 41,-9 53,-12 13,-3 21,-4 21,-4 0,0 1,7 3,20 2,13 4,31 8,53 5,22 10,47 16,73 6,26 14,55 22,82 4,13 9,27 13,40 4,13 9,26 13,38 10,25 18,47 26,66 17,38 29,62 29,62"
             id="path3016" />
        </g>
        <g
           id="g3018">
          <path
             d="m 6715,5487 c 0,0 -7,-1 -19,-3 -12,-1 -28,-3 -49,-5 -10,-1 -21,-2 -33,-3 -6,0 -12,0 -19,-1 -6,0 -12,0 -19,-1 -26,0 -54,-1 -83,0 -56,1 -115,5 -158,12 -22,2 -41,5 -54,7 -6,1 -11,2 -15,3 -3,0 -5,1 -5,1 0,0 0,-2 -1,-6 0,-3 -1,-9 -1,-15 -2,-13 -4,-32 -5,-54 -5,-46 -6,-107 -5,-171 1,-31 3,-63 5,-93 1,-8 2,-15 2,-23 1,-7 2,-14 2,-21 2,-13 4,-27 5,-39 3,-24 6,-45 8,-59 3,-14 4,-22 4,-22 0,0 34,-2 82,-3 12,0 26,0 40,0 14,0 28,1 43,1 15,1 31,1 46,2 16,1 32,2 48,4 16,1 31,3 46,4 16,2 30,4 45,6 29,4 55,9 77,13 23,4 41,9 54,11 13,4 20,5 20,5 0,0 -2,7 -5,20 -4,13 -9,30 -14,52 -5,22 -11,47 -16,73 -3,13 -5,27 -8,41 -2,14 -4,28 -6,42 -2,15 -4,28 -5,42 -1,14 -3,28 -4,41 0,13 -1,25 -2,37 -1,12 -1,23 -1,33 -1,42 0,69 0,69"
             id="path3020" />
          <path
             d="m 7195,5210 c 0,0 -22,-14 -58,-34 -19,-10 -40,-21 -63,-33 -12,-5 -24,-11 -37,-17 -13,-6 -26,-11 -39,-17 -13,-5 -26,-10 -39,-15 -14,-6 -27,-11 -40,-15 -25,-8 -50,-16 -71,-23 -22,-6 -39,-10 -52,-14 -12,-3 -20,-5 -20,-5 0,0 2,-7 6,-20 4,-12 10,-31 17,-52 8,-21 17,-46 28,-73 6,-14 11,-28 18,-42 6,-14 12,-28 19,-42 7,-15 14,-29 21,-43 7,-14 14,-28 21,-41 15,-26 29,-52 41,-72 26,-42 44,-70 44,-70 0,0 8,3 22,8 13,5 32,13 55,23 23,10 48,21 76,34 27,13 55,28 83,43 14,7 27,15 41,23 13,8 26,16 38,23 12,8 24,15 35,22 11,8 21,15 31,22 37,26 61,44 61,44 0,0 -20,23 -47,58 -7,9 -14,18 -21,28 -8,10 -15,21 -23,32 -8,12 -16,23 -24,35 -7,11 -15,23 -22,36 -15,24 -29,49 -42,71 -12,23 -22,46 -31,64 -9,19 -16,34 -21,45 -4,11 -7,17 -7,17"
             id="path3022" />
          <path
             d="m 7747,5151 c 0,0 -15,-22 -40,-55 -6,-8 -13,-17 -20,-26 -8,-9 -16,-19 -24,-29 -17,-19 -36,-41 -56,-62 -20,-20 -40,-40 -60,-59 -5,-4 -10,-9 -15,-14 -5,-4 -10,-8 -14,-12 -10,-8 -19,-16 -27,-23 -17,-14 -32,-26 -42,-35 -5,-4 -9,-7 -12,-9 -3,-2 -4,-3 -4,-3 0,0 1,-2 3,-4 3,-3 6,-7 10,-12 9,-10 22,-23 37,-40 8,-9 17,-18 26,-27 4,-5 9,-10 14,-15 5,-5 10,-10 15,-14 21,-20 44,-42 68,-63 23,-21 48,-40 72,-59 12,-9 23,-18 34,-27 12,-8 22,-16 32,-23 40,-28 68,-46 68,-46 0,0 2,1 5,4 2,3 7,7 12,12 10,10 24,25 41,43 34,34 76,85 115,134 38,51 73,101 97,140 12,20 21,36 28,47 3,6 6,10 7,14 2,3 3,4 3,4 0,0 -2,1 -5,3 -3,1 -8,3 -14,6 -11,6 -28,15 -47,26 -39,20 -89,52 -135,83 -47,34 -90,67 -122,95 -15,14 -28,25 -36,33 -4,4 -8,7 -10,10 -2,2 -4,3 -4,3"
             id="path3024" />
        </g>
        <g
           id="g3026">
          <path
             d="m 8293,5328 c 0,0 -5,-26 -14,-67 -4,-19 -10,-43 -17,-68 -4,-13 -7,-26 -12,-39 -4,-13 -8,-27 -13,-40 -18,-55 -42,-107 -60,-148 -10,-20 -18,-36 -24,-48 -6,-11 -10,-18 -10,-18 0,0 7,-3 19,-8 12,-6 29,-14 51,-23 41,-16 100,-39 160,-56 15,-4 31,-9 46,-13 15,-4 30,-7 45,-11 29,-7 57,-13 81,-18 48,-8 81,-13 81,-13 0,0 3,8 8,22 6,13 13,32 20,56 8,23 17,50 25,79 8,29 16,60 23,91 2,7 4,15 6,22 1,8 3,16 4,23 3,16 6,30 8,45 3,14 5,28 7,41 2,13 3,25 5,36 5,46 7,75 7,75 0,0 -30,1 -74,4 -11,1 -23,2 -35,3 -13,1 -26,3 -40,4 -13,2 -27,4 -41,6 -7,1 -14,2 -21,3 -7,1 -14,3 -21,4 -28,5 -56,11 -81,17 -26,6 -49,13 -69,18 -19,6 -35,11 -47,15 -11,4 -17,6 -17,6"
             id="path3028" />
          <path
             d="m 8704,5701 c 0,0 2,-7 5,-18 3,-12 6,-28 10,-49 3,-20 8,-44 11,-70 4,-25 7,-53 9,-82 3,-29 3,-57 4,-84 1,-14 1,-27 1,-40 0,-12 -1,-24 -1,-35 -1,-22 -2,-41 -2,-54 -1,-7 -1,-12 -1,-15 0,-4 -1,-6 -1,-6 0,0 2,0 6,0 3,0 8,0 15,0 13,0 32,0 55,1 11,0 24,0 37,1 13,0 27,1 41,2 29,3 61,5 92,9 31,4 62,9 92,14 30,6 57,12 81,17 24,6 45,10 58,14 14,4 22,6 22,6 0,0 -1,34 -5,82 -2,25 -5,53 -9,83 -2,15 -4,30 -7,46 -2,15 -5,31 -8,46 -3,16 -6,31 -9,46 -2,8 -4,15 -5,22 -2,8 -4,15 -6,22 -7,28 -14,54 -20,76 -6,22 -13,40 -17,52 -4,13 -7,20 -7,20 0,0 -7,-3 -19,-8 -12,-5 -29,-12 -50,-19 -21,-7 -45,-15 -71,-23 -7,-2 -13,-4 -20,-6 -7,-2 -13,-4 -20,-5 -14,-4 -28,-8 -42,-11 -14,-3 -27,-6 -41,-9 -13,-3 -27,-5 -40,-8 -26,-4 -49,-8 -70,-10 -41,-5 -68,-7 -68,-7"
             id="path3030" />
          <path
             d="m 8931,6206 c 0,0 16,-21 40,-55 6,-8 12,-17 19,-27 6,-10 13,-21 20,-32 7,-11 14,-23 21,-35 7,-12 13,-24 20,-37 13,-24 27,-50 38,-75 11,-24 22,-48 30,-69 9,-20 15,-38 19,-50 5,-12 7,-19 7,-19 0,0 7,3 19,8 13,5 30,12 51,22 20,10 44,22 70,35 26,14 53,29 80,45 13,8 28,17 40,25 13,9 26,17 39,26 12,8 24,17 36,25 11,8 22,15 32,23 38,29 65,51 65,51 0,0 -4,7 -10,20 -7,13 -17,31 -29,53 -12,21 -25,46 -41,71 -16,26 -34,53 -51,79 -5,6 -9,13 -13,19 -5,7 -10,13 -14,19 -10,13 -19,25 -27,36 -18,23 -35,44 -50,61 -30,35 -50,56 -50,56 0,0 -21,-21 -53,-52 -16,-15 -35,-32 -56,-50 -10,-9 -21,-18 -32,-27 -5,-4 -11,-8 -16,-13 -6,-4 -12,-9 -17,-13 -23,-17 -46,-33 -68,-48 -21,-15 -42,-27 -60,-38 -18,-11 -32,-19 -42,-25 -11,-5 -17,-9 -17,-9"
             id="path3032" />
        </g>
      </g>
    </g>
  </g>
</svg>
